SplineFontDB: 3.2
FontName: Estedad-Black
FullName: Estedad Black
FamilyName: Estedad Black
Weight: Black
Copyright: Copyright 2022 The Estedad Project Authors (https://github.com/aminabedi68/Estedad)
Version: 6.1
ItalicAngle: 0
UnderlinePosition: -750
UnderlineWidth: 150
Ascent: 1638
Descent: 410
InvalidEm: 0
sfntRevision: 0x0006199a
LayerCount: 2
Layer: 0 0 "Back" 1
Layer: 1 0 "Fore" 0
StyleMap: 0x0040
FSType: 0
OS2Version: 4
OS2_WeightWidthSlopeOnly: 0
OS2_UseTypoMetrics: 1
CreationTime: 1595075592
ModificationTime: 1651005869
PfmFamily: 17
TTFWeight: 900
TTFWidth: 5
LineGap: 0
VLineGap: 0
Panose: 2 0 10 3 0 0 0 0 0 0
OS2TypoAscent: 2400
OS2TypoAOffset: 0
OS2TypoDescent: -1200
OS2TypoDOffset: 0
OS2TypoLinegap: 0
OS2WinAscent: 2616
OS2WinAOffset: 0
OS2WinDescent: 1309
OS2WinDOffset: 0
HheadAscent: 2400
HheadAOffset: 0
HheadDescent: -1200
HheadDOffset: 0
OS2SubXSize: 1331
OS2SubYSize: 1433
OS2SubXOff: 0
OS2SubYOff: 286
OS2SupXSize: 1331
OS2SupYSize: 1433
OS2SupXOff: 0
OS2SupYOff: 983
OS2StrikeYSize: 102
OS2StrikeYPos: 530
OS2CapHeight: 1500
OS2XHeight: 1090
OS2Vendor: 'amin'
OS2CodePages: 000000d3.00000000
OS2UnicodeRanges: a000207f.9000207b.00000008.00000000
Lookup: 6 9 0 "'ccmp' Glyph Composition/Decomposition in Arabic lookup 73" { "'ccmp' Glyph Composition/Decomposition in Arabic lookup 73 contextual 0"  "'ccmp' Glyph Composition/Decomposition in Arabic lookup 73 contextual 1"  "'ccmp' Glyph Composition/Decomposition in Arabic lookup 73 contextual 2"  "'ccmp' Glyph Composition/Decomposition in Arabic lookup 73 contextual 3"  } ['ccmp' ('arab' <'FAR ' 'MLY ' 'SND ' 'URD ' 'dflt' > ) ]

StartChar: exclam
Encoding: 33 33 1
Width: 656
GlyphClass: 2
Flags: HMW
LayerCount: 2
Fore
SplineSet
483 515 m 257
 173 515 l 257
 133 1505 l 257
 523 1505 l 257
 483 515 l 257
EndSplineSet
Refer: 14 46 N 1 0 0 1 17 0 2
EndChar

StartChar: numbersign
Encoding: 35 35 3
Width: 1940
GlyphClass: 2
Flags: HMW
LayerCount: 2
Fore
SplineSet
1135 884 m 257
 874 884 l 257
 802 621 l 257
 1063 621 l 257
 1135 884 l 257
630 0 m 257
 296 0 l 257
 396 360 l 257
 162 360 l 257
 162 621 l 257
 468 621 l 257
 541 884 l 257
 253 884 l 257
 253 1144 l 257
 612 1144 l 257
 707 1482 l 257
 1039 1482 l 257
 946 1144 l 257
 1208 1144 l 257
 1303 1482 l 257
 1635 1482 l 257
 1540 1144 l 257
 1779 1144 l 257
 1779 884 l 257
 1469 884 l 257
 1397 621 l 257
 1689 621 l 257
 1689 360 l 257
 1325 360 l 257
 1226 0 l 257
 892 0 l 257
 992 360 l 257
 729 360 l 257
 630 0 l 257
EndSplineSet
EndChar

StartChar: ampersand
Encoding: 38 38 6
Width: 1534
GlyphClass: 2
Flags: HMW
LayerCount: 2
Fore
SplineSet
180 1111 m 256
 180 1344 356 1505 609 1505 c 256
 866 1505 1042 1337 1042 1091 c 256
 1042 904 941 776 697 652 c 256
 533 569 454 493 454 419 c 256
 454 352 520 306 615 306 c 256
 827 306 1023 534 1023 780 c 257
 1346 780 l 257
 1346 306 1056 -11 623 -11 c 256
 304 -11 100 161 100 428 c 256
 100 622 208 753 498 911 c 256
 655 996 707 1046 707 1109 c 256
 707 1163 669 1199 611 1199 c 256
 554 1199 516 1164 516 1110 c 256
 516 1056 554 997 633 929 c 258
 1434 236 l 257
 1212 -11 l 257
 365 736 l 258
 243 843 180 972 180 1111 c 256
EndSplineSet
EndChar

StartChar: quotesingle
Encoding: 39 39 7
Width: 400
GlyphClass: 2
Flags: HMW
LayerCount: 2
Fore
SplineSet
100 1505 m 257
 300 1505 l 257
 280 987 l 257
 120 987 l 257
 100 1505 l 257
EndSplineSet
EndChar

StartChar: parenleft
Encoding: 40 40 8
Width: 696
GlyphClass: 2
Flags: HMW
LayerCount: 2
Fore
SplineSet
410 1631 m 257
 656 1495 l 257
 516 1249 437 904 437 525 c 256
 437 146 516 -199 656 -445 c 257
 410 -582 l 257
 194 -212 80 124 80 525 c 256
 80 925 194 1261 410 1631 c 257
EndSplineSet
Position2: "SinglePositioning1 subtable" dx=0 dy=0 dh=200 dv=0
EndChar

StartChar: parenright
Encoding: 41 41 9
Width: 696
GlyphClass: 2
Flags: HMW
LayerCount: 2
Fore
SplineSet
286 -582 m 257
 40 -446 l 257
 180 -200 259 145 259 524 c 256
 259 903 180 1248 40 1494 c 257
 286 1631 l 257
 502 1261 616 925 616 524 c 256
 616 124 502 -212 286 -582 c 257
EndSplineSet
Position2: "SinglePositioning1 subtable" dx=0 dy=0 dh=200 dv=0
EndChar

StartChar: asterisk
Encoding: 42 42 10
Width: 1207
GlyphClass: 2
Flags: HMW
LayerCount: 2
Fore
SplineSet
133 1064 m 257
 216 1321 l 257
 484 1220 l 257
 467 1505 l 257
 741 1505 l 257
 726 1219 l 257
 994 1321 l 257
 1077 1064 l 257
 801 990 l 257
 983 763 l 257
 761 605 l 257
 604 848 l 257
 448 605 l 257
 226 763 l 257
 409 990 l 257
 133 1064 l 257
EndSplineSet
EndChar

StartChar: plus
Encoding: 43 43 11
Width: 1137
GlyphClass: 2
Flags: HMW
LayerCount: 2
Fore
SplineSet
1037 808 m 1
 1037 531 l 1
 707 531 l 1
 707 201 l 1
 430 201 l 1
 430 531 l 1
 100 531 l 1
 100 808 l 1
 430 808 l 1
 430 1138 l 1
 707 1138 l 1
 707 808 l 1
 1037 808 l 1
EndSplineSet
Substitution2: "'tnum' Tabular Numbers lookup 22 subtable" plus.tnum
EndChar

StartChar: comma
Encoding: 44 44 12
Width: 694
GlyphClass: 2
Flags: HMW
LayerCount: 2
Fore
SplineSet
183 416 m 257
 528 416 l 257
 330 -188 l 257
 85 -66 l 257
 183 416 l 257
EndSplineSet
EndChar

StartChar: hyphen
Encoding: 45 45 13
Width: 1137
GlyphClass: 2
Flags: HMW
LayerCount: 2
Fore
SplineSet
1037 808 m 257
 1037 531 l 257
 100 531 l 257
 100 808 l 257
 1037 808 l 257
EndSplineSet
Substitution2: "'tnum' Tabular Numbers lookup 22 subtable" hyphen.tnum
EndChar

StartChar: period
Encoding: 46 46 14
Width: 622
GlyphClass: 2
Flags: HMW
LayerCount: 2
Fore
SplineSet
120 177 m 256
 120 280 208 360 311 360 c 256
 414 360 502 280 502 177 c 256
 502 74 414 -11 311 -11 c 256
 208 -11 120 74 120 177 c 256
EndSplineSet
EndChar

StartChar: slash
Encoding: 47 47 15
Width: 1156
GlyphClass: 2
Flags: MW
LayerCount: 2
Fore
SplineSet
706 1505 m 257
 1126 1505 l 257
 448 0 l 257
 30 0 l 257
 706 1505 l 257
EndSplineSet
Substitution2: "'tnum' Tabular Numbers lookup 22 subtable" slash.tnum
Substitution2: "'smcp' Lowercase to Small Capitals in Latin lookup 0 subtable" slash.sc
EndChar

StartChar: zero
Encoding: 48 48 16
Width: 1442
GlyphClass: 2
Flags: HMW
LayerCount: 2
Fore
SplineSet
724 1515 m 256
 1297 1515 1332 1022 1332 752 c 256
 1332 482 1297 -11 724 -11 c 256
 151 -11 112 482 112 752 c 256
 112 1022 151 1515 724 1515 c 256
724 1152 m 256
 582 1152 502 1085 502 752 c 256
 502 419 582 349 724 349 c 256
 866 349 942 417 942 752 c 256
 942 1087 866 1152 724 1152 c 256
EndSplineSet
Substitution2: "'onum' Oldstyle Figures lookup 23 subtable" zero.onum
Substitution2: "'tnum' Tabular Numbers lookup 22 subtable" zero.tnum
Substitution2: "'zero' Slashed Zero lookup 19 subtable" zero.slashed
Substitution2: "'sups' Superscript lookup 0 subtable" uni2070
Substitution2: "'subs' Subscript lookup 0 subtable" uni2080
Substitution2: "'sinf' Scientific Inferiors lookup 20 subtable" uni2080
Substitution2: "'smcp' Lowercase to Small Capitals in Latin lookup 0 subtable" zero.SC
Substitution2: "Single Substitution lookup 178 subtable" uni0660.EoA
EndChar

StartChar: one
Encoding: 49 49 17
Width: 952
GlyphClass: 2
Flags: MW
LayerCount: 2
Fore
SplineSet
414 1041 m 257
 370 995 233 940 50 940 c 257
 50 1242 l 257
 319 1242 414 1287 414 1505 c 257
 802 1505 l 257
 802 0 l 257
 414 0 l 257
 414 1041 l 257
EndSplineSet
Substitution2: "'onum' Oldstyle Figures lookup 23 subtable" one.onum
Substitution2: "'tnum' Tabular Numbers lookup 22 subtable" one.tnum
Substitution2: "'sups' Superscript lookup 0 subtable" uni00B9
Substitution2: "'subs' Subscript lookup 0 subtable" uni2081
Substitution2: "'sinf' Scientific Inferiors lookup 20 subtable" uni2081
Substitution2: "'smcp' Lowercase to Small Capitals in Latin lookup 0 subtable" one.SC
Substitution2: "Single Substitution lookup 178 subtable" uni0661.EoA
EndChar

StartChar: two
Encoding: 50 50 18
Width: 1151
GlyphClass: 2
Flags: HMW
LayerCount: 2
Fore
SplineSet
81 992 m 257
 52 1296 261 1515 579 1515 c 256
 906 1515 1091 1330 1091 1072 c 256
 1091 790 905 647 733 544 c 256
 616 474 529 413 509 331 c 257
 1091 331 l 257
 1091 0 l 257
 80 0 l 257
 70 57 66 110 66 158 c 256
 66 479 263 604 496 750 c 256
 637 838 749 916 749 1020 c 256
 749 1110 698 1194 586 1194 c 256
 475 1194 408 1126 419 992 c 257
 81 992 l 257
EndSplineSet
Substitution2: "'onum' Oldstyle Figures lookup 23 subtable" two.onum
Substitution2: "'tnum' Tabular Numbers lookup 22 subtable" two.tnum
Substitution2: "'sups' Superscript lookup 0 subtable" uni00B2
Substitution2: "'subs' Subscript lookup 0 subtable" uni2082
Substitution2: "'sinf' Scientific Inferiors lookup 20 subtable" uni2082
Substitution2: "'smcp' Lowercase to Small Capitals in Latin lookup 0 subtable" two.SC
Substitution2: "Single Substitution lookup 178 subtable" uni0662.EoA
EndChar

StartChar: three
Encoding: 51 51 19
Width: 1223
GlyphClass: 2
Flags: HMW
LayerCount: 2
Fore
SplineSet
51 525 m 257
 435 525 l 257
 417 386 492 312 588 312 c 256
 690 312 752 370 752 467 c 256
 752 557 696 627 579 627 c 258
 427 627 l 257
 427 896 l 257
 579 896 l 258
 667 896 709 967 709 1041 c 256
 709 1116 661 1177 587 1177 c 256
 492 1177 449 1097 464 1001 c 257
 116 1001 l 257
 93 1332 280 1515 600 1515 c 256
 819 1515 1081 1359 1081 1049 c 256
 1081 967 1032 835 928 769 c 257
 1028 718 1114 564 1114 439 c 256
 1114 138 880 -11 585 -11 c 256
 243 -11 22 166 51 525 c 257
EndSplineSet
Substitution2: "'onum' Oldstyle Figures lookup 23 subtable" three.onum
Substitution2: "'tnum' Tabular Numbers lookup 22 subtable" three.tnum
Substitution2: "'sups' Superscript lookup 0 subtable" uni00B3
Substitution2: "'subs' Subscript lookup 0 subtable" uni2083
Substitution2: "'sinf' Scientific Inferiors lookup 20 subtable" uni2083
Substitution2: "'smcp' Lowercase to Small Capitals in Latin lookup 0 subtable" three.SC
Substitution2: "Single Substitution lookup 178 subtable" uni0663.EoA
EndChar

StartChar: four
Encoding: 52 52 20
Width: 1322
GlyphClass: 2
Flags: MW
LayerCount: 2
Fore
SplineSet
653 628 m 257
 653 994 l 257
 390 628 l 257
 653 628 l 257
653 329 m 257
 71 329 l 257
 71 620 l 257
 691 1505 l 257
 1045 1505 l 257
 1045 628 l 257
 1243 628 l 257
 1243 329 l 257
 1045 329 l 257
 1045 0 l 257
 653 0 l 257
 653 329 l 257
EndSplineSet
Substitution2: "'onum' Oldstyle Figures lookup 23 subtable" four.onum
Substitution2: "'tnum' Tabular Numbers lookup 22 subtable" four.tnum
Substitution2: "'sups' Superscript lookup 0 subtable" uni2074
Substitution2: "'subs' Subscript lookup 0 subtable" uni2084
Substitution2: "'sinf' Scientific Inferiors lookup 20 subtable" uni2084
Substitution2: "'smcp' Lowercase to Small Capitals in Latin lookup 0 subtable" four.SC
Substitution2: "Single Substitution lookup 178 subtable" uni0664.EoA
EndChar

StartChar: five
Encoding: 53 53 21
Width: 1281
GlyphClass: 2
Flags: HMW
LayerCount: 2
Fore
SplineSet
101 454 m 1
 485 454 l 1
 493 358 544 312 643 312 c 0
 749 312 798 380 798 527 c 0
 798 666 737 748 634 748 c 0
 563 748 516 716 488 646 c 1
 107 646 l 1
 179 1505 l 1
 1145 1505 l 1
 1145 1197 l 1
 470 1197 l 1
 451 993 l 1
 519 1033 597 1053 690 1053 c 0
 992 1053 1180 848 1180 520 c 0
 1180 180 979 -11 620 -11 c 0
 292 -11 101 160 101 454 c 1
EndSplineSet
Substitution2: "'onum' Oldstyle Figures lookup 23 subtable" five.onum
Substitution2: "'tnum' Tabular Numbers lookup 22 subtable" five.tnum
Substitution2: "'sups' Superscript lookup 0 subtable" uni2075
Substitution2: "'subs' Subscript lookup 0 subtable" uni2085
Substitution2: "'sinf' Scientific Inferiors lookup 20 subtable" uni2085
Substitution2: "'smcp' Lowercase to Small Capitals in Latin lookup 0 subtable" five.SC
Substitution2: "Single Substitution lookup 178 subtable" uni0665.EoA
EndChar

StartChar: six
Encoding: 54 54 22
Width: 1260
GlyphClass: 2
Flags: HMW
LayerCount: 2
Fore
SplineSet
648 676 m 256
 602 676 534 665 477 633 c 257
 477 373 539 321 641 321 c 256
 727 321 794 384 794 508 c 256
 794 626 732 676 648 676 c 256
687 1515 m 256
 947 1515 1169 1367 1169 1067 c 257
 848 1067 l 257
 848 1153 789 1193 674 1193 c 256
 538 1193 467 1121 467 934 c 257
 557 1006 625 1017 733 1017 c 256
 981 1017 1179 832 1179 537 c 256
 1179 215 984 -11 648 -11 c 256
 236 -11 100 262 100 705 c 256
 100 1259 316 1515 687 1515 c 256
EndSplineSet
Substitution2: "'onum' Oldstyle Figures lookup 23 subtable" six.onum
Substitution2: "'tnum' Tabular Numbers lookup 22 subtable" six.tnum
Substitution2: "'sups' Superscript lookup 0 subtable" uni2076
Substitution2: "'subs' Subscript lookup 0 subtable" uni2086
Substitution2: "'sinf' Scientific Inferiors lookup 20 subtable" uni2086
Substitution2: "'smcp' Lowercase to Small Capitals in Latin lookup 0 subtable" six.SC
Substitution2: "Single Substitution lookup 178 subtable" uni0666.EoA
EndChar

StartChar: seven
Encoding: 55 55 23
Width: 1140
GlyphClass: 2
Flags: MW
LayerCount: 2
Fore
SplineSet
1081 1171 m 257
 748 829 589 455 589 0 c 257
 219 0 l 257
 219 420 362 844 632 1162 c 257
 51 1162 l 257
 51 1505 l 257
 1014 1505 l 257
 1081 1171 l 257
EndSplineSet
Substitution2: "'onum' Oldstyle Figures lookup 23 subtable" seven.onum
Substitution2: "'tnum' Tabular Numbers lookup 22 subtable" seven.tnum
Substitution2: "'sups' Superscript lookup 0 subtable" uni2077
Substitution2: "'subs' Subscript lookup 0 subtable" uni2087
Substitution2: "'sinf' Scientific Inferiors lookup 20 subtable" uni2087
Substitution2: "'smcp' Lowercase to Small Capitals in Latin lookup 0 subtable" seven.SC
Substitution2: "Single Substitution lookup 178 subtable" uni0667.EoA
EndChar

StartChar: eight
Encoding: 56 56 24
Width: 1302
GlyphClass: 2
Flags: HMW
LayerCount: 2
Fore
SplineSet
651 1515 m 256
 973 1515 1160 1311 1160 1101 c 256
 1160 989 1107 875 994 789 c 257
 1135 686 1202 551 1202 421 c 256
 1202 197 1006 -11 651 -11 c 256
 296 -11 100 197 100 421 c 256
 100 551 167 686 308 789 c 257
 195 875 142 989 142 1101 c 256
 142 1311 328 1515 651 1515 c 256
651 1212 m 256
 571 1212 526 1161 526 1068 c 256
 526 973 572 921 651 921 c 256
 730 921 774 973 774 1068 c 256
 774 1162 731 1212 651 1212 c 256
647 632 m 256
 553 632 498 575 498 477 c 256
 498 376 557 312 651 312 c 256
 743 312 800 373 800 472 c 256
 800 571 744 632 647 632 c 256
EndSplineSet
Substitution2: "'onum' Oldstyle Figures lookup 23 subtable" eight.onum
Substitution2: "'tnum' Tabular Numbers lookup 22 subtable" eight.tnum
Substitution2: "'sups' Superscript lookup 0 subtable" uni2078
Substitution2: "'subs' Subscript lookup 0 subtable" uni2088
Substitution2: "'sinf' Scientific Inferiors lookup 20 subtable" uni2088
Substitution2: "'smcp' Lowercase to Small Capitals in Latin lookup 0 subtable" eight.SC
Substitution2: "Single Substitution lookup 178 subtable" uni0668.EoA
EndChar

StartChar: nine
Encoding: 57 57 25
Width: 1260
GlyphClass: 2
Flags: HMW
LayerCount: 2
Fore
SplineSet
612 828 m 256
 658 828 726 839 783 871 c 257
 783 1131 721 1183 619 1183 c 256
 533 1183 466 1120 466 996 c 256
 466 878 528 828 612 828 c 256
573 -11 m 256
 313 -11 91 137 91 437 c 257
 412 437 l 257
 412 351 471 311 586 311 c 256
 722 311 793 383 793 570 c 257
 703 498 635 487 527 487 c 256
 279 487 81 672 81 967 c 256
 81 1289 276 1515 612 1515 c 256
 1024 1515 1160 1242 1160 799 c 256
 1160 245 944 -11 573 -11 c 256
EndSplineSet
Substitution2: "'onum' Oldstyle Figures lookup 23 subtable" nine.onum
Substitution2: "'tnum' Tabular Numbers lookup 22 subtable" nine.tnum
Substitution2: "'sups' Superscript lookup 0 subtable" uni2079
Substitution2: "'subs' Subscript lookup 0 subtable" uni2089
Substitution2: "'sinf' Scientific Inferiors lookup 20 subtable" uni2089
Substitution2: "'smcp' Lowercase to Small Capitals in Latin lookup 0 subtable" nine.SC
Substitution2: "Single Substitution lookup 178 subtable" uni0669.EoA
EndChar

StartChar: less
Encoding: 60 60 28
Width: 783
GlyphClass: 2
Flags: HMW
LayerCount: 2
Fore
SplineSet
592 1272 m 257
 743 1118 l 257
 342 754 l 257
 743 390 l 257
 592 235 l 257
 40 754 l 257
 592 1272 l 257
EndSplineSet
Position2: "SinglePositioning1 subtable" dx=0 dy=0 dh=200 dv=0
EndChar

StartChar: greater
Encoding: 62 62 30
Width: 783
GlyphClass: 2
Flags: HMW
LayerCount: 2
Fore
SplineSet
191 236 m 257
 40 390 l 257
 441 754 l 257
 40 1118 l 257
 191 1273 l 257
 743 754 l 257
 191 236 l 257
EndSplineSet
EndChar

StartChar: question
Encoding: 63 63 31
Width: 1169
GlyphClass: 2
Flags: HMW
LayerCount: 2
Fore
SplineSet
393 505 m 257
 393 690 498 799 586 890 c 256
 650 956 704 1013 704 1083 c 256
 704 1156 661 1219 566 1219 c 256
 488 1219 441 1165 441 1081 c 256
 441 1068 443 1052 445 1039 c 257
 116 1039 l 257
 112 1063 111 1086 111 1109 c 256
 111 1358 324 1525 584 1525 c 256
 887 1525 1059 1309 1059 1111 c 256
 1059 945 978 866 898 791 c 256
 822 719 749 648 749 505 c 257
 393 505 l 257
376 177 m 256
 376 280 464 360 567 360 c 256
 670 360 757 280 757 177 c 256
 757 74 670 -11 567 -11 c 256
 464 -11 376 74 376 177 c 256
EndSplineSet
EndChar

StartChar: at
Encoding: 64 64 32
Width: 1996
GlyphClass: 2
Flags: HMW
LayerCount: 2
Fore
SplineSet
1023 742 m 256
 856 742 787 624 787 445 c 256
 787 311 834 229 961 229 c 256
 1088 229 1133 346 1145 471 c 258
 1166 713 l 257
 1130 733 1090 742 1023 742 c 256
1023 975 m 256
 1204 975 1324 895 1424 818 c 257
 1382 345 l 258
 1380 325 1378 301 1378 295 c 256
 1378 250 1401 236 1446 236 c 256
 1570 236 1621 401 1621 601 c 256
 1621 932 1393 1148 1039 1148 c 256
 643 1148 391 866 391 440 c 256
 391 27 589 -156 967 -156 c 256
 1048 -156 1124 -140 1193 -116 c 257
 1277 -329 l 257
 1183 -364 1080 -386 967 -386 c 256
 453 -386 140 -91 140 437 c 256
 140 999 502 1373 1048 1373 c 256
 1541 1373 1856 1057 1856 587 c 256
 1856 285 1742 -11 1445 -11 c 256
 1348 -11 1274 35 1233 103 c 257
 1171 26 1065 -11 961 -11 c 256
 705 -11 540 181 540 445 c 256
 540 765 708 975 1023 975 c 256
EndSplineSet
EndChar

StartChar: A
Encoding: 65 65 33
Width: 1480
GlyphClass: 2
Flags: HMW
AnchorPoint: "down_II" 1385 0 basechar 0
AnchorPoint: "down_I" 742 0 basechar 0
AnchorPoint: "up_I" 742 1505 basechar 0
LayerCount: 2
Fore
SplineSet
508 319 m 257
 408 0 l 257
 -9 0 l 257
 531 1505 l 257
 951 1505 l 257
 1489 0 l 257
 1073 0 l 257
 973 319 l 257
 508 319 l 257
602 611 m 257
 881 611 l 257
 742 1054 l 257
 602 611 l 257
EndSplineSet
Substitution2: "'c2sc' Capitals to Small Capitals in Latin lookup 0 subtable" uni1D00
EndChar

StartChar: B
Encoding: 66 66 34
Width: 1438
GlyphClass: 2
Flags: HMW
AnchorPoint: "down_I" 690 0 basechar 0
AnchorPoint: "up_I" 690 1505 basechar 0
LayerCount: 2
Fore
SplineSet
133 1505 m 257
 803 1505 l 258
 1103 1505 1287 1353 1287 1062 c 256
 1287 925 1219 814 1110 753 c 257
 1234 698 1330 562 1330 399 c 256
 1330 102 1157 0 833 0 c 258
 133 0 l 257
 133 1505 l 257
523 1181 m 257
 523 892 l 257
 751 892 l 258
 836 892 893 941 893 1037 c 256
 893 1132 837 1181 751 1181 c 258
 523 1181 l 257
523 610 m 257
 523 321 l 257
 801 321 l 258
 886 321 943 371 943 467 c 256
 943 562 887 610 801 610 c 258
 523 610 l 257
EndSplineSet
Substitution2: "'c2sc' Capitals to Small Capitals in Latin lookup 0 subtable" uni0299
EndChar

StartChar: C
Encoding: 67 67 35
Width: 1517
GlyphClass: 2
Flags: HMW
AnchorPoint: "down_I" 752 -11 basechar 0
AnchorPoint: "up_I" 752 1515 basechar 0
LayerCount: 2
Fore
SplineSet
471 752 m 256
 471 473 569 312 750 312 c 256
 894 312 991 414 1005 564 c 257
 1417 564 l 257
 1417 248 1137 -11 752 -11 c 256
 333 -11 81 299 81 752 c 256
 81 1205 333 1515 752 1515 c 256
 1137 1515 1417 1256 1417 940 c 257
 1005 940 l 257
 991 1090 894 1192 750 1192 c 256
 569 1192 471 1031 471 752 c 256
EndSplineSet
Substitution2: "'c2sc' Capitals to Small Capitals in Latin lookup 0 subtable" uni1D04
EndChar

StartChar: D
Encoding: 68 68 36
Width: 1432
GlyphClass: 2
Flags: HMW
AnchorPoint: "down_I" 651 0 basechar 0
AnchorPoint: "up_I" 651 1505 basechar 0
LayerCount: 2
Fore
SplineSet
1357 752 m 256
 1357 370 1168 0 651 0 c 258
 117 0 l 257
 117 1505 l 257
 651 1505 l 258
 1168 1505 1357 1134 1357 752 c 256
966 752 m 256
 966 1068 887 1181 651 1181 c 258
 507 1181 l 257
 507 321 l 257
 651 321 l 258
 887 321 966 435 966 752 c 256
EndSplineSet
Substitution2: "'c2sc' Capitals to Small Capitals in Latin lookup 0 subtable" uni1D05
EndChar

StartChar: E
Encoding: 69 69 37
Width: 1138
GlyphClass: 2
Flags: HMW
AnchorPoint: "down_II" 813 0 basechar 0
AnchorPoint: "down_I" 650 0 basechar 0
AnchorPoint: "up_I" 650 1505 basechar 0
LayerCount: 2
Fore
SplineSet
1109 321 m 257
 1109 0 l 257
 117 0 l 257
 117 1505 l 257
 1109 1505 l 257
 1109 1181 l 257
 507 1181 l 257
 507 900 l 257
 1053 900 l 257
 1053 605 l 257
 507 605 l 257
 507 321 l 257
 1109 321 l 257
EndSplineSet
Substitution2: "'c2sc' Capitals to Small Capitals in Latin lookup 0 subtable" uni1D07
EndChar

StartChar: F
Encoding: 70 70 38
Width: 1138
GlyphClass: 2
Flags: MW
AnchorPoint: "down_I" 650 0 basechar 0
AnchorPoint: "up_I" 650 1505 basechar 0
LayerCount: 2
Fore
SplineSet
507 0 m 257
 117 0 l 257
 117 1505 l 257
 1109 1505 l 257
 1109 1181 l 257
 507 1181 l 257
 507 858 l 257
 961 858 l 257
 961 563 l 257
 507 563 l 257
 507 0 l 257
EndSplineSet
Substitution2: "'c2sc' Capitals to Small Capitals in Latin lookup 0 subtable" uniA730
EndChar

StartChar: G
Encoding: 71 71 39
Width: 1606
GlyphClass: 2
Flags: HMW
AnchorPoint: "down_I" 849 -12 basechar 0
AnchorPoint: "up_I" 818 1515 basechar 0
LayerCount: 2
Fore
SplineSet
742 858 m 257
 1491 858 l 257
 1491 279 l 257
 1338 98 1152 -12 849 -12 c 256
 403 -12 106 304 106 752 c 256
 106 1193 396 1515 818 1515 c 256
 1115 1515 1306 1355 1415 1092 c 257
 1115 973 l 257
 1053 1104 967 1192 820 1192 c 256
 620 1192 497 1028 497 752 c 256
 497 457 618 313 854 313 c 256
 943 313 1038 337 1101 360 c 257
 1101 563 l 257
 742 563 l 257
 742 858 l 257
EndSplineSet
Substitution2: "'c2sc' Capitals to Small Capitals in Latin lookup 0 subtable" uni0262
EndChar

StartChar: H
Encoding: 72 72 40
Width: 1494
GlyphClass: 2
Flags: HMW
AnchorPoint: "down_I" 747 0 basechar 0
AnchorPoint: "up_I" 747 1505 basechar 0
LayerCount: 2
Fore
SplineSet
987 1505 m 257
 1377 1505 l 257
 1377 0 l 257
 987 0 l 257
 987 605 l 257
 507 605 l 257
 507 0 l 257
 117 0 l 257
 117 1505 l 257
 507 1505 l 257
 507 900 l 257
 987 900 l 257
 987 1505 l 257
EndSplineSet
Substitution2: "'c2sc' Capitals to Small Capitals in Latin lookup 0 subtable" uni029C
EndChar

StartChar: I
Encoding: 73 73 41
Width: 683
GlyphClass: 2
Flags: HMW
AnchorPoint: "down_II" 341 0 basechar 0
AnchorPoint: "down_I" 341 0 basechar 0
AnchorPoint: "up_I" 341 1505 basechar 0
LayerCount: 2
Fore
SplineSet
537 0 m 257
 146 0 l 257
 146 1505 l 257
 537 1505 l 257
 537 0 l 257
EndSplineSet
Substitution2: "'c2sc' Capitals to Small Capitals in Latin lookup 0 subtable" uni026A
EndChar

StartChar: J
Encoding: 74 74 42
Width: 827
GlyphClass: 2
Flags: MW
AnchorPoint: "down_I" 337 -11 basechar 0
AnchorPoint: "up_I" 517 1505 basechar 0
LayerCount: 2
Fore
SplineSet
52 42 m 257
 103 284 l 257
 136 278 184 270 217 270 c 256
 279 270 322 296 322 357 c 258
 322 1505 l 257
 713 1505 l 257
 713 311 l 258
 713 79 539 -11 337 -11 c 256
 239 -11 138 13 52 42 c 257
EndSplineSet
Substitution2: "'c2sc' Capitals to Small Capitals in Latin lookup 0 subtable" uni1D0A
EndChar

StartChar: K
Encoding: 75 75 43
Width: 1475
GlyphClass: 2
Flags: HMW
AnchorPoint: "down_I" 740 0 basechar 0
AnchorPoint: "up_I" 740 1505 basechar 0
LayerCount: 2
Fore
SplineSet
1007 1505 m 257
 1459 1505 l 257
 844 750 l 257
 1459 0 l 257
 1007 0 l 257
 530 640 l 257
 507 640 l 257
 507 0 l 257
 117 0 l 257
 117 1505 l 257
 507 1505 l 257
 507 905 l 257
 530 905 l 257
 1007 1505 l 257
EndSplineSet
Substitution2: "'c2sc' Capitals to Small Capitals in Latin lookup 0 subtable" uni1D0B
EndChar

StartChar: L
Encoding: 76 76 44
Width: 1162
GlyphClass: 2
Flags: HMW
AnchorPoint: "up_II" 571 1505 basechar 0
AnchorPoint: "down_II" 1029 0 basechar 0
AnchorPoint: "middle_dot_I" 750 896 basechar 0
AnchorPoint: "down_I" 619 0 basechar 0
AnchorPoint: "up_I" 750 1505 basechar 0
LayerCount: 2
Fore
SplineSet
1122 321 m 257
 1122 0 l 257
 117 0 l 257
 117 1505 l 257
 507 1505 l 257
 507 321 l 257
 1122 321 l 257
EndSplineSet
Substitution2: "'c2sc' Capitals to Small Capitals in Latin lookup 0 subtable" uni029F
EndChar

StartChar: M
Encoding: 77 77 45
Width: 1947
GlyphClass: 2
Flags: HMW
AnchorPoint: "down_I" 982 0 basechar 0
AnchorPoint: "up_I" 982 1505 basechar 0
LayerCount: 2
Fore
SplineSet
507 0 m 257
 117 0 l 257
 117 1505 l 257
 560 1505 l 257
 982 381 l 257
 1386 1505 l 257
 1832 1505 l 257
 1832 0 l 257
 1441 0 l 257
 1441 857 l 257
 1161 0 l 257
 803 0 l 257
 507 858 l 257
 507 0 l 257
EndSplineSet
Substitution2: "'c2sc' Capitals to Small Capitals in Latin lookup 0 subtable" uni1D0D
EndChar

StartChar: N
Encoding: 78 78 46
Width: 1500
GlyphClass: 2
Flags: HMW
AnchorPoint: "down_I" 740 0 basechar 0
AnchorPoint: "up_I" 774 1505 basechar 0
LayerCount: 2
Fore
SplineSet
995 1505 m 257
 1386 1505 l 257
 1386 0 l 257
 1024 0 l 257
 507 839 l 257
 507 0 l 257
 117 0 l 257
 117 1505 l 257
 478 1505 l 257
 995 664 l 257
 995 1505 l 257
EndSplineSet
Substitution2: "'c2sc' Capitals to Small Capitals in Latin lookup 0 subtable" uni0274
EndChar

StartChar: O
Encoding: 79 79 47
Width: 1514
GlyphClass: 2
Flags: HMW
AnchorPoint: "up_II" 1002 1285 basechar 0
AnchorPoint: "down_II" 758 -11 basechar 0
AnchorPoint: "down_I" 758 -11 basechar 0
AnchorPoint: "up_I" 758 1515 basechar 0
LayerCount: 2
Fore
SplineSet
758 1515 m 256
 1252 1515 1449 1152 1449 752 c 256
 1449 352 1249 -11 758 -11 c 256
 267 -11 65 352 65 752 c 256
 65 1152 264 1515 758 1515 c 256
758 1189 m 256
 596 1189 460 1064 460 752 c 256
 460 440 593 315 758 315 c 256
 923 315 1056 440 1056 752 c 256
 1056 1064 920 1189 758 1189 c 256
EndSplineSet
Substitution2: "'c2sc' Capitals to Small Capitals in Latin lookup 0 subtable" uni1D0F
EndChar

StartChar: P
Encoding: 80 80 48
Width: 1418
GlyphClass: 2
Flags: HMW
AnchorPoint: "down_I" 740 0 basechar 0
AnchorPoint: "up_I" 740 1505 basechar 0
LayerCount: 2
Fore
SplineSet
523 0 m 257
 133 0 l 257
 133 1505 l 257
 783 1505 l 258
 1145 1505 1334 1335 1334 1010 c 256
 1334 685 1145 519 783 519 c 258
 523 519 l 257
 523 0 l 257
523 1181 m 257
 523 843 l 257
 771 843 l 258
 885 843 944 904 944 1012 c 256
 944 1119 886 1181 771 1181 c 258
 523 1181 l 257
EndSplineSet
Substitution2: "'c2sc' Capitals to Small Capitals in Latin lookup 0 subtable" uni1D18
EndChar

StartChar: R
Encoding: 82 82 50
Width: 1415
GlyphClass: 2
Flags: HMW
AnchorPoint: "down_I" 740 0 basechar 0
AnchorPoint: "up_I" 740 1505 basechar 0
LayerCount: 2
Fore
SplineSet
1034 719 m 257
 1416 0 l 257
 1044 0 l 257
 706 719 l 257
 1034 719 l 257
EndSplineSet
Refer: 48 80 N 1 0 0 1 0 0 2
Substitution2: "'c2sc' Capitals to Small Capitals in Latin lookup 0 subtable" uni0280
EndChar

StartChar: S
Encoding: 83 83 51
Width: 1299
GlyphClass: 2
Flags: HMW
AnchorPoint: "down_I" 641 -11 basechar 0
AnchorPoint: "up_I" 658 1515 basechar 0
LayerCount: 2
Fore
SplineSet
80 504 m 1
 463 504 l 1
 463 372 523 314 659 314 c 0
 768 314 835 357 835 428 c 0
 835 486 790 519 630 577 c 0
 264 709 118 850 118 1069 c 0
 118 1336 334 1515 658 1515 c 0
 996 1515 1204 1331 1204 1032 c 1
 822 1032 l 1
 822 1138 768 1189 655 1189 c 0
 560 1189 501 1146 501 1076 c 0
 501 1009 556 969 731 908 c 0
 1080 787 1219 655 1219 443 c 0
 1219 170 989 -11 641 -11 c 0
 280 -11 80 172 80 504 c 1
EndSplineSet
Substitution2: "'c2sc' Capitals to Small Capitals in Latin lookup 0 subtable" uniA731
EndChar

StartChar: T
Encoding: 84 84 52
Width: 1332
GlyphClass: 2
Flags: HMW
AnchorPoint: "down_I" 666 0 basechar 0
AnchorPoint: "up_I" 666 1505 basechar 0
LayerCount: 2
Fore
SplineSet
862 0 m 257
 471 0 l 257
 471 1181 l 257
 20 1181 l 257
 20 1505 l 257
 1312 1505 l 257
 1312 1181 l 257
 862 1181 l 257
 862 0 l 257
EndSplineSet
Substitution2: "'c2sc' Capitals to Small Capitals in Latin lookup 0 subtable" uni1D1B
EndChar

StartChar: U
Encoding: 85 85 53
Width: 1524
GlyphClass: 2
Flags: HMW
AnchorPoint: "up_II" 1277 1285 basechar 0
AnchorPoint: "down_II" 762 -11 basechar 0
AnchorPoint: "down_I" 762 -11 basechar 0
AnchorPoint: "up_I" 762 1505 basechar 0
LayerCount: 2
Fore
SplineSet
1014 1505 m 257
 1404 1505 l 257
 1404 557 l 258
 1404 198 1188 -11 762 -11 c 256
 336 -11 120 198 120 557 c 258
 120 1505 l 257
 510 1505 l 257
 510 548 l 258
 510 421 561 333 762 333 c 256
 963 333 1014 421 1014 548 c 258
 1014 1505 l 257
EndSplineSet
Substitution2: "'c2sc' Capitals to Small Capitals in Latin lookup 0 subtable" uni1D1C
EndChar

StartChar: V
Encoding: 86 86 54
Width: 1480
GlyphClass: 2
Flags: HMW
AnchorPoint: "down_I" 740 0 basechar 0
AnchorPoint: "up_I" 740 1505 basechar 0
LayerCount: 2
Fore
SplineSet
740 446 m 257
 1074 1505 l 257
 1491 1505 l 257
 949 0 l 257
 531 0 l 257
 -11 1505 l 257
 407 1505 l 257
 740 446 l 257
EndSplineSet
Substitution2: "'c2sc' Capitals to Small Capitals in Latin lookup 0 subtable" uni1D20
EndChar

StartChar: W
Encoding: 87 87 55
Width: 2008
GlyphClass: 2
Flags: HMW
AnchorPoint: "down_I" 1005 0 basechar 0
AnchorPoint: "up_I" 1005 1505 basechar 0
LayerCount: 2
Fore
SplineSet
1584 1505 m 257
 1989 1505 l 257
 1585 0 l 257
 1221 0 l 257
 1005 911 l 257
 786 0 l 257
 422 0 l 257
 20 1505 l 257
 424 1505 l 257
 625 580 l 257
 837 1505 l 257
 1171 1505 l 257
 1382 580 l 257
 1584 1505 l 257
EndSplineSet
Substitution2: "'c2sc' Capitals to Small Capitals in Latin lookup 0 subtable" uni1D21
EndChar

StartChar: X
Encoding: 88 88 56
Width: 1459
GlyphClass: 2
Flags: HMW
AnchorPoint: "down_I" 730 0 basechar 0
AnchorPoint: "up_I" 730 1505 basechar 0
LayerCount: 2
Fore
SplineSet
1459 0 m 257
 1002 0 l 257
 730 456 l 257
 456 0 l 257
 0 0 l 257
 519 750 l 257
 0 1505 l 257
 456 1505 l 257
 730 1047 l 257
 1002 1505 l 257
 1459 1505 l 257
 939 750 l 257
 1459 0 l 257
EndSplineSet
Substitution2: "'c2sc' Capitals to Small Capitals in Latin lookup 0 subtable" uniA7EF
EndChar

StartChar: Y
Encoding: 89 89 57
Width: 1490
GlyphClass: 2
Flags: HMW
AnchorPoint: "down_I" 747 0 basechar 0
AnchorPoint: "up_I" 747 1505 basechar 0
LayerCount: 2
Fore
SplineSet
1049 1505 m 257
 1501 1505 l 257
 943 654 l 257
 943 0 l 257
 551 0 l 257
 551 654 l 257
 -11 1505 l 257
 444 1505 l 257
 747 961 l 257
 1049 1505 l 257
EndSplineSet
Substitution2: "'c2sc' Capitals to Small Capitals in Latin lookup 0 subtable" uni028F
EndChar

StartChar: Z
Encoding: 90 90 58
Width: 1230
GlyphClass: 2
Flags: HMW
AnchorPoint: "down_I" 615 0 basechar 0
AnchorPoint: "up_I" 615 1505 basechar 0
LayerCount: 2
Fore
SplineSet
50 1180 m 257
 50 1505 l 257
 1180 1505 l 257
 1180 1250 l 257
 495 321 l 257
 1180 321 l 257
 1180 0 l 257
 50 0 l 257
 50 253 l 257
 737 1180 l 257
 50 1180 l 257
EndSplineSet
Substitution2: "'c2sc' Capitals to Small Capitals in Latin lookup 0 subtable" uni1D22
EndChar

StartChar: bracketleft
Encoding: 91 91 59
Width: 715
GlyphClass: 2
Flags: HMW
LayerCount: 2
Fore
SplineSet
655 158 m 257
 655 -137 l 257
 80 -137 l 257
 80 1613 l 257
 655 1613 l 257
 655 1318 l 257
 390 1318 l 257
 390 158 l 257
 655 158 l 257
EndSplineSet
Position2: "SinglePositioning1 subtable" dx=0 dy=0 dh=200 dv=0
EndChar

StartChar: backslash
Encoding: 92 92 60
Width: 1156
GlyphClass: 2
Flags: MW
LayerCount: 2
Fore
SplineSet
1126 0 m 257
 708 0 l 257
 30 1505 l 257
 450 1505 l 257
 1126 0 l 257
EndSplineSet
EndChar

StartChar: bracketright
Encoding: 93 93 61
Width: 715
GlyphClass: 2
Flags: HMW
LayerCount: 2
Fore
SplineSet
60 1318 m 257
 60 1613 l 257
 635 1613 l 257
 635 -137 l 257
 60 -137 l 257
 60 158 l 257
 325 158 l 257
 325 1318 l 257
 60 1318 l 257
EndSplineSet
Position2: "SinglePositioning1 subtable" dx=0 dy=0 dh=200 dv=0
EndChar

StartChar: asciicircum
Encoding: 94 94 62
Width: 746
GlyphClass: 2
Flags: HMW
LayerCount: 2
Fore
SplineSet
696 1135 m 257
 468 1135 l 257
 373 1358 l 257
 278 1135 l 257
 50 1135 l 257
 177 1485 l 257
 569 1485 l 257
 696 1135 l 257
EndSplineSet
EndChar

StartChar: underscore
Encoding: 95 95 63
Width: 1200
GlyphClass: 2
Flags: HMW
LayerCount: 2
Fore
SplineSet
1100 0 m 257
 1100 -370 l 257
 100 -370 l 257
 100 0 l 257
 1100 0 l 257
EndSplineSet
Position2: "SinglePositioning1 subtable" dx=0 dy=0 dh=200 dv=0
EndChar

StartChar: grave
Encoding: 96 96 64
Width: 492
GlyphClass: 2
Flags: HMW
LayerCount: 2
Fore
SplineSet
422 1135 m 257
 234 1135 l 257
 70 1485 l 257
 295 1485 l 257
 422 1135 l 257
EndSplineSet
EndChar

StartChar: a
Encoding: 97 97 65
Width: 1163
GlyphClass: 2
Flags: HMW
AnchorPoint: "down_II" 1052 0 basechar 0
AnchorPoint: "down_I" 388 -11 basechar 0
AnchorPoint: "up_I" 572 1146 basechar 0
LayerCount: 2
Fore
SplineSet
572 1146 m 256
 892 1146 1078 997 1078 742 c 258
 1078 310 l 258
 1078 246 1101 219 1156 219 c 257
 1156 0 l 257
 879 -62 688 66 688 314 c 258
 688 742 l 258
 688 819 645 854 552 854 c 256
 458 854 416 819 416 742 c 257
 86 742 l 257
 66 999 243 1146 572 1146 c 256
EndSplineSet
Refer: 1197 57355 N 1 0 0 1 -14 0 2
Substitution2: "'smcp' Lowercase to Small Capitals in Latin lookup 0 subtable" uni1D00
EndChar

StartChar: b
Encoding: 98 98 66
Width: 1214
GlyphClass: 2
Flags: HMW
AnchorPoint: "down_I" 764 -9 basechar 0
AnchorPoint: "up_I" 764 1511 basechar 0
LayerCount: 2
Fore
SplineSet
507 0 m 257
 117 0 l 257
 117 1561 l 257
 507 1561 l 257
 507 0 l 257
EndSplineSet
Refer: 1201 57359 N 1 0 0 1 79 0 2
Substitution2: "'smcp' Lowercase to Small Capitals in Latin lookup 0 subtable" uni0299
EndChar

StartChar: c
Encoding: 99 99 67
Width: 1211
GlyphClass: 2
Flags: HMW
AnchorPoint: "down_I" 607 -9 basechar 0
AnchorPoint: "up_I" 607 1145 basechar 0
LayerCount: 2
Fore
SplineSet
607 1145 m 256
 944 1145 1123 944 1123 676 c 257
 747 676 l 257
 747 771 703 846 606 846 c 256
 485 846 451 716 451 571 c 256
 451 423 483 290 606 290 c 256
 703 290 747 366 747 460 c 257
 1123 460 l 257
 1123 195 945 -9 607 -9 c 256
 245 -9 60 213 60 568 c 256
 60 923 245 1145 607 1145 c 256
EndSplineSet
Substitution2: "'smcp' Lowercase to Small Capitals in Latin lookup 0 subtable" uni1D04
EndChar

StartChar: d
Encoding: 100 100 68
Width: 1202
GlyphClass: 2
Flags: HMW
AnchorPoint: "down_I" 441 -10 basechar 0
AnchorPoint: "up_II" 1086 1561 basechar 0
AnchorPoint: "up_I" 441 1511 basechar 0
LayerCount: 2
Fore
SplineSet
1086 0 m 257
 696 0 l 257
 696 1561 l 257
 1086 1561 l 257
 1086 0 l 257
EndSplineSet
Refer: 1213 57372 N 1 0 0 1 -262 0 2
Substitution2: "'smcp' Lowercase to Small Capitals in Latin lookup 0 subtable" uni1D05
EndChar

StartChar: e
Encoding: 101 101 69
Width: 1204
GlyphClass: 2
Flags: HMW
AnchorPoint: "down_II" 600 -11 basechar 0
AnchorPoint: "down_I" 600 -11 basechar 0
AnchorPoint: "up_I" 597 1145 basechar 0
LayerCount: 2
Fore
SplineSet
457 459 m 257
 467 350 520 290 615 290 c 256
 667 290 710 313 731 362 c 257
 1132 362 l 257
 1078 149 890 -11 600 -11 c 256
 255 -11 60 208 60 567 c 256
 60 924 256 1145 597 1145 c 256
 1002 1145 1175 891 1148 459 c 257
 457 459 l 257
460 670 m 257
 751 670 l 257
 751 781 695 846 602 846 c 256
 518 846 460 775 460 670 c 257
EndSplineSet
Substitution2: "'smcp' Lowercase to Small Capitals in Latin lookup 0 subtable" uni1D07
EndChar

StartChar: f
Encoding: 102 102 70
Width: 782
GlyphClass: 2
Flags: HMW
AnchorPoint: "down_I" 352 0 basechar 0
AnchorPoint: "up_I" 533 1560 basechar 0
LayerCount: 2
Fore
SplineSet
818 1507 m 257
 767 1265 l 257
 734 1271 686 1279 653 1279 c 256
 591 1279 548 1253 548 1192 c 258
 548 0 l 257
 157 0 l 257
 157 1238 l 258
 157 1470 331 1560 533 1560 c 256
 631 1560 732 1536 818 1507 c 257
EndSplineSet
Refer: 1196 57354 N 1 0 0 1 -59 311 2
Substitution2: "'smcp' Lowercase to Small Capitals in Latin lookup 0 subtable" uniA730
EndChar

StartChar: g
Encoding: 103 103 71
Width: 1213
GlyphClass: 2
Flags: HMW
AnchorPoint: "down_I" 590 -471 basechar 0
AnchorPoint: "up_I" 441 1144 basechar 0
LayerCount: 2
Fore
SplineSet
590 -471 m 256
 267 -471 102 -341 102 -87 c 257
 431 -87 l 257
 431 -153 471 -179 570 -179 c 256
 667 -179 706 -148 706 -72 c 258
 706 1135 l 257
 1096 1135 l 257
 1096 -72 l 258
 1096 -322 907 -471 590 -471 c 256
EndSplineSet
Refer: 1213 57372 N 1 0 0 1 -262 0 2
Substitution2: "'ss01' Style Set 1 in Latin lookup 24 subtable" g.alt
Substitution2: "'smcp' Lowercase to Small Capitals in Latin lookup 0 subtable" uni0262
Position2: "SinglePositioning1 subtable" dx=0 dy=0 dh=200 dv=0
EndChar

StartChar: h
Encoding: 104 104 72
Width: 1274
GlyphClass: 2
Flags: HMW
AnchorPoint: "down_I" 637 0 basechar 0
AnchorPoint: "up_I" 811 1511 basechar 0
LayerCount: 2
Fore
SplineSet
492 0 m 257
 101 0 l 257
 101 1561 l 257
 492 1561 l 257
 492 0 l 257
EndSplineSet
Refer: 1199 57357 N 1 0 0 1 79 0 2
Substitution2: "'smcp' Lowercase to Small Capitals in Latin lookup 0 subtable" uni029C
EndChar

StartChar: k
Encoding: 107 107 75
Width: 1325
GlyphClass: 2
Flags: HMW
AnchorPoint: "down_I" 657 0 basechar 0
AnchorPoint: "up_I" 875 1561 basechar 0
LayerCount: 2
Fore
SplineSet
791 1135 m 257
 1275 1135 l 257
 872 620 l 257
 1315 0 l 257
 831 0 l 257
 532 493 l 257
 505 493 l 257
 505 0 l 257
 117 0 l 257
 117 1561 l 257
 505 1561 l 257
 505 704 l 257
 532 704 l 257
 791 1135 l 257
EndSplineSet
Substitution2: "'smcp' Lowercase to Small Capitals in Latin lookup 0 subtable" uni1D0B
EndChar

StartChar: l
Encoding: 108 108 76
Width: 652
GlyphClass: 2
Flags: HMW
AnchorPoint: "middle_dot_I" 652 896 basechar 0
AnchorPoint: "down_I" 326 0 basechar 0
AnchorPoint: "up_II" 521 1561 basechar 0
AnchorPoint: "up_I" 326 1561 basechar 0
LayerCount: 2
Fore
SplineSet
521 0 m 257
 131 0 l 257
 131 1561 l 257
 521 1561 l 257
 521 0 l 257
EndSplineSet
Substitution2: "'smcp' Lowercase to Small Capitals in Latin lookup 0 subtable" uni029F
EndChar

StartChar: m
Encoding: 109 109 77
Width: 1976
GlyphClass: 2
Flags: HMW
AnchorPoint: "down_I" 989 0 basechar 0
AnchorPoint: "up_I" 1179 1146 basechar 0
LayerCount: 2
Fore
SplineSet
122 1135 m 257
 492 1135 l 257
 512 885 l 257
 512 0 l 257
 122 0 l 257
 122 1135 l 257
EndSplineSet
Refer: 1198 57356 N 1 0 0 1 -492 0 2
Refer: 1198 57356 N 1 0 0 1 180 0 2
Substitution2: "'smcp' Lowercase to Small Capitals in Latin lookup 0 subtable" uni1D0D
EndChar

StartChar: n
Encoding: 110 110 78
Width: 1274
GlyphClass: 2
Flags: HMW
AnchorPoint: "down_I" 634 0 basechar 0
AnchorPoint: "up_I" 811 1145 basechar 0
LayerCount: 2
Fore
SplineSet
492 0 m 257
 101 0 l 257
 101 1135 l 257
 472 1135 l 257
 492 885 l 257
 492 0 l 257
EndSplineSet
Refer: 1199 57357 N 1 0 0 1 79 0 2
Substitution2: "'smcp' Lowercase to Small Capitals in Latin lookup 0 subtable" uni0274
EndChar

StartChar: o
Encoding: 111 111 79
Width: 1211
GlyphClass: 2
Flags: HMW
AnchorPoint: "up_II" 704 914 basechar 0
AnchorPoint: "down_II" 606 -11 basechar 0
AnchorPoint: "down_I" 606 -11 basechar 0
AnchorPoint: "up_I" 606 1145 basechar 0
LayerCount: 2
Fore
SplineSet
606 846 m 256
 505 846 451 749 451 567 c 256
 451 383 504 287 606 287 c 256
 708 287 761 383 761 567 c 256
 761 749 707 846 606 846 c 256
606 1145 m 256
 953 1145 1151 935 1151 567 c 256
 1151 200 952 -11 606 -11 c 256
 260 -11 60 200 60 567 c 256
 60 935 259 1145 606 1145 c 256
EndSplineSet
Substitution2: "'smcp' Lowercase to Small Capitals in Latin lookup 0 subtable" uni1D0F
EndChar

StartChar: p
Encoding: 112 112 80
Width: 1204
GlyphClass: 2
Flags: HMW
AnchorPoint: "down_I" 764 -9 basechar 0
AnchorPoint: "up_I" 764 1145 basechar 0
LayerCount: 2
Fore
SplineSet
117 1135 m 257
 507 1135 l 257
 507 -429 l 257
 117 -429 l 257
 117 1135 l 257
EndSplineSet
Refer: 1201 57359 N 1 0 0 1 79 0 2
Substitution2: "'smcp' Lowercase to Small Capitals in Latin lookup 0 subtable" uni1D18
EndChar

StartChar: q
Encoding: 113 113 81
Width: 1202
GlyphClass: 2
Flags: HMW
AnchorPoint: "down_I" 441 -10 basechar 0
AnchorPoint: "up_I" 441 1144 basechar 0
LayerCount: 2
Fore
SplineSet
696 1135 m 257
 1086 1135 l 257
 1086 -438 l 257
 696 -438 l 257
 696 1135 l 257
EndSplineSet
Refer: 1213 57372 N 1 0 0 1 -262 0 2
Substitution2: "'smcp' Lowercase to Small Capitals in Latin lookup 0 subtable" uniA7EE
Position2: "SinglePositioning1 subtable" dx=0 dy=0 dh=200 dv=0
EndChar

StartChar: r
Encoding: 114 114 82
Width: 939
GlyphClass: 2
Flags: HMW
AnchorPoint: "down_I" 308 0 basechar 0
AnchorPoint: "up_I" 610 1135 basechar 0
LayerCount: 2
Fore
SplineSet
117 1135 m 257
 487 1135 l 257
 507 885 l 257
 507 0 l 257
 117 0 l 257
 117 1135 l 257
EndSplineSet
Refer: 1200 57358 N 1 0 0 1 0 0 2
Substitution2: "'smcp' Lowercase to Small Capitals in Latin lookup 0 subtable" uni0280
EndChar

StartChar: s
Encoding: 115 115 83
Width: 1091
GlyphClass: 2
Flags: HMW
AnchorPoint: "down_I" 534 -10 basechar 0
AnchorPoint: "up_I" 548 1146 basechar 0
LayerCount: 2
Fore
SplineSet
548 1146 m 256
 856 1146 1032 997 1015 728 c 257
 710 738 l 257
 710 817 639 854 551 854 c 256
 468 854 417 824 417 777 c 256
 417 733 456 712 589 683 c 256
 890 618 1027 510 1027 340 c 256
 1027 133 826 -10 534 -10 c 256
 222 -10 37 132 52 410 c 257
 357 398 l 257
 357 320 432 282 546 282 c 256
 635 282 677 302 677 344 c 256
 677 392 627 419 478 452 c 256
 194 514 70 617 70 792 c 256
 70 1007 257 1146 548 1146 c 256
EndSplineSet
Substitution2: "'smcp' Lowercase to Small Capitals in Latin lookup 0 subtable" uniA731
EndChar

StartChar: t
Encoding: 116 116 84
Width: 793
GlyphClass: 2
Flags: HMW
AnchorPoint: "down_I" 539 -11 basechar 0
AnchorPoint: "up_II" 784 1425 basechar 0
AnchorPoint: "up_I" 358 1425 basechar 0
LayerCount: 2
Fore
SplineSet
773 284 m 257
 824 42 l 257
 738 13 637 -11 539 -11 c 256
 337 -11 163 79 163 311 c 258
 163 1425 l 257
 554 1425 l 257
 554 357 l 258
 554 296 597 270 659 270 c 256
 692 270 740 278 773 284 c 257
EndSplineSet
Refer: 1196 57354 N 1 0 0 1 -45 311 2
Substitution2: "'smcp' Lowercase to Small Capitals in Latin lookup 0 subtable" uni1D1B
EndChar

StartChar: u
Encoding: 117 117 85
Width: 1272
GlyphClass: 2
Flags: HMW
AnchorPoint: "up_II" 1025 914 basechar 0
AnchorPoint: "down_II" 992 0 basechar 0
AnchorPoint: "down_I" 463 -10 basechar 0
AnchorPoint: "up_I" 640 1135 basechar 0
LayerCount: 2
Fore
SplineSet
782 1135 m 257
 1172 1135 l 257
 1172 0 l 257
 802 0 l 257
 782 250 l 257
 782 1135 l 257
EndSplineSet
Refer: 1199 57357 N -1 0 0 -1 1195 1135 2
Substitution2: "'smcp' Lowercase to Small Capitals in Latin lookup 0 subtable" uni1D1C
EndChar

StartChar: v
Encoding: 118 118 86
Width: 1220
GlyphClass: 2
Flags: HMW
AnchorPoint: "down_I" 612 0 basechar 0
AnchorPoint: "up_I" 612 1135 basechar 0
LayerCount: 2
Fore
SplineSet
813 1135 m 257
 1231 1135 l 257
 835 0 l 257
 391 0 l 257
 -11 1135 l 257
 407 1135 l 257
 612 418 l 257
 813 1135 l 257
EndSplineSet
Substitution2: "'smcp' Lowercase to Small Capitals in Latin lookup 0 subtable" uni1D20
EndChar

StartChar: w
Encoding: 119 119 87
Width: 1691
GlyphClass: 2
Flags: HMW
AnchorPoint: "down_I" 846 0 basechar 0
AnchorPoint: "up_I" 846 1135 basechar 0
LayerCount: 2
Fore
SplineSet
20 1135 m 257
 384 1135 l 257
 551 479 l 257
 704 1135 l 257
 987 1135 l 257
 1142 479 l 257
 1308 1135 l 257
 1672 1135 l 257
 1377 0 l 257
 993 0 l 257
 846 568 l 257
 699 0 l 257
 315 0 l 257
 20 1135 l 257
EndSplineSet
Substitution2: "'smcp' Lowercase to Small Capitals in Latin lookup 0 subtable" uni1D21
EndChar

StartChar: x
Encoding: 120 120 88
Width: 1188
GlyphClass: 2
Flags: HMW
AnchorPoint: "down_I" 595 0 basechar 0
AnchorPoint: "up_I" 595 1135 basechar 0
LayerCount: 2
Fore
SplineSet
740 1135 m 257
 1188 1135 l 257
 828 545 l 257
 1188 0 l 257
 740 0 l 257
 595 277 l 257
 450 0 l 257
 0 0 l 257
 362 545 l 257
 0 1135 l 257
 450 1135 l 257
 595 816 l 257
 740 1135 l 257
EndSplineSet
Substitution2: "'smcp' Lowercase to Small Capitals in Latin lookup 0 subtable" uniA7EF
EndChar

StartChar: y
Encoding: 121 121 89
Width: 1220
GlyphClass: 2
Flags: HMW
AnchorPoint: "down_I" 610 -461 basechar 0
AnchorPoint: "up_I" 612 1135 basechar 0
LayerCount: 2
Fore
SplineSet
813 1135 m 257
 1231 1135 l 257
 672 -461 l 257
 254 -461 l 257
 421 0 l 257
 -11 1135 l 257
 409 1135 l 257
 612 368 l 257
 813 1135 l 257
EndSplineSet
Substitution2: "'smcp' Lowercase to Small Capitals in Latin lookup 0 subtable" uni028F
EndChar

StartChar: z
Encoding: 122 122 90
Width: 1113
GlyphClass: 2
Flags: HMW
AnchorPoint: "down_I" 575 0 basechar 0
AnchorPoint: "up_I" 575 1135 basechar 0
LayerCount: 2
Fore
SplineSet
86 812 m 257
 86 1135 l 257
 1017 1135 l 257
 1017 879 l 257
 540 321 l 257
 1017 321 l 257
 1017 0 l 257
 86 0 l 257
 86 256 l 257
 563 812 l 257
 86 812 l 257
EndSplineSet
Substitution2: "'smcp' Lowercase to Small Capitals in Latin lookup 0 subtable" uni1D22
EndChar

StartChar: braceleft
Encoding: 123 123 91
Width: 982
GlyphClass: 2
Flags: HMW
LayerCount: 2
Fore
SplineSet
450 738 m 257
 545 685 637 547 637 418 c 258
 637 227 l 258
 637 185 668 158 710 158 c 258
 852 158 l 257
 852 -137 l 257
 662 -137 l 258
 470 -137 327 6 327 187 c 258
 327 418 l 258
 327 506 268 590 196 597 c 258
 100 606 l 257
 100 870 l 257
 196 879 l 258
 267 886 327 970 327 1058 c 258
 327 1289 l 258
 327 1470 469 1613 662 1613 c 258
 852 1613 l 257
 852 1318 l 257
 710 1318 l 258
 668 1318 637 1291 637 1249 c 258
 637 1058 l 258
 637 929 545 791 450 738 c 257
EndSplineSet
Position2: "SinglePositioning1 subtable" dx=0 dy=0 dh=200 dv=0
EndChar

StartChar: bar
Encoding: 124 124 92
Width: 750
GlyphClass: 2
Flags: HMW
LayerCount: 2
Fore
SplineSet
180 1561 m 257
 570 1561 l 257
 570 -461 l 257
 180 -461 l 257
 180 1561 l 257
EndSplineSet
EndChar

StartChar: braceright
Encoding: 125 125 93
Width: 982
GlyphClass: 2
Flags: HMW
LayerCount: 2
Fore
SplineSet
532 738 m 257
 437 791 345 929 345 1058 c 258
 345 1249 l 258
 345 1291 314 1318 272 1318 c 258
 130 1318 l 257
 130 1613 l 257
 320 1613 l 258
 512 1613 655 1470 655 1289 c 258
 655 1058 l 258
 655 970 714 886 786 879 c 258
 882 870 l 257
 882 606 l 257
 786 597 l 258
 715 590 655 506 655 418 c 258
 655 187 l 258
 655 6 513 -137 320 -137 c 258
 130 -137 l 257
 130 158 l 257
 272 158 l 258
 314 158 345 185 345 227 c 258
 345 418 l 258
 345 547 437 685 532 738 c 257
EndSplineSet
EndChar

StartChar: asciitilde
Encoding: 126 126 94
Width: 958
GlyphClass: 2
Flags: HMW
LayerCount: 2
Fore
SplineSet
60 1205 m 257
 123 1355 221 1434 322 1434 c 256
 398 1434 441 1408 506 1365 c 256
 548 1337 587 1313 630 1313 c 256
 671 1313 716 1332 762 1434 c 257
 898 1360 l 257
 836 1200 740 1135 635 1135 c 256
 562 1135 517 1156 422 1213 c 256
 383 1237 349 1256 323 1256 c 256
 289 1256 244 1245 195 1135 c 257
 60 1205 l 257
EndSplineSet
EndChar

StartChar: sterling
Encoding: 163 163 98
Width: 1328
GlyphClass: 2
Flags: HMW
LayerCount: 2
Fore
SplineSet
707 1190 m 256
 642 1190 621 1141 621 1065 c 258
 621 372 l 258
 621 354 618 337 604 321 c 257
 1229 321 l 257
 1229 0 l 257
 101 0 l 257
 101 321 l 257
 182 321 230 323 230 372 c 258
 230 1065 l 258
 230 1292 363 1515 707 1515 c 256
 1029 1515 1197 1343 1182 1065 c 257
 796 1065 l 257
 796 1145 771 1190 707 1190 c 256
EndSplineSet
Refer: 1196 57354 N 1 0 0 1 39 20 2
EndChar

StartChar: currency
Encoding: 164 164 99
Width: 1432
GlyphClass: 2
Flags: HMW
LayerCount: 2
Fore
SplineSet
893 95 m 257
 1104 287 l 257
 1357 21 l 257
 1148 -170 l 257
 893 95 l 257
329 287 m 257
 539 95 l 257
 285 -170 l 257
 76 21 l 257
 329 287 l 257
1104 796 m 257
 893 989 l 257
 1148 1253 l 257
 1357 1062 l 257
 1104 796 l 257
539 989 m 257
 329 796 l 257
 76 1062 l 257
 285 1253 l 257
 539 989 l 257
EndSplineSet
Refer: 79 111 N 1 0 0 1 113 0 2
EndChar

StartChar: brokenbar
Encoding: 166 166 101
Width: 471
GlyphClass: 2
Flags: HMW
LayerCount: 2
Fore
SplineSet
431 882 m 257
 41 882 l 257
 41 1505 l 257
 431 1505 l 257
 431 882 l 257
431 0 m 257
 41 0 l 257
 41 645 l 257
 431 645 l 257
 431 0 l 257
EndSplineSet
EndChar

StartChar: section
Encoding: 167 167 102
Width: 1043
GlyphClass: 2
Flags: HMW
LayerCount: 2
Fore
SplineSet
964 330 m 256
 964 119 774 -29 505 -29 c 256
 336 -29 192 5 53 78 c 257
 183 372 l 257
 317 305 419 276 520 276 c 256
 599 276 632 291 632 326 c 256
 632 363 597 382 495 403 c 256
 225 459 118 550 118 725 c 256
 118 804 148 873 215 946 c 257
 140 1007 108 1068 108 1151 c 256
 108 1369 288 1521 545 1521 c 256
 667 1521 781 1492 904 1429 c 257
 800 1184 l 257
 705 1217 619 1236 562 1236 c 256
 481 1236 444 1216 444 1172 c 256
 444 1135 469 1119 566 1097 c 256
 853 1032 954 943 954 756 c 256
 954 680 924 615 857 546 c 257
 932 483 964 419 964 330 c 256
540 675 m 256
 590 675 628 706 628 746 c 256
 628 784 595 812 549 812 c 256
 499 812 457 778 457 736 c 256
 457 700 491 675 540 675 c 256
EndSplineSet
EndChar

StartChar: dieresis
Encoding: 168 168 103
Width: 836
GlyphClass: 2
Flags: HMW
LayerCount: 2
Fore
SplineSet
60 1286 m 256
 60 1368 131 1432 213 1432 c 256
 295 1432 365 1368 365 1286 c 256
 365 1204 295 1135 213 1135 c 256
 131 1135 60 1204 60 1286 c 256
471 1286 m 256
 471 1368 542 1432 624 1432 c 256
 706 1432 776 1368 776 1286 c 256
 776 1204 706 1135 624 1135 c 256
 542 1135 471 1204 471 1286 c 256
EndSplineSet
EndChar

StartChar: copyright
Encoding: 169 169 104
Width: 1733
GlyphClass: 2
Flags: HMW
LayerCount: 2
Fore
SplineSet
383 725 m 256
 383 443 611 230 868 230 c 256
 1125 230 1353 443 1353 725 c 256
 1353 1006 1125 1218 868 1218 c 256
 611 1218 383 1006 383 725 c 256
112 725 m 256
 112 1128 442 1467 868 1467 c 256
 1294 1467 1624 1128 1624 725 c 256
 1624 323 1295 -20 868 -20 c 256
 441 -20 112 323 112 725 c 256
1130 937 m 257
 1031 851 l 257
 985 909 927 931 872 931 c 256
 769 931 692 846 692 726 c 256
 692 606 769 519 872 519 c 256
 927 519 985 541 1031 599 c 257
 1130 512 l 257
 1055 423 982 376 860 376 c 256
 655 376 531 549 531 726 c 256
 531 903 655 1075 860 1075 c 256
 982 1075 1055 1026 1130 937 c 257
EndSplineSet
EndChar

StartChar: ordfeminine
Encoding: 170 170 105
Width: 789
GlyphClass: 2
Flags: HMW
LayerCount: 2
Fore
SplineSet
463 1547 m 257
 463 1593 l 258
 463 1636 441 1665 379 1665 c 256
 318 1665 296 1637 296 1593 c 257
 94 1593 l 257
 82 1743 180 1840 391 1840 c 256
 606 1840 701 1735 701 1593 c 258
 701 1321 l 258
 701 1288 713 1271 749 1271 c 257
 749 1131 l 257
 630 1109 526 1135 484 1224 c 257
 441 1162 376 1125 278 1125 c 256
 158 1125 80 1196 80 1317 c 256
 80 1473 222 1547 365 1547 c 258
 463 1547 l 257
463 1410 m 257
 404 1410 l 258
 338 1410 289 1384 289 1341 c 256
 289 1312 311 1292 352 1292 c 256
 397 1292 439 1313 463 1337 c 257
 463 1410 l 257
EndSplineSet
EndChar

StartChar: guillemotleft
Encoding: 171 171 106
Width: 957
GlyphClass: 2
Flags: HMW
LayerCount: 2
Fore
SplineSet
458 762 m 256
 458 964 581 1133 759 1273 c 257
 917 1086 l 257
 801 990 713 892 713 762 c 256
 713 632 801 534 917 438 c 257
 759 250 l 257
 581 390 458 560 458 762 c 256
40 762 m 256
 40 977 117 1159 278 1349 c 257
 484 1185 l 257
 385 1058 316 920 316 762 c 256
 316 604 385 466 484 339 c 257
 278 175 l 257
 117 365 40 547 40 762 c 256
EndSplineSet
Substitution2: "'locl' Localized Forms in Latin lookup 6 subtable" guillemotleft.alt
Position2: "SinglePositioning1 subtable" dx=0 dy=0 dh=200 dv=0
EndChar

StartChar: logicalnot
Encoding: 172 172 107
Width: 1085
GlyphClass: 2
Flags: HMW
LayerCount: 2
Fore
SplineSet
65 505 m 257
 65 782 l 257
 934 782 l 257
 934 254 l 257
 657 254 l 257
 657 505 l 257
 65 505 l 257
EndSplineSet
EndChar

StartChar: uni00AD
Encoding: 173 173 108
Width: 1087
GlyphClass: 2
Flags: HMW
LayerCount: 2
Fore
SplineSet
987 782 m 257
 987 505 l 257
 100 505 l 257
 100 782 l 257
 987 782 l 257
EndSplineSet
EndChar

StartChar: registered
Encoding: 174 174 109
Width: 1733
GlyphClass: 2
Flags: HMW
LayerCount: 2
Fore
SplineSet
383 725 m 256
 383 443 611 230 868 230 c 256
 1125 230 1353 443 1353 725 c 256
 1353 1006 1125 1218 868 1218 c 256
 611 1218 383 1006 383 725 c 256
112 725 m 256
 112 1128 442 1467 868 1467 c 256
 1294 1467 1624 1128 1624 725 c 256
 1624 323 1295 -20 868 -20 c 256
 441 -20 112 323 112 725 c 256
1172 408 m 257
 971 408 l 257
 840 571 l 257
 835 571 830 571 823 571 c 257
 776 571 l 257
 776 406 l 257
 631 406 l 257
 631 1071 l 257
 881 1071 l 258
 1036 1071 1167 967 1167 821 c 256
 1167 720 1103 640 1016 600 c 257
 1172 408 l 257
776 713 m 257
 881 713 l 258
 950 713 1004 755 1004 821 c 256
 1004 888 950 930 881 930 c 258
 776 930 l 257
 776 713 l 257
EndSplineSet
EndChar

StartChar: macron
Encoding: 175 175 110
Width: 928
GlyphClass: 2
Flags: HMW
LayerCount: 2
Fore
SplineSet
868 1362 m 257
 868 1135 l 257
 60 1135 l 257
 60 1362 l 257
 868 1362 l 257
EndSplineSet
EndChar

StartChar: degree
Encoding: 176 176 111
Width: 679
GlyphClass: 2
Flags: HMW
LayerCount: 2
Fore
SplineSet
470 1414 m 256
 470 1488 413 1544 339 1544 c 256
 265 1544 211 1488 211 1414 c 256
 211 1340 265 1285 339 1285 c 256
 413 1285 470 1340 470 1414 c 256
619 1414 m 256
 619 1259 494 1135 339 1135 c 256
 184 1135 60 1259 60 1414 c 256
 60 1569 184 1693 339 1693 c 256
 494 1693 619 1569 619 1414 c 256
EndSplineSet
EndChar

StartChar: uni00B2
Encoding: 178 178 113
Width: 578
GlyphClass: 2
Flags: HMW
LayerCount: 2
Fore
SplineSet
45 1135 m 257
 45 1277 l 257
 328 1507 l 258
 366 1538 383 1560 383 1604 c 256
 383 1655 345 1691 288 1691 c 256
 224 1691 193 1650 193 1589 c 257
 45 1589 l 257
 45 1759 166 1840 288 1840 c 256
 402 1840 533 1763 533 1604 c 256
 533 1519 489 1445 428 1399 c 258
 284 1284 l 257
 529 1284 l 257
 529 1135 l 257
 45 1135 l 257
EndSplineSet
EndChar

StartChar: uni00B3
Encoding: 179 179 114
Width: 614
GlyphClass: 2
Flags: HMW
LayerCount: 2
Fore
SplineSet
206 1619 m 257
 59 1619 l 257
 59 1759 144 1840 287 1840 c 256
 390 1840 518 1767 518 1622 c 256
 518 1578 492 1514 433 1488 c 257
 497 1465 532 1400 532 1336 c 256
 532 1195 425 1125 285 1125 c 256
 133 1125 37 1203 37 1352 c 257
 202 1352 l 257
 202 1295 236 1270 285 1270 c 256
 342 1270 372 1298 372 1347 c 256
 372 1393 341 1425 282 1425 c 258
 214 1425 l 257
 214 1545 l 257
 282 1545 l 258
 328 1545 349 1579 349 1617 c 256
 349 1655 323 1689 279 1689 c 256
 231 1689 206 1659 206 1619 c 257
EndSplineSet
EndChar

StartChar: acute
Encoding: 180 180 115
Width: 492
GlyphClass: 2
Flags: HMW
LayerCount: 2
Fore
SplineSet
197 1485 m 257
 422 1485 l 257
 258 1135 l 257
 70 1135 l 257
 197 1485 l 257
EndSplineSet
EndChar

StartChar: mu
Encoding: 181 181 116
Width: 1272
GlyphClass: 2
Flags: HMW
LayerCount: 2
Fore
SplineSet
110 1135 m 257
 500 1135 l 257
 500 -426 l 257
 110 -426 l 257
 110 1135 l 257
EndSplineSet
Refer: 85 117 N 1 0 0 1 0 0 2
EndChar

StartChar: paragraph
Encoding: 182 182 117
Width: 1484
GlyphClass: 2
Flags: HMW
LayerCount: 2
Fore
SplineSet
1364 -461 m 257
 1088 -461 l 257
 1088 1171 l 257
 976 1171 l 257
 976 -461 l 257
 698 -461 l 257
 698 304 l 257
 635 304 l 258
 294 304 100 578 100 903 c 256
 100 1228 293 1506 635 1506 c 258
 1364 1506 l 257
 1364 -461 l 257
EndSplineSet
EndChar

StartChar: periodcentered
Encoding: 183 183 118
Width: 582
GlyphClass: 2
Flags: HMW
LayerCount: 2
Fore
SplineSet
100 755 m 256
 100 858 188 938 291 938 c 256
 394 938 482 858 482 755 c 256
 482 652 394 567 291 567 c 256
 188 567 100 652 100 755 c 256
EndSplineSet
EndChar

StartChar: cedilla
Encoding: 184 184 119
Width: 627
GlyphClass: 2
Flags: HMW
LayerCount: 2
Fore
SplineSet
567 -265 m 256
 567 -408 453 -496 269 -496 c 256
 192 -496 123 -481 60 -449 c 257
 122 -301 l 257
 161 -318 220 -329 272 -329 c 256
 343 -329 383 -308 383 -272 c 256
 383 -231 330 -206 241 -206 c 256
 220 -206 199 -207 179 -210 c 257
 179 1 l 257
 310 1 l 257
 310 -66 l 257
 476 -66 567 -137 567 -265 c 256
EndSplineSet
EndChar

StartChar: uni00B9
Encoding: 185 185 120
Width: 491
GlyphClass: 2
Flags: HMW
LayerCount: 2
Fore
SplineSet
37 1539 m 257
 37 1688 l 257
 230 1688 l 257
 230 1830 l 257
 379 1830 l 257
 379 1135 l 257
 230 1135 l 257
 230 1539 l 257
 37 1539 l 257
EndSplineSet
EndChar

StartChar: guillemotright
Encoding: 187 187 122
Width: 957
GlyphClass: 2
Flags: HMW
LayerCount: 2
Fore
SplineSet
500 762 m 256
 500 560 376 390 198 250 c 257
 40 438 l 257
 156 534 244 632 244 762 c 256
 244 892 156 990 40 1086 c 257
 198 1273 l 257
 376 1133 500 964 500 762 c 256
917 762 m 256
 917 547 841 365 680 175 c 257
 474 339 l 257
 573 466 641 604 641 762 c 256
 641 920 573 1058 474 1185 c 257
 680 1349 l 257
 841 1159 917 977 917 762 c 256
EndSplineSet
Substitution2: "'locl' Localized Forms in Latin lookup 6 subtable" guillemotright.alt
EndChar

StartChar: AE
Encoding: 198 198 133
Width: 1886
GlyphClass: 2
Flags: HMW
AnchorPoint: "down_I" 1080 0 basechar 0
AnchorPoint: "up_I" 1213 1505 basechar 0
LayerCount: 2
Fore
SplineSet
885 1181 m 257
 853 1181 l 257
 680 696 l 257
 885 696 l 257
 885 1181 l 257
627 1505 m 257
 1806 1505 l 257
 1806 1181 l 257
 1276 1181 l 257
 1276 900 l 257
 1753 900 l 257
 1753 605 l 257
 1276 605 l 257
 1276 326 l 257
 1806 326 l 257
 1806 0 l 257
 885 0 l 257
 885 404 l 257
 574 404 l 257
 429 0 l 257
 15 0 l 257
 627 1505 l 257
EndSplineSet
EndChar

StartChar: multiply
Encoding: 215 215 150
Width: 1119
GlyphClass: 2
Flags: HMW
LayerCount: 2
Fore
SplineSet
798 1103 m 257
 994 907 l 257
 755 670 l 257
 994 431 l 257
 800 235 l 257
 558 474 l 257
 320 235 l 257
 125 431 l 257
 363 670 l 257
 125 905 l 257
 321 1102 l 257
 558 864 l 257
 798 1103 l 257
EndSplineSet
Substitution2: "'tnum' Tabular Numbers lookup 22 subtable" multiply.tnum
EndChar

StartChar: Thorn
Encoding: 222 222 157
Width: 1418
GlyphClass: 2
Flags: HMW
LayerCount: 2
Fore
SplineSet
523 593 m 257
 740 593 l 258
 860 593 944 624 944 760 c 256
 944 897 856 927 740 927 c 258
 523 927 l 257
 523 593 l 257
523 0 m 257
 133 0 l 257
 133 1505 l 257
 523 1505 l 257
 523 1248 l 257
 740 1248 l 258
 1059 1248 1334 1088 1334 760 c 256
 1334 430 1052 268 740 268 c 258
 523 268 l 257
 523 0 l 257
EndSplineSet
EndChar

StartChar: germandbls
Encoding: 223 223 158
Width: 1195
GlyphClass: 2
Flags: HMW
LayerCount: 2
Fore
SplineSet
544 0 m 257
 577 315 l 257
 610 310 656 306 688 306 c 256
 745 306 758 328 758 348 c 256
 758 378 730.752 402.636 694 428 c 256
 623 477 520 549 520 695 c 256
 520 801 567 870 607 926 c 256
 638 969 654 1024 654 1064 c 256
 654 1111 622 1156 561 1156 c 256
 492 1156 467 1096 467 1021 c 258
 467 0 l 257
 112 0 l 257
 112 1021 l 258
 112 1229 262 1453 561 1453 c 256
 851 1453 1010 1234 1010 1021 c 256
 1010 873 965 793 900 729 c 256
 884 713 877 703 877 694 c 256
 877 680 893 670 927 650 c 256
 1001 604 1125 491 1125 314 c 256
 1125 58 978 -11 735 -11 c 256
 676 -11 612 -6 544 0 c 257
EndSplineSet
EndChar

StartChar: ae
Encoding: 230 230 165
Width: 1832
GlyphClass: 2
Flags: HMW
AnchorPoint: "down_I" 769 -21 basechar 0
AnchorPoint: "up_I" 922 1146 basechar 0
LayerCount: 2
Fore
SplineSet
688 317 m 257
 688 742 l 258
 688 812 653 854 552 854 c 256
 452 854 416 814 416 742 c 257
 86 742 l 257
 67 986 227 1146 572 1146 c 256
 922 1146 1078 973 1078 742 c 258
 1078 313 l 257
 688 317 l 257
65 298 m 256
 65 552 302 660 535 660 c 258
 1035 660 l 257
 1035 454 l 257
 562 454 l 258
 486 454 406 420 406 347 c 256
 406 312 434 274 504 274 c 256
 591 274 648 303 688 349 c 257
 799 349 l 257
 752 209 671 -21 376 -21 c 256
 167 -21 65 100 65 298 c 256
EndSplineSet
Refer: 69 101 N 1 0 0 1 628 0 2
Substitution2: "'c2sc' Capitals to Small Capitals in Latin lookup 0 subtable" uni1D01
Substitution2: "'smcp' Lowercase to Small Capitals in Latin lookup 0 subtable" uni1D01
EndChar

StartChar: eth
Encoding: 240 240 175
Width: 1211
GlyphClass: 2
Flags: HMW
LayerCount: 2
Fore
SplineSet
601 846 m 256
 505 846 451 764 451 567 c 256
 451 370 503 287 601 287 c 256
 699 287 761 370 761 567 c 256
 761 764 697 846 601 846 c 256
561 1143 m 256
 636.632392441 1143 713.194378982 1120.87338188 787 1090 c 1
 794 1097 l 257
 755 1176 644 1303 591 1343 c 257
 473 1247 l 257
 360 1380 l 257
 454 1458 l 257
 405 1485 323 1516 264 1525 c 257
 333 1773 l 257
 438 1757 570 1692 660 1627 c 257
 773 1717 l 257
 885 1579 l 257
 797 1507 l 257
 1061 1230 1151 964 1151 650 c 256
 1151 212 978 -11 606 -11 c 256
 234 -11 60 237 60 567 c 256
 60 956 299 1143 561 1143 c 256
EndSplineSet
EndChar

StartChar: dotlessi
Encoding: 305 305 240
Width: 592
GlyphClass: 2
Flags: HMW
AnchorPoint: "down_II" 295 0 basechar 0
AnchorPoint: "down_I" 295 0 basechar 0
AnchorPoint: "up_I" 295 1135 basechar 0
LayerCount: 2
Fore
SplineSet
100 1135 m 257
 492 1135 l 257
 492 0 l 257
 100 0 l 257
 100 1135 l 257
EndSplineSet
EndChar

StartChar: Eng
Encoding: 330 330 265
Width: 1515
GlyphClass: 2
Flags: HMW
LayerCount: 2
Fore
SplineSet
117 1505 m 257
 508 1505 l 257
 508 0 l 257
 117 0 l 257
 117 1505 l 257
909 1515 m 256
 1275 1515 1401 1275 1401 886 c 257
 1401 317 l 258
 1401 77 1223 -11 1025 -11 c 256
 928 -11 827 10 740 45 c 257
 792 287 l 257
 834 275 874 271 905 271 c 256
 972 271 1011 298 1011 353 c 258
 1011 886 l 257
 1011 1043 960 1171 774 1171 c 256
 598 1171 507 1038 507 886 c 257
 417 887 l 257
 436 1262 586 1515 909 1515 c 256
EndSplineSet
EndChar

StartChar: eng
Encoding: 331 331 266
Width: 1274
GlyphClass: 2
Flags: HMW
LayerCount: 2
Fore
SplineSet
774 23 m 257
 1165 23 l 257
 1165 -160 l 258
 1165 -400 987 -487 789 -487 c 256
 692 -487 590 -467 503 -432 c 257
 556 -190 l 257
 598 -202 638 -206 669 -206 c 256
 736 -206 774 -179 774 -124 c 258
 774 23 l 257
EndSplineSet
Refer: 78 110 N 1 0 0 1 0 0 2
EndChar

StartChar: OE
Encoding: 338 338 273
Width: 1864
GlyphClass: 2
Flags: HMW
LayerCount: 2
Fore
SplineSet
914 1181 m 257
 799 1181 l 258
 602 1181 456 1058 456 752 c 256
 456 446 602 321 799 321 c 258
 914 321 l 257
 914 1181 l 257
1305 1181 m 257
 1305 900 l 257
 1780 900 l 257
 1780 605 l 257
 1305 605 l 257
 1305 321 l 257
 1835 321 l 257
 1835 0 l 257
 799 0 l 258
 316 0 65 350 65 752 c 256
 65 1154 316 1505 799 1505 c 258
 1835 1505 l 257
 1835 1181 l 257
 1305 1181 l 257
EndSplineSet
EndChar

StartChar: longs
Encoding: 383 383 318
Width: 782
GlyphClass: 2
Flags: HMW
AnchorPoint: "up_I" 533 1560 basechar 0
AnchorPoint: "down_I" 352 0 basechar 0
LayerCount: 2
Fore
SplineSet
819 1505 m 257
 766 1263 l 257
 724 1275 684 1279 653 1279 c 256
 586 1279 548 1252 548 1197 c 258
 548 0 l 257
 157 0 l 257
 157 1233 l 258
 157 1473 335 1560 533 1560 c 256
 630 1560 732 1540 819 1505 c 257
EndSplineSet
Refer: 1208 57366 N 1 0 0 1 -55 0 2
EndChar

StartChar: uni018F
Encoding: 399 399 321
Width: 1606
GlyphClass: 2
Flags: HMW
LayerCount: 2
Fore
SplineSet
1079 563 m 257
 516 563 l 257
 548 410 636 313 806 313 c 256
 950 313 1042 400 1079 563 c 257
1093 858 m 257
 1070 1085 966 1192 803 1192 c 256
 655 1192 564 1118 520 967 c 257
 163 1092 l 257
 249 1333 462 1515 798 1515 c 256
 1275 1515 1491 1154 1491 750 c 256
 1491 372 1297 -12 783 -12 c 256
 316 -12 50 385 124 858 c 257
 1093 858 l 257
EndSplineSet
EndChar

StartChar: uni01B7
Encoding: 439 439 326
Width: 1383
GlyphClass: 2
Flags: HMW
LayerCount: 2
Fore
SplineSet
676 -487 m 256
 330.606 -487 87.7234 -309.744 69 46 c 257
 468 40 l 257
 486 -79 550 -165 688 -165 c 256
 843 -165 925 -55 925 158 c 256
 925 472.215 705.397 512.731 467 440 c 257
 319 599 l 257
 801 1180 l 257
 113 1180 l 257
 113 1505 l 257
 1243 1505 l 257
 1243 1250 l 257
 869 791 l 257
 1211 730 1313 519 1313 158 c 256
 1313 -246 1092 -487 676 -487 c 256
EndSplineSet
EndChar

StartChar: uni0237
Encoding: 567 567 426
Width: 591
GlyphClass: 2
Flags: HMW
AnchorPoint: "down_I" 115 -438 basechar 0
AnchorPoint: "up_I" 295 1135 basechar 0
LayerCount: 2
Fore
SplineSet
-170 -385 m 257
 -119 -143 l 257
 -86 -149 -38 -157 -5 -157 c 256
 57 -157 100 -131 100 -70 c 258
 100 1135 l 257
 491 1135 l 257
 491 -116 l 258
 491 -348 317 -438 115 -438 c 256
 17 -438 -84 -414 -170 -385 c 257
EndSplineSet
EndChar

StartChar: uni0239
Encoding: 569 569 428
Width: 1783
GlyphClass: 2
Flags: HMW
LayerCount: 2
Fore
SplineSet
696 1135 m 257
 1086 1135 l 257
 1086 -438 l 257
 696 -438 l 257
 696 1135 l 257
EndSplineSet
Refer: 1201 57359 N 1 0 0 1 658 0 2
Refer: 1213 57372 N 1 0 0 1 -262 0 2
EndChar

StartChar: uni0240
Encoding: 576 576 429
Width: 1113
GlyphClass: 2
Flags: HMW
LayerCount: 2
Fore
SplineSet
810 -280 m 256
 641 -280 568 -218 493 -151 c 256
 408 -75 319 0 86 0 c 257
 86 264 l 257
 556 802 l 257
 86 802 l 257
 86 1135 l 257
 1017 1135 l 257
 1017 871 l 257
 470 243 l 257
 544 231 593 189 640 142 c 256
 688 94 737 51 810 51 c 256
 898 51 958 116 1010 190 c 257
 1268 1 l 257
 1161 -155 1036 -280 810 -280 c 256
EndSplineSet
EndChar

StartChar: uni0255
Encoding: 597 597 432
Width: 1176
GlyphClass: 2
Flags: HMW
LayerCount: 2
Fore
SplineSet
630 290 m 256
 705 290 758 327 758 380 c 256
 758 421 735 440 685 440 c 256
 589 440 445 270 245 -79 c 257
 22 70 l 257
 217 447 473 654 746 654 c 256
 949 654 1079 533 1079 345 c 256
 1079 138 879 -11 601 -11 c 256
 263 -11 60 207 60 568 c 256
 60 931 266 1145 616 1145 c 256
 887 1145 1061 1017 1114 779 c 257
 743 720 l 257
 733 799 684 846 612 846 c 256
 507 846 451 749 451 568 c 256
 451 383 511 290 630 290 c 256
EndSplineSet
EndChar

StartChar: uni0262
Encoding: 610 610 434
Width: 1198
GlyphClass: 2
Flags: HMW
LayerCount: 2
Fore
SplineSet
403 572 m 256
 403 373 491 290 643 290 c 256
 724 290 776 319 805 364 c 257
 805 437 l 257
 552 437 l 257
 552 656 l 257
 1138 656 l 257
 1138 239 l 257
 1022 86 872 -10 640 -10 c 256
 280 -10 60 207 60 573 c 256
 60 913 259 1145 614 1145 c 256
 867 1145 1000 1001 1077 833 c 257
 810 720 l 257
 768 788 716 846 614 846 c 256
 474 846 403 742 403 572 c 256
EndSplineSet
EndChar

StartChar: uni0274
Encoding: 628 628 437
Width: 1380
GlyphClass: 2
Flags: HMW
LayerCount: 2
Fore
SplineSet
872 1135 m 257
 1263 1135 l 257
 1263 0 l 257
 901 0 l 257
 507 572 l 257
 507 0 l 257
 117 0 l 257
 117 1135 l 257
 478 1135 l 257
 872 562 l 257
 872 1135 l 257
EndSplineSet
EndChar

StartChar: uni0280
Encoding: 640 640 438
Width: 1213
GlyphClass: 2
Flags: HMW
LayerCount: 2
Fore
SplineSet
523 609 m 257
 596 609 l 258
 696 609 739 644 739 746 c 256
 739 849 693 883 596 883 c 258
 523 883 l 257
 523 609 l 257
523 357 m 257
 523 0 l 257
 133 0 l 257
 133 1135 l 257
 666 1135 l 258
 965 1135 1129 990 1129 744 c 256
 1129 496 962 357 666 357 c 258
 523 357 l 257
616 492 m 257
 954 492 l 257
 1223 0 l 257
 841 0 l 257
 616 492 l 257
EndSplineSet
EndChar

StartChar: uni0283
Encoding: 643 643 439
Width: 782
GlyphClass: 2
Flags: HMW
LayerCount: 2
Fore
SplineSet
819 1505 m 257
 766 1263 l 257
 724 1275 684 1279 653 1279 c 256
 586 1279 548 1252 548 1197 c 258
 548 -144 l 258
 548 -384 370 -471 172 -471 c 256
 75 -471 -27 -451 -114 -416 c 257
 -61 -174 l 257
 -19 -186 21 -190 52 -190 c 256
 119 -190 157 -163 157 -108 c 258
 157 1233 l 258
 157 1473 335 1560 533 1560 c 256
 630 1560 732 1540 819 1505 c 257
EndSplineSet
EndChar

StartChar: uni028F
Encoding: 655 655 440
Width: 1246
GlyphClass: 2
Flags: HMW
LayerCount: 2
Fore
SplineSet
805 1135 m 257
 1257 1135 l 257
 821 487 l 257
 821 0 l 257
 429 0 l 257
 429 487 l 257
 -11 1135 l 257
 444 1135 l 257
 625 794 l 257
 805 1135 l 257
EndSplineSet
EndChar

StartChar: uni0291
Encoding: 657 657 441
Width: 1652
GlyphClass: 2
Flags: HMW
LayerCount: 2
Fore
SplineSet
1137 321 m 258
 547 321 l 257
 1017 871 l 257
 1017 1135 l 257
 86 1135 l 257
 86 812 l 257
 556 812 l 257
 86 264 l 257
 86 0 l 257
 1118 0 l 257
 1382 0 1592 135 1592 381 c 256
 1592 557 1494 721 1249 721 c 256
 924 721 684 350 352 -182 c 257
 584 -330 l 257
 946 226 1102 448 1205 448 c 256
 1247 448 1268 425 1268 395 c 256
 1268 350 1215 321 1137 321 c 258
EndSplineSet
EndChar

StartChar: uni0292
Encoding: 658 658 442
Width: 1202
GlyphClass: 2
Flags: HMW
LayerCount: 2
Fore
SplineSet
590 -487 m 256
 270 -487 88 -343 63 -72 c 257
 450 -9 l 257
 467 -126 518 -188 596 -188 c 256
 696 -188 751 -108 751 36 c 256
 751 245 607 324 419 218 c 257
 259 390 l 257
 581 812 l 257
 97 812 l 257
 97 1135 l 257
 1082 1135 l 257
 1082 871 l 257
 815 531 l 257
 1021 495 1142 312 1142 36 c 256
 1142 -302 947 -487 590 -487 c 256
EndSplineSet
EndChar

StartChar: uni0293
Encoding: 659 659 443
Width: 1202
GlyphClass: 2
Flags: HMW
LayerCount: 2
Fore
SplineSet
97 812 m 257
 97 1135 l 257
 1082 1135 l 257
 1082 871 l 257
 815 531 l 257
 1021.06 494.989 1142 311.917 1142 36 c 256
 1142 -287.187 920.793 -487 563 -487 c 256
 244.739 -487 60 -347.803 60 -108 c 256
 60 47.8567 204.838 176 381 176 c 256
 625.94 176 877.94 -27.9028 1125 -426 c 257
 896 -561 l 257
 645.957 -165.35 536.626 -38 447 -38 c 256
 408.291 -38 381 -65.7045 381 -105 c 256
 381 -165.082 433.187 -188 570 -188 c 256
 692.411 -188 751 -115.492 751 36 c 256
 751 245.03 606.973 323.985 419 218 c 257
 259 390 l 257
 581 812 l 257
 97 812 l 257
EndSplineSet
EndChar

StartChar: uni0299
Encoding: 665 665 444
Width: 1235
GlyphClass: 2
Flags: HMW
LayerCount: 2
Fore
SplineSet
133 1135 m 257
 678 1135 l 258
 970 1135 1078 986 1078 790 c 256
 1078 709 1033 638 966 596 c 257
 1067 544 1130 442 1130 335 c 256
 1130 117 997 0 763 0 c 258
 133 0 l 257
 133 1135 l 257
523 883 m 257
 523 658 l 257
 636 658 l 258
 696 658 739 687 739 769 c 256
 739 852 693 883 636 883 c 258
 523 883 l 257
523 476 m 257
 523 251 l 257
 636 251 l 258
 696 251 739 285 739 367 c 256
 739 450 693 476 636 476 c 258
 523 476 l 257
EndSplineSet
EndChar

StartChar: uni029C
Encoding: 668 668 445
Width: 1364
GlyphClass: 2
Flags: HMW
LayerCount: 2
Fore
SplineSet
857 1135 m 257
 1247 1135 l 257
 1247 0 l 257
 857 0 l 257
 857 420 l 257
 507 420 l 257
 507 0 l 257
 117 0 l 257
 117 1135 l 257
 507 1135 l 257
 507 715 l 257
 857 715 l 257
 857 1135 l 257
EndSplineSet
EndChar

StartChar: uni029F
Encoding: 671 671 447
Width: 982
GlyphClass: 2
Flags: HMW
LayerCount: 2
Fore
SplineSet
117 1135 m 257
 507 1135 l 257
 507 301 l 257
 942 301 l 257
 942 0 l 257
 117 0 l 257
 117 1135 l 257
EndSplineSet
EndChar

StartChar: uni02C2
Encoding: 706 706 457
Width: 672
GlyphClass: 2
Flags: HMW
LayerCount: 2
Fore
SplineSet
338 717 m 257
 622 433 l 257
 468 279 l 257
 50 717 l 257
 468 1155 l 257
 622 1001 l 257
 338 717 l 257
EndSplineSet
EndChar

StartChar: uni02C3
Encoding: 707 707 458
Width: 672
GlyphClass: 2
Flags: HMW
LayerCount: 2
Fore
SplineSet
334 717 m 257
 50 1001 l 257
 204 1155 l 257
 622 717 l 257
 204 279 l 257
 50 433 l 257
 334 717 l 257
EndSplineSet
EndChar

StartChar: uni02C4
Encoding: 708 708 459
Width: 956
GlyphClass: 2
Flags: HMW
LayerCount: 2
Fore
SplineSet
478 715 m 257
 194 431 l 257
 40 585 l 257
 478 1003 l 257
 916 585 l 257
 762 431 l 257
 478 715 l 257
EndSplineSet
EndChar

StartChar: uni02C5
Encoding: 709 709 460
Width: 956
GlyphClass: 2
Flags: HMW
LayerCount: 2
Fore
SplineSet
478 719 m 257
 762 1003 l 257
 916 849 l 257
 478 431 l 257
 40 849 l 257
 194 1003 l 257
 478 719 l 257
EndSplineSet
EndChar

StartChar: circumflex
Encoding: 710 710 461
Width: 746
GlyphClass: 2
Flags: HMW
LayerCount: 2
Fore
SplineSet
696 1135 m 257
 468 1135 l 257
 373 1358 l 257
 278 1135 l 257
 50 1135 l 257
 177 1485 l 257
 569 1485 l 257
 696 1135 l 257
EndSplineSet
EndChar

StartChar: caron
Encoding: 711 711 462
Width: 746
GlyphClass: 2
Flags: HMW
LayerCount: 2
Fore
SplineSet
50 1485 m 257
 278 1485 l 257
 373 1262 l 257
 468 1485 l 257
 696 1485 l 257
 569 1135 l 257
 177 1135 l 257
 50 1485 l 257
EndSplineSet
EndChar

StartChar: uni02D2
Encoding: 722 722 463
Width: 440
GlyphClass: 2
Flags: HMW
LayerCount: 2
Fore
SplineSet
60 1299 m 257
 162 1299 213 1350 213 1442 c 256
 213 1534 162 1585 60 1585 c 257
 60 1753 l 257
 252 1753 380 1644 380 1442 c 256
 380 1240 252 1131 60 1131 c 257
 60 1299 l 257
EndSplineSet
EndChar

StartChar: uni02D3
Encoding: 723 723 464
Width: 620
GlyphClass: 2
Flags: HMW
LayerCount: 2
Fore
SplineSet
470 1585 m 257
 368 1585 317 1534 317 1442 c 256
 317 1350 368 1299 470 1299 c 257
 470 1131 l 257
 278 1131 150 1240 150 1442 c 256
 150 1644 278 1753 470 1753 c 257
 470 1585 l 257
EndSplineSet
EndChar

StartChar: breve
Encoding: 728 728 465
Width: 742
GlyphClass: 2
Flags: HMW
LayerCount: 2
Fore
SplineSet
682 1455 m 257
 682 1253 573 1135 371 1135 c 256
 169 1135 60 1253 60 1455 c 257
 238 1455 l 257
 238 1350 285 1307 371 1307 c 256
 457 1307 504 1350 504 1455 c 257
 682 1455 l 257
EndSplineSet
EndChar

StartChar: dotaccent
Encoding: 729 729 466
Width: 425
GlyphClass: 2
Flags: HMW
LayerCount: 2
Fore
SplineSet
60 1286 m 256
 60 1368 131 1432 213 1432 c 256
 295 1432 365 1368 365 1286 c 256
 365 1204 295 1135 213 1135 c 256
 131 1135 60 1204 60 1286 c 256
EndSplineSet
EndChar

StartChar: ring
Encoding: 730 730 467
Width: 679
GlyphClass: 2
Flags: HMW
LayerCount: 2
Fore
SplineSet
339 1544 m 256
 265 1544 211 1488 211 1414 c 256
 211 1340 265 1285 339 1285 c 256
 413 1285 470 1340 470 1414 c 256
 470 1488 413 1544 339 1544 c 256
339 1693 m 256
 494 1693 619 1569 619 1414 c 256
 619 1259 494 1135 339 1135 c 256
 184 1135 60 1259 60 1414 c 256
 60 1569 184 1693 339 1693 c 256
EndSplineSet
EndChar

StartChar: ogonek
Encoding: 731 731 468
Width: 664
GlyphClass: 2
Flags: HMW
LayerCount: 2
Fore
SplineSet
501 -323 m 1
 553 -476 l 1
 479 -509 403 -531 326 -531 c 0
 172 -531 62 -433 62 -300 c 0
 62 -245 76.4609375 -188.252929688 108 -128 c 2
 175 0 l 1
 175 2 l 1
 381 2 l 1
 383 0 l 1
 270 -209 l 2
 251.059570312 -244.03125 242 -272 242 -293 c 0
 242 -337 270 -365 338 -365 c 0
 389 -365 448 -346 501 -323 c 1
EndSplineSet
EndChar

StartChar: uni0305
Encoding: 773 773 476
Width: 0
GlyphClass: 4
Flags: HMW
AnchorPoint: "mkmk" 0 992 mark 0
AnchorPoint: "mkmk" 0 1358 basemark 0
AnchorPoint: "up_I" 0 992 mark 0
LayerCount: 2
Fore
SplineSet
504 1358 m 257
 504 1131 l 257
 -504 1131 l 257
 -504 1358 l 257
 504 1358 l 257
EndSplineSet
EndChar

StartChar: uni0311
Encoding: 785 785 487
Width: 0
GlyphClass: 4
Flags: HMW
AnchorPoint: "mkmk" 0 992 mark 0
AnchorPoint: "mkmk" 0 1455 basemark 0
AnchorPoint: "up_I" 0 992 mark 0
LayerCount: 2
Fore
SplineSet
-311 1135 m 257
 -311 1337 -202 1455 0 1455 c 256
 202 1455 311 1337 311 1135 c 257
 133 1135 l 257
 133 1240 86 1293 0 1293 c 256
 -86 1293 -133 1240 -133 1135 c 257
 -311 1135 l 257
EndSplineSet
EndChar

StartChar: uni031B
Encoding: 795 795 488
Width: 0
GlyphClass: 4
Flags: HMW
AnchorPoint: "up_II" -224 1135 mark 0
LayerCount: 2
Fore
SplineSet
165 1638 m 257
 192 1552 223 1450 223 1360 c 256
 223 1217 121 1135 -40 1135 c 258
 -224 1135 l 257
 -224 1298 l 257
 -30 1298 l 258
 29 1298 46 1316 46 1361 c 256
 46 1407 19 1511 -2 1577 c 257
 165 1638 l 257
EndSplineSet
EndChar

StartChar: uni0600
Encoding: 1536 1536 491
Width: 2300
GlyphClass: 2
Flags: HMW
LayerCount: 2
Fore
SplineSet
1714 100 m 1
 1712 109 1712 118 1712 136 c 0
 1712 284 1829 409 2047 495 c 1
 2128 322 l 1
 1998 276 1926 215 1926 150 c 0
 1926 108 1956 85 2028 70 c 2
 2210 33 l 1
 2146 -178 l 1
 2015 -136 1897 -114 1801 -114 c 2
 90 -114 l 1
 90 100 l 1
 1714 100 l 1
EndSplineSet
EndChar

StartChar: uni0601
Encoding: 1537 1537 492
Width: 2300
GlyphClass: 2
Flags: HMW
LayerCount: 2
Fore
SplineSet
60 114 m 1
 192 187 l 1
 248 101 262 86 289 86 c 0
 310 86 323 99 339 136 c 0
 407 297 468 358 559 358 c 0
 639 358 701 309 786 177 c 0
 819 125 857 100 900 100 c 0
 942 100 972 143 1012 262 c 1
 1134 280 l 1
 1235 162 1363 100 1505 100 c 0
 1611 100 1705 135 1839 225 c 0
 1942 294 2003 320 2062 320 c 0
 2164 320 2240 242 2240 135 c 0
 2240 50 2207 -33 2124 -158 c 1
 1991 -69 l 1
 2026 -29 2042 1 2042 25 c 0
 2042 52 2021 73 1995 73 c 0
 1973 73 1949 63 1924 45 c 0
 1778 -62 1641 -115 1507 -115 c 0
 1373 -115 1234 -69 1112 16 c 1
 1056 -75 992 -115 901 -115 c 0
 781 -115 695 -60 616 66 c 0
 584 117 568 134 552 134 c 0
 534 134 519 113 500 60 c 0
 456 -61 394 -115 298 -115 c 0
 199 -115 133 -51 60 114 c 1
EndSplineSet
EndChar

StartChar: uni0603
Encoding: 1539 1539 493
Width: 2300
GlyphClass: 2
Flags: HMW
LayerCount: 2
Fore
SplineSet
1141 -115 m 257
 70 -115 l 1
 70 100 l 1
 1141 100 l 257
 1302 100 1364 167 1417 397 c 257
 1626 350 l 257
 1552 21 1410 -115 1141 -115 c 257
2044 158 m 0
 2044 187 2019 207 1982 207 c 0
 1920 207 1852 165 1806 100 c 1
 1663 164 l 1
 1788 335 1899 416 2010 416 c 0
 2137 416 2230 306 2230 156 c 0
 2230 -4 2092 -120 1902 -120 c 0
 1703 -120 1534 -45 1395 106 c 1
 1536 277 l 1
 1639 164 1780 95 1909 95 c 0
 1987 95 2044 121 2044 158 c 0
EndSplineSet
EndChar

StartChar: uni0604
Encoding: 1540 1540 494
Width: 2300
GlyphClass: 2
Flags: HMW
LayerCount: 2
Fore
SplineSet
1403 -332 m 1
 978 -166 771 -114 531 -114 c 2
 50 -114 l 1
 50 100 l 1
 553 100 l 2
 733 100 905 64 1015 2 c 1
 1012 12 1010 27 1010 47 c 0
 1010 212 1139 343 1300 343 c 0
 1400 343 1472 303 1560 199 c 1
 1612 128 1636 110 1682 110 c 0
 1729 110 1750 133 1750 182 c 2
 1750 326 l 1
 1932 326 l 1
 1932 182 l 2
 1932 128 1948 110 1994 110 c 0
 2035 110 2047 124 2047 173 c 0
 2047 217 2038 283 2023 347 c 1
 2223 391 l 1
 2244 300 2250 248 2250 158 c 0
 2250 -13 2171 -104 2024 -104 c 0
 1927 -104 1860 -66 1846 -4 c 1
 1834 -67 1780 -104 1699 -104 c 0
 1615 -104 1548 -65 1463 33 c 0
 1396 104 1358 128 1314 128 c 0
 1258 128 1225 93 1225 32 c 0
 1225 -12 1269 -46 1382 -92 c 0
 1421 -108 1459 -124 1497 -140 c 1
 1403 -332 l 1
EndSplineSet
EndChar

StartChar: uni060C
Encoding: 1548 1548 498
Width: 590
GlyphClass: 2
Flags: HMW
LayerCount: 2
Fore
SplineSet
300 372 m 257
 412 372 499 289 499 184 c 256
 499 80 414 0 319 0 c 256
 189 0 107 93 107 244 c 256
 107 417 189 596 328 721 c 257
 441 610 l 257
 373 534 326 461 300 372 c 257
EndSplineSet
EndChar

StartChar: uni060D
Encoding: 1549 1549 499
Width: 889
GlyphClass: 2
Flags: HMW
LayerCount: 2
Fore
SplineSet
282 -614 m 257
 -136 -614 l 257
 391 738 l 257
 808 738 l 257
 282 -614 l 257
EndSplineSet
EndChar

StartChar: uni060E
Encoding: 1550 1550 500
Width: 2186
GlyphClass: 2
Flags: HMW
LayerCount: 2
Fore
SplineSet
1171 415 m 256
 1171 163 1013 -57 938 -146 c 257
 637 91 l 257
 679 136 781 255 781 376 c 256
 781 492 716 553 615 553 c 256
 511 553 429 481 429 373 c 256
 429 258 567 223 689 223 c 258
 2146 223 l 257
 2146 -165 l 257
 685 -165 l 258
 330 -165 40 -3 40 351 c 256
 40 700 320 942 615 942 c 256
 924 942 1171 733 1171 415 c 256
EndSplineSet
EndChar

StartChar: uni060F
Encoding: 1551 1551 501
Width: 1580
GlyphClass: 2
Flags: HMW
LayerCount: 2
Fore
SplineSet
834 -743 m 256
 362 -743 40 -483 40 -133 c 256
 40 101 192 321 413 439 c 257
 268 523 200 644 200 815 c 256
 200 1129 428 1372 721 1372 c 256
 883 1372 1059 1298 1180 1178 c 257
 987 899 l 257
 923 953 817 991 731 991 c 256
 622 991 547 930 547 842 c 256
 547 739 653 695 900 695 c 256
 983 695 1066 700 1192 711 c 257
 1208 342 l 257
 746 324 432 153 432 -80 c 256
 432 -249 594 -353 855 -353 c 256
 1019 -353 1111 -312 1111 -238 c 256
 1111 -190 1073 -160 1013 -160 c 256
 925 -160 826 -225 757 -329 c 258
 376 -898 l 257
 102 -714 l 257
 508 -164 l 258
 679 69 903 203 1121 203 c 256
 1369 203 1540 28 1540 -225 c 256
 1540 -544 1269 -743 834 -743 c 256
EndSplineSet
EndChar

StartChar: uni061C
Encoding: 1564 1564 504
Width: 2653
GlyphClass: 2
Flags: HMW
LayerCount: 2
Fore
SplineSet
982 1154 m 257
 1215 1154 l 257
 1215 1048 l 257
 982 1048 l 257
 982 1154 l 257
1448 1154 m 257
 1681 1154 l 257
 1681 1048 l 257
 1448 1048 l 257
 1448 1154 l 257
2346 1048 m 257
 1914 1048 l 257
 1914 1154 l 257
 2453 1154 l 257
 2453 844 l 257
 2346 844 l 257
 2346 1048 l 257
200 1154 m 257
 749 1154 l 257
 749 1048 l 257
 307 1048 l 257
 307 846 l 257
 200 846 l 257
 200 1154 l 257
1681 -280 m 257
 1448 -280 l 257
 1448 -173 l 257
 1681 -173 l 257
 1681 -280 l 257
200 -280 m 257
 749 -280 l 257
 749 -173 l 257
 307 -173 l 257
 307 30 l 257
 200 30 l 257
 200 -280 l 257
2346 -173 m 257
 1914 -173 l 257
 1914 -280 l 257
 2453 -280 l 257
 2453 28 l 257
 2346 28 l 257
 2346 -173 l 257
1215 -280 m 257
 982 -280 l 257
 982 -173 l 257
 1215 -173 l 257
 1215 -280 l 257
2346 261 m 257
 2346 611 l 257
 2453 611 l 257
 2453 261 l 257
 2346 261 l 257
307 613 m 257
 307 263 l 257
 200 263 l 257
 200 613 l 257
 307 613 l 257
EndSplineSet
Refer: 814 7437 N 0.5 0 0 0.5 1458 146 2
Refer: 807 7424 N 0.5 0 0 0.5 386 146 2
Refer: 447 671 N 0.5 0 0 0.5 954 146 2
EndChar

StartChar: uni061F
Encoding: 1567 1567 506
Width: 1169
GlyphClass: 2
Flags: HMW
LayerCount: 2
Fore
SplineSet
777 505 m 257
 421 505 l 257
 421 648 348.375 719.398 272 791 c 256
 192 866 111 945 111 1111 c 256
 111 1309 283 1525 586 1525 c 256
 846 1525 1059 1358 1059 1109 c 256
 1059 1086 1058 1063 1054 1039 c 257
 725 1039 l 257
 727 1052 729 1068 729 1081 c 256
 729 1165 682 1219 604 1219 c 256
 509 1219 466 1156 466 1083 c 256
 466 1013 520 956 584 890 c 256
 672 799 777 690 777 505 c 257
784 177 m 256
 784 74 696 -11 593 -11 c 256
 490 -11 403 74 403 177 c 256
 403 280 490 360 593 360 c 256
 696 360 784 280 784 177 c 256
EndSplineSet
EndChar

StartChar: uni0660
Encoding: 1632 1632 571
Width: 802
GlyphClass: 2
Flags: HMW
LayerCount: 2
Fore
SplineSet
400 744 m 257
 695 449 l 257
 400 153 l 257
 107 449 l 257
 400 744 l 257
EndSplineSet
Substitution2: "'tnum' Tabular Numbers lookup 22 subtable" uni0660.tnum
Substitution2: "Single Substitution lookup 178 subtable" uni0660.EoA
EndChar

StartChar: uni0661
Encoding: 1633 1633 572
Width: 736
GlyphClass: 2
Flags: HMW
LayerCount: 2
Fore
SplineSet
681 0 m 257
 310 0 l 257
 306 566 224 923 55 1396 c 257
 406 1521 l 257
 585 1019 677 607 681 0 c 257
EndSplineSet
Substitution2: "'tnum' Tabular Numbers lookup 22 subtable" uni0661.tnum
Substitution2: "Single Substitution lookup 178 subtable" uni0661.EoA
EndChar

StartChar: uni0662
Encoding: 1634 1634 573
Width: 1262
GlyphClass: 2
Flags: HMW
LayerCount: 2
Fore
SplineSet
660 1088 m 256
 757 1088 789 1139 819 1347 c 258
 845 1518 l 257
 1207 1460 l 257
 1138 917 1004 704 732 704 c 256
 700 704 668 707 628 713 c 257
 662 490 679 260 681 0 c 257
 310 0 l 257
 307 505 242 859 55 1396 c 257
 406 1521 l 257
 466 1349 l 258
 539 1138 576 1088 660 1088 c 256
EndSplineSet
Substitution2: "'tnum' Tabular Numbers lookup 22 subtable" uni0662.tnum
Substitution2: "Single Substitution lookup 178 subtable" uni0662.EoA
EndChar

StartChar: uni0663
Encoding: 1635 1635 574
Width: 1539
GlyphClass: 2
Flags: HMW
LayerCount: 2
Fore
SplineSet
796 820 m 1
 767 722 728 684 654 682 c 0
 646 682 636 683 630 685 c 1
 623 678 l 1
 653 462 666 259 667 0 c 1
 297 0 l 1
 294 507 224 915 55 1401 c 1
 405 1521 l 1
 487 1192 l 2
 508 1106 538 1072 593 1072 c 0
 659 1072 685 1115 685 1224 c 0
 685 1373 685 1386 682 1453 c 1
 945 1453 l 1
 941 1348 940 1315 940 1191 c 0
 940 1108 967 1072 1029 1072 c 0
 1090 1072 1111 1102 1111 1190 c 0
 1111 1254 1102 1345 1085 1461 c 1
 1451 1523 l 1
 1473 1411 1484 1312 1484 1230 c 0
 1484 886 1331 682 1074 682 c 0
 953 682 877 721 806 820 c 1
 796 820 l 1
EndSplineSet
Substitution2: "'tnum' Tabular Numbers lookup 22 subtable" uni0663.tnum
Substitution2: "Single Substitution lookup 178 subtable" uni0663.EoA
EndChar

StartChar: uni0664
Encoding: 1636 1636 575
Width: 960
GlyphClass: 2
Flags: HMW
LayerCount: 2
Fore
SplineSet
285 751 m 257
 184 783 123 874 123 992 c 256
 123 1285 354 1457 802 1524 c 257
 839 1148 l 257
 617 1124 502 1077 502 1010 c 256
 502 950 594 927 842 925 c 257
 842 603 l 257
 563 603 436 558 436 461 c 256
 436 402 483 377 592 377 c 258
 895 377 l 257
 895 0 l 257
 609 0 l 258
 256 0 65 139 65 397 c 256
 65 565 146 695 285 751 c 257
EndSplineSet
Substitution2: "'tnum' Tabular Numbers lookup 22 subtable" uni0664.tnum
Substitution2: "Single Substitution lookup 178 subtable" uni0664.EoA
EndChar

StartChar: uni0665
Encoding: 1637 1637 576
Width: 1273
GlyphClass: 2
Flags: HMW
LayerCount: 2
Fore
SplineSet
534 1519 m 257
 866 1272 1223 985 1223 520 c 256
 1223 135 950 -11 637 -11 c 256
 338 -11 50 129 50 486 c 256
 50 766 206 961 420 1119 c 257
 387 1148 335 1192 293 1227 c 257
 534 1519 l 257
635 895 m 257
 470 752 420 631 420 537 c 256
 420 452 479 380 637 380 c 256
 790 380 852 443 852 539 c 256
 852 618 797 733 635 895 c 257
EndSplineSet
Substitution2: "'tnum' Tabular Numbers lookup 22 subtable" uni0665.tnum
Substitution2: "Single Substitution lookup 178 subtable" uni0665.EoA
EndChar

StartChar: uni0666
Encoding: 1638 1638 577
Width: 1152
GlyphClass: 2
Flags: HMW
LayerCount: 2
Fore
SplineSet
55 1104 m 257
 55 1505 l 257
 745 1505 l 257
 962 1254 l 257
 959 1178 958 1126 958 1015 c 256
 958 661 980 467 1097 86 c 257
 739 -17 l 257
 613 405 586 634 586 1015 c 256
 586 1044 586 1072 586 1104 c 257
 55 1104 l 257
EndSplineSet
Substitution2: "'tnum' Tabular Numbers lookup 22 subtable" uni0666.tnum
Substitution2: "Single Substitution lookup 178 subtable" uni0666.EoA
EndChar

StartChar: uni0667
Encoding: 1639 1639 578
Width: 1447
GlyphClass: 2
Flags: HMW
LayerCount: 2
Fore
SplineSet
728 703 m 257
 801 1032 932 1316 1122 1569 c 257
 1422 1338 l 257
 1109 927 942 638 884 0 c 257
 563 0 l 257
 505 638 338 927 25 1338 c 257
 325 1569 l 257
 515 1316 646 1032 718 703 c 257
 728 703 l 257
EndSplineSet
Substitution2: "'tnum' Tabular Numbers lookup 22 subtable" uni0667.tnum
Substitution2: "Single Substitution lookup 178 subtable" uni0667.EoA
EndChar

StartChar: uni0668
Encoding: 1640 1640 579
Width: 1447
GlyphClass: 2
Flags: HMW
LayerCount: 2
Fore
SplineSet
719 812 m 257
 646 483 515 199 325 -54 c 257
 25 177 l 257
 338 588 505 877 563 1515 c 257
 884 1515 l 257
 942 877 1109 588 1422 177 c 257
 1122 -54 l 257
 932 199 801 483 729 812 c 257
 719 812 l 257
EndSplineSet
Substitution2: "'tnum' Tabular Numbers lookup 22 subtable" uni0668.tnum
Substitution2: "Single Substitution lookup 178 subtable" uni0668.EoA
EndChar

StartChar: uni0669
Encoding: 1641 1641 580
Width: 1103
GlyphClass: 2
Flags: HMW
LayerCount: 2
Fore
SplineSet
604 562 m 257
 541 549 484 542 431 542 c 256
 194 542 45 697 45 943 c 256
 45 1299 215 1528 462 1528 c 256
 770 1528 891 1336 931 856 c 256
 961 498 997 284 1058 102 c 257
 716 -20 l 257
 659 185 637 300 604 562 c 257
568 933 m 257
 565 970 l 258
 556 1096 512 1145 444 1145 c 256
 383 1145 349 1079 349 1000 c 256
 349 947 385 927 456 927 c 256
 492 927 529 929 568 933 c 257
EndSplineSet
Substitution2: "'tnum' Tabular Numbers lookup 22 subtable" uni0669.tnum
Substitution2: "Single Substitution lookup 178 subtable" uni0669.EoA
EndChar

StartChar: uni066B
Encoding: 1643 1643 582
Width: 889
GlyphClass: 2
Flags: HMW
LayerCount: 2
Fore
SplineSet
282 -613 m 257
 -135 -613 l 257
 392 739 l 257
 808 739 l 257
 282 -613 l 257
EndSplineSet
Substitution2: "'tnum' Tabular Numbers lookup 22 subtable" uni066B.tnum
EndChar

StartChar: uni066C
Encoding: 1644 1644 583
Width: 623
GlyphClass: 2
Flags: HMW
LayerCount: 2
Fore
SplineSet
321 0 m 257
 197 27 136 96 136 191 c 256
 136 290 219 360 319 360 c 256
 421 360 512 291 512 139 c 256
 512 -33 429 -209 237 -344 c 257
 121 -210 l 257
 198 -155 288 -63 321 0 c 257
EndSplineSet
Substitution2: "'tnum' Tabular Numbers lookup 22 subtable" uni066C.tnum
EndChar

StartChar: uni066D
Encoding: 1645 1645 584
Width: 967
GlyphClass: 2
Flags: HMW
LayerCount: 2
Fore
SplineSet
621 768 m 257
 349 768 l 257
 363 1034 l 257
 144 889 l 257
 6 1125 l 257
 243 1244 l 257
 6 1364 l 257
 144 1599 l 257
 363 1455 l 257
 349 1717 l 257
 621 1717 l 257
 607 1455 l 257
 826 1599 l 257
 963 1364 l 257
 727 1244 l 257
 963 1125 l 257
 826 889 l 257
 607 1034 l 257
 621 768 l 257
EndSplineSet
EndChar

StartChar: uni06DD
Encoding: 1757 1757 696
Width: 2300
GlyphClass: 2
Flags: HMW
LayerCount: 2
Fore
SplineSet
2250 -323 m 1
 2055 -358 1901 -407 1694 -499 c 0
 1479 -593 1327 -630 1150 -630 c 0
 970 -630 815 -593 606 -499 c 0
 390 -402 240 -355 50 -323 c 1
 181 -206 l 1
 349 -238 487 -282 675 -365 c 0
 863 -448 995 -480 1150 -480 c 0
 1305 -480 1437 -448 1625 -365 c 0
 1813 -282 1951 -238 2119 -206 c 1
 2250 -323 l 1
1150 1694 m 0
 995 1694 863 1662 675 1579 c 0
 487 1496 349 1452 181 1420 c 1
 208 1151 217 1000 217 791 c 0
 217 583 208 433 181 163 c 1
 349 131 487 87 675 4 c 0
 863 -79 995 -111 1150 -111 c 0
 1305 -111 1437 -79 1625 4 c 0
 1813 87 1951 131 2119 163 c 1
 2092 433 2083 583 2083 791 c 0
 2083 1000 2092 1151 2119 1420 c 1
 1951 1452 1813 1496 1625 1579 c 0
 1437 1662 1305 1694 1150 1694 c 0
2231 791 m 0
 2231 557 2242 377 2273 76 c 0
 2273 75 2273 74 2273 73 c 0
 2273 60 2262 48 2250 46 c 0
 2055 11 1901 -38 1694 -130 c 0
 1479 -224 1327 -261 1150 -261 c 0
 970 -261 815 -224 606 -130 c 0
 390 -33 240 14 50 46 c 0
 38 48 27 60 27 73 c 0
 27 74 27 75 27 76 c 0
 58 362 69 547 69 791 c 0
 69 1026 58 1207 27 1507 c 0
 27 1508 27 1509 27 1510 c 0
 27 1523 38 1535 50 1537 c 0
 245 1572 399 1621 606 1713 c 0
 821 1807 973 1844 1150 1844 c 0
 1330 1844 1487 1806 1694 1713 c 0
 1910 1616 2058 1569 2250 1537 c 0
 2262 1535 2273 1523 2273 1510 c 0
 2273 1509 2273 1508 2273 1507 c 0
 2242 1221 2231 1035 2231 791 c 0
EndSplineSet
EndChar

StartChar: uni06DE
Encoding: 1758 1758 697
Width: 2589
GlyphClass: 2
Flags: HMW
LayerCount: 2
Fore
SplineSet
1294 1485 m 256
 1334 1485 1367 1451 1367 1411 c 256
 1367 1371 1334 1337 1294 1337 c 256
 1254 1337 1220 1371 1220 1411 c 256
 1220 1451 1254 1485 1294 1485 c 256
1294 -117 m 256
 1334 -117 1368 -151 1368 -191 c 256
 1368 -231 1334 -265 1294 -265 c 256
 1254 -265 1221 -231 1221 -191 c 256
 1221 -151 1254 -117 1294 -117 c 256
493 683 m 256
 533 683 567 650 567 610 c 256
 567 570 533 536 493 536 c 256
 453 536 419 570 419 610 c 256
 419 650 453 683 493 683 c 256
2095 684 m 256
 2135 684 2169 650 2169 610 c 256
 2169 570 2135 537 2095 537 c 256
 2055 537 2021 570 2021 610 c 256
 2021 650 2055 684 2095 684 c 256
753 1224 m 256
 792 1224 827 1189 827 1150 c 256
 827 1111 792 1077 753 1077 c 256
 714 1077 680 1111 680 1150 c 256
 680 1189 714 1224 753 1224 c 256
1835 143 m 256
 1874 143 1908 109 1908 70 c 256
 1908 31 1874 -4 1835 -4 c 256
 1796 -4 1761 31 1761 70 c 256
 1761 109 1796 143 1835 143 c 256
754 143 m 256
 793 143 827 108 827 69 c 256
 827 30 793 -4 754 -4 c 256
 715 -4 680 30 680 69 c 256
 680 108 715 143 754 143 c 256
1834 1224 m 256
 1873 1224 1908 1190 1908 1151 c 256
 1908 1112 1873 1077 1834 1077 c 256
 1795 1077 1761 1112 1761 1151 c 256
 1761 1190 1795 1224 1834 1224 c 256
1295 1670 m 257
 984 1360 l 257
 544 1360 l 257
 544 921 l 257
 234 610 l 257
 544 299 l 257
 544 -140 l 257
 984 -140 l 257
 1295 -450 l 257
 1605 -140 l 257
 2044 -140 l 257
 2044 299 l 257
 2355 610 l 257
 2044 921 l 257
 2044 1360 l 257
 1605 1360 l 257
 1295 1670 l 257
1294 1854 m 257
 1659 1490 l 257
 2174 1490 l 257
 2174 975 l 257
 2539 610 l 257
 2174 245 l 257
 2174 -270 l 257
 1659 -270 l 257
 1294 -634 l 257
 930 -270 l 257
 414 -270 l 257
 414 246 l 257
 50 610 l 257
 414 974 l 257
 414 1490 l 257
 930 1490 l 257
 1294 1854 l 257
EndSplineSet
Refer: 1231 57390 N 1 0 0 1 817 50 2
EndChar

StartChar: uni06DF
Encoding: 1759 1759 698
Width: 0
GlyphClass: 4
Flags: HMW
AnchorPoint: "Anchor1" 0 892 mark 0
AnchorPoint: "Anchor1" 0 1170 basemark 0
AnchorPoint: "Anchor5" 0 892 mark 0
AnchorPoint: "Anchor4" 0 892 mark 0
LayerCount: 2
Fore
SplineSet
-82 1177 m 256
 -82 1222 -45 1258 0 1258 c 256
 45 1258 82 1222 82 1177 c 256
 82 1132 45 1095 0 1095 c 256
 -45 1095 -82 1132 -82 1177 c 256
EndSplineSet
EndChar

StartChar: uni06E0
Encoding: 1760 1760 699
Width: 0
GlyphClass: 4
Flags: HMW
AnchorPoint: "Anchor1" 0 892 mark 0
AnchorPoint: "Anchor1" 0 1170 basemark 0
AnchorPoint: "Anchor5" 0 892 mark 0
AnchorPoint: "Anchor4" 0 892 mark 0
LayerCount: 2
Fore
SplineSet
-82 1095 m 257
 -82 1258 l 257
 82 1258 l 257
 82 1095 l 257
 -82 1095 l 257
EndSplineSet
EndChar

StartChar: uni06E9
Encoding: 1769 1769 708
Width: 1236
GlyphClass: 2
Flags: HMW
LayerCount: 2
Fore
SplineSet
332 82 m 257
 332 672 l 257
 84 955 l 257
 618 1444 l 257
 1152 955 l 257
 904 672 l 257
 904 82 l 257
 1082 82 l 257
 1082 0 l 257
 154 0 l 257
 154 82 l 257
 332 82 l 257
810 713 m 257
 1025 947 l 257
 618 1316 l 257
 211 947 l 257
 426 713 l 257
 426 82 l 257
 810 82 l 257
 810 713 l 257
661 922 m 257
 661 199 l 257
 575 199 l 257
 575 922 l 257
 661 922 l 257
EndSplineSet
EndChar

StartChar: uni06F0
Encoding: 1776 1776 714
Width: 978
GlyphClass: 2
Flags: HMW
LayerCount: 2
Fore
SplineSet
488 634 m 256
 407 634 379 581 379 536 c 256
 379 491 407 436 488 436 c 256
 569 436 598 491 598 536 c 256
 598 581 569 634 488 634 c 256
488 924 m 256
 706 924 868 761 868 536 c 256
 868 312 709 144 488 144 c 256
 267 144 110 313 110 536 c 256
 110 760 269 924 488 924 c 256
EndSplineSet
Substitution2: "'tnum' Tabular Numbers lookup 22 subtable" uni06F0.tnum
Substitution2: "Single Substitution lookup 178 subtable" uni06F0.EoA
EndChar

StartChar: uni06F4
Encoding: 1780 1780 718
Width: 1269
GlyphClass: 2
Flags: HMW
LayerCount: 2
Fore
SplineSet
610 599 m 1
 641 341 647 240 647 0 c 1
 276 0 l 1
 272 523 202 930 35 1406 c 1
 402 1522 l 1
 442 1392 457 1350 504 1236 c 1
 602 1445 741 1535 967 1535 c 0
 1039 1535 1136 1514 1234 1477 c 1
 1131 1118 l 1
 1052 1144 978 1157 910 1157 c 0
 785 1157 685 1093 685 1014 c 0
 685 948 783 906 935 906 c 0
 1007 906 1078 914 1148 930 c 1
 1224 579 l 1
 1121 550 1025 534 950 534 c 0
 822 534 732 553 619 603 c 1
 610 599 l 1
EndSplineSet
Substitution2: "'tnum' Tabular Numbers lookup 22 subtable" uni06F4.tnum
Substitution2: "Single Substitution lookup 178 subtable" uni06F4.EoA
Substitution2: "'locl' Localized Forms in Arabic lookup 5 subtable" uni06F4.urdu
EndChar

StartChar: uni06F5
Encoding: 1781 1781 719
Width: 1342
GlyphClass: 2
Flags: HMW
LayerCount: 2
Fore
SplineSet
568 554 m 257
 784 554 l 257
 784 546 l 258
 784 436 813 381 870 381 c 256
 923 381 950 411 950 469 c 256
 950 594 848 761 679 912 c 257
 498 770 401 620 401 484 c 256
 401 413 427 381 486 381 c 256
 543 381 568 431 568 546 c 258
 568 554 l 257
684 147 m 257
 628 30 558 -11 415 -11 c 256
 201 -11 60 160 60 419 c 256
 60 702 201 948 468 1131 c 257
 445 1152 411 1180 344 1234 c 257
 552 1519 l 257
 658 1446 753 1371 837 1294 c 256
 1131 1025 1282 742 1282 459 c 256
 1282 164 1154 -11 937 -11 c 256
 806 -11 730 36 684 147 c 257
EndSplineSet
Substitution2: "'tnum' Tabular Numbers lookup 22 subtable" uni06F5.tnum
Substitution2: "Single Substitution lookup 178 subtable" uni06F5.EoA
EndChar

StartChar: uni06F6
Encoding: 1782 1782 720
Width: 1193
GlyphClass: 2
Flags: HMW
LayerCount: 2
Fore
SplineSet
404 580 m 1
 207 683 120 803 120 986 c 0
 120 1281 347 1515 632 1515 c 0
 760 1515 891 1468 1014 1378 c 1
 858 1094 l 1
 770 1133 696 1153 636 1153 c 0
 528 1153 450 1090 450 1005 c 0
 450 923 524 881 664 881 c 0
 740 881 861 893 1054 921 c 2
 1074 924 l 1
 1108 556 l 1
 1086 554 l 2
 859 533 742 429 384 -71 c 1
 84 160 l 1
 226 359 314 467 408 570 c 1
 404 580 l 1
EndSplineSet
Substitution2: "'tnum' Tabular Numbers lookup 22 subtable" uni06F6.tnum
Substitution2: "Single Substitution lookup 178 subtable" uni06F6.EoA
Substitution2: "'locl' Localized Forms in Arabic lookup 5 subtable" uni0666
EndChar

StartChar: uni1D00
Encoding: 7424 7424 807
Width: 1160
GlyphClass: 2
Flags: HMW
LayerCount: 2
Fore
SplineSet
387 0 m 1
 -11 0 l 1
 355 1135 l 1
 799 1135 l 1
 1171 0 l 1
 773 0 l 1
 717 221 l 1
 442 221 l 1
 387 0 l 1
662 437 m 1
 578 767 l 1
 496 437 l 1
 662 437 l 1
EndSplineSet
EndChar

StartChar: uni1D01
Encoding: 7425 7425 808
Width: 1470
GlyphClass: 2
Flags: HMW
LayerCount: 2
Fore
SplineSet
499 437 m 257
 628 437 l 257
 628 767 l 257
 578 767 l 257
 499 437 l 257
387 0 m 257
 -11 0 l 257
 355 1135 l 257
 1420 1135 l 257
 1420 831 l 257
 1018 831 l 257
 1018 683 l 257
 1364 683 l 257
 1364 449 l 257
 1018 449 l 257
 1018 301 l 257
 1420 301 l 257
 1420 0 l 257
 628 0 l 257
 628 221 l 257
 441 221 l 257
 387 0 l 257
EndSplineSet
EndChar

StartChar: uni1D04
Encoding: 7428 7428 809
Width: 1103
GlyphClass: 2
Flags: HMW
LayerCount: 2
Fore
SplineSet
571 1145 m 256
 885 1145 1078 941 1078 677 c 257
 737 677 l 257
 719 783 664 846 582 846 c 256
 473 846 416 744 416 567 c 256
 416 391 472 288 577 288 c 256
 663 288 718 350 737 457 c 257
 1078 457 l 257
 1078 194 886 -11 577 -11 c 256
 241 -11 61 192 61 567 c 256
 61 942 241 1145 571 1145 c 256
EndSplineSet
EndChar

StartChar: uni1D05
Encoding: 7429 7429 810
Width: 1178
GlyphClass: 2
Flags: HMW
LayerCount: 2
Fore
SplineSet
100 1135 m 257
 588 1135 l 258
 946 1135 1098 903 1098 567 c 256
 1098 231 946 0 588 0 c 258
 100 0 l 257
 100 1135 l 257
490 883 m 257
 490 267 l 257
 548 267 l 258
 664 267 724 329 724 567 c 256
 724 804 664 883 548 883 c 258
 490 883 l 257
EndSplineSet
EndChar

StartChar: uni1D07
Encoding: 7431 7431 811
Width: 942
GlyphClass: 2
Flags: HMW
LayerCount: 2
Fore
SplineSet
892 301 m 257
 892 0 l 257
 100 0 l 257
 100 1135 l 257
 892 1135 l 257
 892 831 l 257
 490 831 l 257
 490 683 l 257
 836 683 l 257
 836 449 l 257
 490 449 l 257
 490 301 l 257
 892 301 l 257
EndSplineSet
EndChar

StartChar: uni1D0A
Encoding: 7434 7434 812
Width: 791
GlyphClass: 2
Flags: HMW
LayerCount: 2
Fore
SplineSet
30 45 m 257
 82 287 l 257
 124 275 164 271 195 271 c 256
 262 271 301 298 301 353 c 258
 301 1135 l 257
 691 1135 l 257
 691 317 l 258
 691 77 513 -11 315 -11 c 256
 218 -11 117 10 30 45 c 257
EndSplineSet
EndChar

StartChar: uni1D0B
Encoding: 7435 7435 813
Width: 1215
GlyphClass: 2
Flags: HMW
LayerCount: 2
Fore
SplineSet
767 1135 m 257
 1204 1135 l 257
 748 567 l 257
 1205 0 l 257
 766 0 l 257
 500 420 l 257
 490 420 l 257
 490 0 l 257
 100 0 l 257
 100 1135 l 257
 490 1135 l 257
 490 740 l 257
 500 740 l 257
 767 1135 l 257
EndSplineSet
EndChar

StartChar: uni1D0D
Encoding: 7437 7437 814
Width: 1595
GlyphClass: 2
Flags: HMW
LayerCount: 2
Fore
SplineSet
490 0 m 257
 100 0 l 257
 100 1135 l 257
 543 1135 l 257
 795 381 l 257
 1049 1135 l 257
 1495 1135 l 257
 1495 0 l 257
 1104 0 l 257
 1104 537 l 257
 914 0 l 257
 676 0 l 257
 490 538 l 257
 490 0 l 257
EndSplineSet
EndChar

StartChar: uni1D0F
Encoding: 7439 7439 815
Width: 1161
GlyphClass: 2
Flags: HMW
LayerCount: 2
Fore
SplineSet
581 1145 m 256
 955 1145 1101 908 1101 567 c 256
 1101 226 953 -11 581 -11 c 256
 209 -11 60 226 60 567 c 256
 60 908 207 1145 581 1145 c 256
581 846 m 256
 485 846 416 764 416 567 c 256
 416 370 483 287 581 287 c 256
 679 287 746 370 746 567 c 256
 746 764 677 846 581 846 c 256
EndSplineSet
EndChar

StartChar: uni1D18
Encoding: 7448 7448 816
Width: 1156
GlyphClass: 2
Flags: HMW
LayerCount: 2
Fore
SplineSet
490 883 m 257
 490 609 l 257
 563 609 l 258
 663 609 706 644 706 746 c 256
 706 849 660 883 563 883 c 258
 490 883 l 257
490 0 m 257
 100 0 l 257
 100 1135 l 257
 633 1135 l 258
 932 1135 1096 990 1096 744 c 256
 1096 496 929 357 633 357 c 258
 490 357 l 257
 490 0 l 257
EndSplineSet
EndChar

StartChar: uni1D1B
Encoding: 7451 7451 817
Width: 1072
GlyphClass: 2
Flags: HMW
LayerCount: 2
Fore
SplineSet
732 0 m 257
 341 0 l 257
 341 811 l 257
 20 811 l 257
 20 1135 l 257
 1052 1135 l 257
 1052 811 l 257
 732 811 l 257
 732 0 l 257
EndSplineSet
EndChar

StartChar: uni1D1C
Encoding: 7452 7452 818
Width: 1243
GlyphClass: 2
Flags: HMW
LayerCount: 2
Fore
SplineSet
790 1135 m 257
 1153 1135 l 257
 1153 463 l 258
 1153 141 942 -8 622 -8 c 256
 302 -8 90 141 90 463 c 258
 90 1135 l 257
 452 1135 l 257
 452 494 l 258
 452 376 471 297 622 297 c 256
 773 297 790 376 790 494 c 258
 790 1135 l 257
EndSplineSet
EndChar

StartChar: uni1D20
Encoding: 7456 7456 819
Width: 1160
GlyphClass: 2
Flags: HMW
LayerCount: 2
Fore
SplineSet
387 1135 m 257
 582 368 l 257
 773 1135 l 257
 1171 1135 l 257
 805 0 l 257
 361 0 l 257
 -11 1135 l 257
 387 1135 l 257
EndSplineSet
EndChar

StartChar: uni1D21
Encoding: 7457 7457 820
Width: 1692
GlyphClass: 2
Flags: HMW
LayerCount: 2
Fore
SplineSet
20 1135 m 257
 384 1135 l 257
 521 479 l 257
 704 1135 l 257
 987 1135 l 257
 1172 479 l 257
 1308 1135 l 257
 1672 1135 l 257
 1407 0 l 257
 1023 0 l 257
 846 568 l 257
 669 0 l 257
 285 0 l 257
 20 1135 l 257
EndSplineSet
EndChar

StartChar: uni1D22
Encoding: 7458 7458 821
Width: 1063
GlyphClass: 2
Flags: HMW
LayerCount: 2
Fore
SplineSet
86 1135 m 257
 967 1135 l 257
 967 901 l 257
 527 321 l 257
 967 321 l 257
 967 0 l 257
 86 0 l 257
 86 234 l 257
 526 812 l 257
 86 812 l 257
 86 1135 l 257
EndSplineSet
EndChar

StartChar: uni1E9E
Encoding: 7838 7838 981
Width: 1387
GlyphClass: 2
Flags: HMW
LayerCount: 2
Fore
SplineSet
110 0 m 257
 110 1038 l 258
 110 1373 298 1614 670 1614 c 256
 962 1614 1204 1460 1204 1182 c 256
 1204 986 1115 897 974 857 c 257
 1188 809 1327 688 1327 403 c 256
 1327 111 1149 -10 902 -10 c 256
 649 -10 532 134 532 389 c 257
 759 389 l 257
 759 333 784 292 843 292 c 256
 917 292 940 372 940 452 c 256
 940 652 797 716 639 716 c 257
 639 1015 l 257
 775 1015 817 1081 817 1150 c 256
 817 1254 751 1302 671 1302 c 256
 547 1302 501 1199 501 1096 c 258
 501 0 l 257
 110 0 l 257
EndSplineSet
EndChar

StartChar: uni200C
Encoding: 8204 8204 1073
Width: 0
GlyphClass: 2
Flags: HMW
LayerCount: 2
Fore
SplineSet
60 1366 m 257
 60 -291 l 257
 -60 -291 l 257
 -60 1366 l 257
 60 1366 l 257
EndSplineSet
EndChar

StartChar: uni200D
Encoding: 8205 8205 1074
Width: 0
GlyphClass: 2
Flags: HMW
LayerCount: 2
Fore
SplineSet
163 -302 m 257
 44 -183 l 257
 130 -97 l 257
 249 -216 l 257
 163 -302 l 257
-130 -9 m 257
 -249 110 l 257
 -163 196 l 257
 -44 77 l 257
 -130 -9 l 257
249 110 m 257
 -163 -302 l 257
 -249 -216 l 257
 163 196 l 257
 249 110 l 257
163 1011 m 257
 44 1130 l 257
 130 1216 l 257
 249 1097 l 257
 163 1011 l 257
-130 1304 m 257
 -249 1423 l 257
 -163 1509 l 257
 -44 1390 l 257
 -130 1304 l 257
249 1423 m 257
 -163 1011 l 257
 -249 1097 l 257
 163 1509 l 257
 249 1423 l 257
-60 1018 m 257
 60 1018 l 257
 60 189 l 257
 -60 189 l 257
 -60 1018 l 257
EndSplineSet
EndChar

StartChar: uni200E
Encoding: 8206 8206 1075
Width: 0
GlyphClass: 2
Flags: HMW
LayerCount: 2
Fore
SplineSet
303 1022 m 257
 217 1108 l 257
 380 1271 l 257
 217 1434 l 257
 303 1520 l 257
 552 1271 l 257
 303 1022 l 257
304 -311 m 257
 218 -225 l 257
 381 -62 l 257
 218 101 l 257
 304 187 l 257
 553 -62 l 257
 304 -311 l 257
60 49 m 258
 60 14 77 -3 112 -3 c 258
 224 -3 l 257
 224 -123 l 257
 112 -123 l 258
 13 -123 -60 -50 -60 49 c 258
 -60 1159 l 258
 -60 1258 13 1331 112 1331 c 258
 224 1331 l 257
 224 1211 l 257
 112 1211 l 258
 77 1211 60 1194 60 1159 c 258
 60 49 l 258
EndSplineSet
EndChar

StartChar: uni200F
Encoding: 8207 8207 1076
Width: 0
GlyphClass: 2
Flags: HMW
LayerCount: 2
Fore
SplineSet
-303 1022 m 257
 -552 1271 l 257
 -303 1520 l 257
 -217 1434 l 257
 -380 1271 l 257
 -217 1108 l 257
 -303 1022 l 257
-304 -311 m 257
 -553 -62 l 257
 -304 187 l 257
 -218 101 l 257
 -381 -62 l 257
 -218 -225 l 257
 -304 -311 l 257
-60 49 m 258
 -60 1159 l 258
 -60 1194 -77 1211 -112 1211 c 258
 -224 1211 l 257
 -224 1331 l 257
 -112 1331 l 258
 -13 1331 60 1258 60 1159 c 258
 60 49 l 258
 60 -50 -13 -123 -112 -123 c 258
 -224 -123 l 257
 -224 -3 l 257
 -112 -3 l 258
 -77 -3 -60 14 -60 49 c 258
EndSplineSet
EndChar

StartChar: figuredash
Encoding: 8210 8210 1079
Width: 1522
GlyphClass: 2
Flags: HMW
LayerCount: 2
Fore
SplineSet
1462 782 m 257
 1462 505 l 257
 60 505 l 257
 60 782 l 257
 1462 782 l 257
EndSplineSet
EndChar

StartChar: emdash
Encoding: 8212 8212 1081
Width: 2048
GlyphClass: 2
Flags: HMW
LayerCount: 2
Fore
SplineSet
1988 782 m 257
 1988 505 l 257
 60 505 l 257
 60 782 l 257
 1988 782 l 257
EndSplineSet
EndChar

StartChar: quoteleft
Encoding: 8216 8216 1083
Width: 663
GlyphClass: 2
Flags: HMW
LayerCount: 2
Fore
SplineSet
455 1600 m 257
 553 1118 l 257
 308 996 l 257
 110 1600 l 257
 455 1600 l 257
EndSplineSet
EndChar

StartChar: quoteright
Encoding: 8217 8217 1084
Width: 663
GlyphClass: 2
Flags: HMW
LayerCount: 2
Fore
SplineSet
208 1600 m 257
 553 1600 l 257
 355 996 l 257
 110 1118 l 257
 208 1600 l 257
EndSplineSet
EndChar

StartChar: dagger
Encoding: 8224 8224 1091
Width: 1519
GlyphClass: 2
Flags: HMW
LayerCount: 2
Fore
SplineSet
200 880 m 257
 200 1159 l 257
 1319 1159 l 257
 1319 880 l 257
 200 880 l 257
590 1505 m 257
 929 1505 l 257
 929 -461 l 257
 590 -461 l 257
 590 1505 l 257
EndSplineSet
EndChar

StartChar: daggerdbl
Encoding: 8225 8225 1092
Width: 1519
GlyphClass: 2
Flags: HMW
LayerCount: 2
Fore
SplineSet
200 -115 m 257
 200 164 l 257
 1319 164 l 257
 1319 -115 l 257
 200 -115 l 257
200 880 m 257
 200 1159 l 257
 1319 1159 l 257
 1319 880 l 257
 200 880 l 257
590 1505 m 257
 929 1505 l 257
 929 -461 l 257
 590 -461 l 257
 590 1505 l 257
EndSplineSet
EndChar

StartChar: bullet
Encoding: 8226 8226 1093
Width: 634
GlyphClass: 2
Flags: HMW
LayerCount: 2
Fore
SplineSet
100 688 m 256
 100 808 197 905 317 905 c 256
 437 905 534 808 534 688 c 256
 534 568 437 471 317 471 c 256
 197 471 100 568 100 688 c 256
EndSplineSet
EndChar

StartChar: uni202A
Encoding: 8234 8234 1095
Width: 0
GlyphClass: 2
Flags: HMW
LayerCount: 2
Fore
SplineSet
-57 966 m 257
 -143 1052 l 257
 20 1215 l 257
 -143 1378 l 257
 -57 1464 l 257
 192 1215 l 257
 -57 966 l 257
-67 853 m 257
 66 853 l 257
 66 47 l 257
 -67 47 l 257
 -67 853 l 257
EndSplineSet
EndChar

StartChar: uni202B
Encoding: 8235 8235 1096
Width: 0
GlyphClass: 2
Flags: HMW
LayerCount: 2
Fore
SplineSet
57 966 m 257
 -192 1215 l 257
 57 1464 l 257
 143 1378 l 257
 -20 1215 l 257
 143 1052 l 257
 57 966 l 257
-66 853 m 257
 67 853 l 257
 67 47 l 257
 -66 47 l 257
 -66 853 l 257
EndSplineSet
EndChar

StartChar: uni202C
Encoding: 8236 8236 1097
Width: 0
GlyphClass: 2
Flags: HMW
LayerCount: 2
Fore
SplineSet
-248 1134 m 257
 0 1382 l 257
 250 1134 l 257
 164 1048 l 257
 0 1210 l 257
 -162 1048 l 257
 -248 1134 l 257
-67 853 m 257
 66 853 l 257
 66 47 l 257
 -67 47 l 257
 -67 853 l 257
EndSplineSet
EndChar

StartChar: uni202D
Encoding: 8237 8237 1098
Width: 0
GlyphClass: 2
Flags: HMW
LayerCount: 2
Fore
SplineSet
95 966 m 257
 9 1052 l 257
 172 1215 l 257
 9 1378 l 257
 95 1464 l 257
 344 1215 l 257
 95 966 l 257
-179 966 m 257
 -265 1052 l 257
 -102 1215 l 257
 -265 1378 l 257
 -179 1464 l 257
 70 1215 l 257
 -179 966 l 257
-67 853 m 257
 66 853 l 257
 66 47 l 257
 -67 47 l 257
 -67 853 l 257
EndSplineSet
EndChar

StartChar: uni202E
Encoding: 8238 8238 1099
Width: 0
GlyphClass: 2
Flags: HMW
LayerCount: 2
Fore
SplineSet
-95 966 m 257
 -344 1215 l 257
 -95 1464 l 257
 -9 1378 l 257
 -172 1215 l 257
 -9 1052 l 257
 -95 966 l 257
179 966 m 257
 -70 1215 l 257
 179 1464 l 257
 265 1378 l 257
 102 1215 l 257
 265 1052 l 257
 179 966 l 257
-66 853 m 257
 67 853 l 257
 67 47 l 257
 -66 47 l 257
 -66 853 l 257
EndSplineSet
EndChar

StartChar: minute
Encoding: 8242 8242 1101
Width: 478
GlyphClass: 2
Flags: HMW
LayerCount: 2
Fore
SplineSet
198 1505 m 257
 398 1505 l 257
 240 987 l 257
 80 987 l 257
 198 1505 l 257
EndSplineSet
EndChar

StartChar: uni2035
Encoding: 8245 8245 1104
Width: 478
GlyphClass: 2
Flags: HMW
LayerCount: 2
Fore
SplineSet
280 1505 m 257
 398 987 l 257
 238 987 l 257
 80 1505 l 257
 280 1505 l 257
EndSplineSet
EndChar

StartChar: guilsinglleft
Encoding: 8249 8249 1107
Width: 585
GlyphClass: 2
Flags: HMW
LayerCount: 2
Fore
SplineSet
342 754 m 257
 545 939 l 257
 401 1093 l 257
 40 754 l 257
 401 415 l 257
 545 569 l 257
 342 754 l 257
EndSplineSet
EndChar

StartChar: guilsinglright
Encoding: 8250 8250 1108
Width: 585
GlyphClass: 2
Flags: HMW
LayerCount: 2
Fore
SplineSet
243 754 m 257
 40 569 l 257
 184 415 l 257
 545 754 l 257
 184 1093 l 257
 40 939 l 257
 243 754 l 257
EndSplineSet
EndChar

StartChar: fraction
Encoding: 8260 8260 1109
Width: 1157
GlyphClass: 2
Flags: HMW
LayerCount: 2
Fore
SplineSet
114 -138 m 257
 -71 1 l 257
 880 1242 l 257
 1065 1103 l 257
 114 -138 l 257
EndSplineSet
EndChar

StartChar: uni2070
Encoding: 8304 8304 1110
Width: 740
GlyphClass: 2
Flags: HMW
LayerCount: 2
Fore
SplineSet
371 1672 m 256
 304 1672 267 1641 267 1484 c 256
 267 1327 304 1294 371 1294 c 256
 438 1294 473 1327 473 1484 c 256
 473 1641 438 1672 371 1672 c 256
371 1842 m 256
 640 1842 657 1611 657 1484 c 256
 657 1357 640 1125 371 1125 c 256
 102 1125 83 1357 83 1484 c 256
 83 1611 102 1842 371 1842 c 256
EndSplineSet
EndChar

StartChar: uni2074
Encoding: 8308 8308 1111
Width: 694
GlyphClass: 2
Flags: MW
LayerCount: 2
Fore
SplineSet
357 1388 m 257
 357 1600 l 257
 203 1388 l 257
 357 1388 l 257
357 1248 m 257
 53 1248 l 257
 53 1384 l 257
 375 1830 l 257
 541 1830 l 257
 541 1388 l 257
 634 1388 l 257
 634 1248 l 257
 541 1248 l 257
 541 1135 l 257
 357 1135 l 257
 357 1248 l 257
EndSplineSet
EndChar

StartChar: uni2075
Encoding: 8309 8309 1112
Width: 657
GlyphClass: 2
Flags: HMW
LayerCount: 2
Fore
SplineSet
75 1358 m 257
 256 1358 l 257
 256 1302 272 1277 325 1277 c 256
 386 1277 403 1305 403 1384 c 256
 403 1455 366 1474 310 1474 c 256
 258 1474 219 1436 190 1402 c 257
 78 1467 l 257
 112 1830 l 257
 566 1830 l 257
 566 1685 l 257
 263 1685 l 257
 254 1599 l 257
 291 1612 328 1618 361 1618 c 256
 491 1618 582 1539 582 1399 c 256
 582 1219 491 1125 314 1125 c 256
 157 1125 75 1209 75 1358 c 257
EndSplineSet
EndChar

StartChar: uni2076
Encoding: 8310 8310 1113
Width: 644
GlyphClass: 2
Flags: HMW
LayerCount: 2
Fore
SplineSet
351 1840 m 256
 473 1840 578 1773 578 1632 c 257
 427 1632 l 257
 427 1672 399 1689 345 1689 c 256
 281 1689 248 1657 248 1569 c 257
 290 1603 322 1608 373 1608 c 256
 490 1608 583 1522 583 1383 c 256
 583 1232 491 1125 333 1125 c 256
 139 1125 75 1254 75 1462 c 256
 75 1722 177 1840 351 1840 c 256
333 1448 m 256
 311 1448 280 1443 253 1428 c 257
 253 1306 282 1281 330 1281 c 256
 370 1281 402 1311 402 1369 c 256
 402 1424 372 1448 333 1448 c 256
EndSplineSet
EndChar

StartChar: uni2077
Encoding: 8311 8311 1114
Width: 566
GlyphClass: 2
Flags: MW
LayerCount: 2
Fore
SplineSet
521 1673 m 257
 364 1512 290 1349 290 1135 c 257
 116 1135 l 257
 116 1332 183 1520 310 1669 c 257
 37 1669 l 257
 37 1830 l 257
 490 1830 l 257
 521 1673 l 257
EndSplineSet
EndChar

StartChar: uni2078
Encoding: 8312 8312 1115
Width: 668
GlyphClass: 2
Flags: HMW
LayerCount: 2
Fore
SplineSet
334 1840 m 256
 485 1840 573 1747 573 1648 c 256
 573 1595 548 1541 495 1501 c 257
 561 1453 593 1389 593 1328 c 256
 593 1223 501 1125 334 1125 c 256
 167 1125 75 1223 75 1328 c 256
 75 1389 107 1453 173 1501 c 257
 120 1541 95 1595 95 1648 c 256
 95 1747 182 1840 334 1840 c 256
334 1698 m 256
 296 1698 275 1676 275 1632 c 256
 275 1587 297 1563 334 1563 c 256
 371 1563 392 1587 392 1632 c 256
 392 1676 372 1698 334 1698 c 256
332 1427 m 256
 288 1427 262 1400 262 1354 c 256
 262 1307 290 1277 334 1277 c 256
 377 1277 404 1305 404 1352 c 256
 404 1399 378 1427 332 1427 c 256
EndSplineSet
EndChar

StartChar: uni2079
Encoding: 8313 8313 1116
Width: 643
GlyphClass: 2
Flags: HMW
LayerCount: 2
Fore
SplineSet
390 1537 m 257
 390 1659 361 1684 313 1684 c 256
 273 1684 241 1654 241 1596 c 256
 241 1541 271 1517 310 1517 c 256
 332 1517 363 1522 390 1537 c 257
395 1396 m 257
 353 1362 321 1357 270 1357 c 256
 153 1357 60 1443 60 1582 c 256
 60 1733 152 1840 310 1840 c 256
 504 1840 568 1711 568 1503 c 256
 568 1243 466 1125 292 1125 c 256
 170 1125 65 1192 65 1333 c 257
 216 1333 l 257
 216 1293 244 1276 298 1276 c 256
 362 1276 395 1308 395 1396 c 257
EndSplineSet
EndChar

StartChar: arrowleft
Encoding: 8592 8592 1145
Width: 1626
GlyphClass: 2
Flags: HMW
LayerCount: 2
Fore
SplineSet
1476 504 m 257
 553 504 l 257
 480 522 l 257
 802 200 l 257
 673 70 l 257
 150 594 l 257
 673 1118 l 257
 802 988 l 257
 480 666 l 257
 553 684 l 257
 1476 684 l 257
 1476 504 l 257
EndSplineSet
EndChar

StartChar: arrowup
Encoding: 8593 8593 1146
Width: 1348
GlyphClass: 2
Flags: HMW
LayerCount: 2
Fore
SplineSet
584 -78 m 257
 584 846 l 257
 602 920 l 257
 280 597 l 257
 150 726 l 257
 674 1250 l 257
 1198 726 l 257
 1068 597 l 257
 746 920 l 257
 764 846 l 257
 764 -78 l 257
 584 -78 l 257
EndSplineSet
EndChar

StartChar: arrowright
Encoding: 8594 8594 1147
Width: 1626
GlyphClass: 2
Flags: HMW
LayerCount: 2
Fore
SplineSet
150 684 m 257
 1073 684 l 257
 1146 666 l 257
 824 988 l 257
 953 1118 l 257
 1476 594 l 257
 953 70 l 257
 824 200 l 257
 1146 522 l 257
 1073 504 l 257
 150 504 l 257
 150 684 l 257
EndSplineSet
EndChar

StartChar: arrowdown
Encoding: 8595 8595 1148
Width: 1348
GlyphClass: 2
Flags: HMW
LayerCount: 2
Fore
SplineSet
764 1250 m 257
 764 326 l 257
 746 252 l 257
 1068 575 l 257
 1198 446 l 257
 674 -78 l 257
 150 446 l 257
 280 575 l 257
 602 252 l 257
 584 326 l 257
 584 1250 l 257
 764 1250 l 257
EndSplineSet
EndChar

StartChar: arrowboth
Encoding: 8596 8596 1149
Width: 2130
GlyphClass: 2
Flags: HMW
LayerCount: 2
Fore
SplineSet
673 1118 m 257
 802 988 l 257
 480 666 l 257
 553 684 l 257
 1577 684 l 257
 1650 666 l 257
 1328 988 l 257
 1457 1118 l 257
 1980 594 l 257
 1457 70 l 257
 1328 200 l 257
 1650 522 l 257
 1577 504 l 257
 553 504 l 257
 480 522 l 257
 802 200 l 257
 673 70 l 257
 150 594 l 257
 673 1118 l 257
EndSplineSet
EndChar

StartChar: arrowupdn
Encoding: 8597 8597 1150
Width: 1348
GlyphClass: 2
Flags: HMW
LayerCount: 2
Fore
SplineSet
674 1510 m 257
 1198 986 l 257
 1068 857 l 257
 746 1180 l 257
 764 1106 l 257
 764 82 l 257
 746 8 l 257
 1068 331 l 257
 1198 202 l 257
 674 -322 l 257
 150 202 l 257
 280 331 l 257
 602 8 l 257
 584 82 l 257
 584 1106 l 257
 602 1180 l 257
 280 857 l 257
 150 986 l 257
 674 1510 l 257
EndSplineSet
EndChar

StartChar: uni2196
Encoding: 8598 8598 1151
Width: 1371
GlyphClass: 2
Flags: HMW
LayerCount: 2
Fore
SplineSet
1094 31 m 257
 372 754 l 257
 331 819 l 257
 331 363 l 257
 150 363 l 257
 150 1102 l 257
 889 1102 l 257
 889 921 l 257
 433 921 l 257
 498 880 l 257
 1221 158 l 257
 1094 31 l 257
EndSplineSet
EndChar

StartChar: uni2197
Encoding: 8599 8599 1152
Width: 1371
GlyphClass: 2
Flags: HMW
LayerCount: 2
Fore
SplineSet
150 158 m 257
 873 880 l 257
 938 921 l 257
 482 921 l 257
 482 1102 l 257
 1221 1102 l 257
 1221 363 l 257
 1040 363 l 257
 1040 819 l 257
 999 754 l 257
 277 31 l 257
 150 158 l 257
EndSplineSet
EndChar

StartChar: uni2198
Encoding: 8600 8600 1153
Width: 1371
GlyphClass: 2
Flags: HMW
LayerCount: 2
Fore
SplineSet
277 1102 m 257
 999 379 l 257
 1040 314 l 257
 1040 770 l 257
 1221 770 l 257
 1221 31 l 257
 482 31 l 257
 482 212 l 257
 938 212 l 257
 873 253 l 257
 150 975 l 257
 277 1102 l 257
EndSplineSet
EndChar

StartChar: uni2199
Encoding: 8601 8601 1154
Width: 1371
GlyphClass: 2
Flags: HMW
LayerCount: 2
Fore
SplineSet
1221 975 m 257
 498 253 l 257
 433 212 l 257
 889 212 l 257
 889 31 l 257
 150 31 l 257
 150 770 l 257
 331 770 l 257
 331 314 l 257
 372 379 l 257
 1094 1102 l 257
 1221 975 l 257
EndSplineSet
EndChar

StartChar: uni220E
Encoding: 8718 8718 1155
Width: 1103
GlyphClass: 2
Flags: HMW
LayerCount: 2
Fore
SplineSet
152 1239 m 257
 953 1239 l 257
 953 0 l 257
 152 0 l 257
 152 1239 l 257
EndSplineSet
EndChar

StartChar: uni2215
Encoding: 8725 8725 1157
Width: 1157
GlyphClass: 2
Flags: HMW
LayerCount: 2
Fore
SplineSet
114 -138 m 257
 -71 1 l 257
 880 1242 l 257
 1065 1103 l 257
 114 -138 l 257
EndSplineSet
EndChar

StartChar: approxequal
Encoding: 8776 8776 1158
Width: 1149
GlyphClass: 2
Flags: HMW
LayerCount: 2
Fore
SplineSet
60 390 m 257
 162 537 278 615 397 615 c 256
 458 615 524 595 595 553 c 256
 660 515 724 491 765 491 c 256
 817 491 879 530 944 603 c 257
 1090 458 l 257
 982 309 869 237 744 237 c 256
 683 237 632 255 538 305 c 256
 457 348 409 366 373 366 c 256
 323 366 271 331 214 256 c 257
 60 390 l 257
60 875 m 257
 162 1022 278 1101 397 1101 c 256
 458 1101 524 1080 595 1038 c 256
 660 1000 724 977 765 977 c 256
 817 977 879 1015 944 1088 c 257
 1090 943 l 257
 982 794 869 723 744 723 c 256
 683 723 632 740 538 790 c 256
 457 833 409 852 373 852 c 256
 323 852 271 816 214 741 c 257
 60 875 l 257
EndSplineSet
EndChar

StartChar: filledbox
Encoding: 9632 9632 1160
Width: 1103
GlyphClass: 2
Flags: HMW
LayerCount: 2
Fore
SplineSet
152 802 m 257
 953 802 l 257
 953 0 l 257
 152 0 l 257
 152 802 l 257
EndSplineSet
EndChar

StartChar: uni25CC
Encoding: 9676 9676 1161
Width: 1802
GlyphClass: 2
Flags: HMW
AnchorPoint: "middle_dot_I" 1707 769 basechar 0
AnchorPoint: "Anchor5" 851 1447 basechar 0
AnchorPoint: "Anchor3" 851 91 basechar 0
AnchorPoint: "down_II" 851 91 basechar 0
AnchorPoint: "down_I" 851 91 basechar 0
AnchorPoint: "up_II" 851 1447 basechar 0
AnchorPoint: "up_I" 851 1447 basechar 0
LayerCount: 2
Fore
SplineSet
773 91 m 256
 773 149 793 169 851 169 c 256
 909 169 929 149 929 91 c 256
 929 33 909 13 851 13 c 256
 793 13 773 33 773 91 c 256
773 1447 m 256
 773 1505 793 1525 851 1525 c 256
 909 1525 929 1505 929 1447 c 256
 929 1389 909 1369 851 1369 c 256
 793 1369 773 1389 773 1447 c 256
1529 691 m 256
 1471 691 1451 711 1451 769 c 256
 1451 827 1471 847 1529 847 c 256
 1587 847 1607 827 1607 769 c 256
 1607 711 1587 691 1529 691 c 256
173 691 m 256
 115 691 95 711 95 769 c 256
 95 827 115 847 173 847 c 256
 231 847 251 827 251 769 c 256
 251 711 231 691 173 691 c 256
1252 290 m 256
 1252 348 1272 368 1330 368 c 256
 1388 368 1408 348 1408 290 c 256
 1408 232 1388 212 1330 212 c 256
 1272 212 1252 232 1252 290 c 256
294 1248 m 256
 294 1306 314 1326 372 1326 c 256
 430 1326 450 1306 450 1248 c 256
 450 1190 430 1170 372 1170 c 256
 314 1170 294 1190 294 1248 c 256
1330 1170 m 256
 1272 1170 1252 1190 1252 1248 c 256
 1252 1306 1272 1326 1330 1326 c 256
 1388 1326 1408 1306 1408 1248 c 256
 1408 1190 1388 1170 1330 1170 c 256
372 212 m 256
 314 212 294 232 294 290 c 256
 294 348 314 368 372 368 c 256
 430 368 450 348 450 290 c 256
 450 232 430 212 372 212 c 256
514 143 m 256
 514 201 534 220 592 220 c 256
 650 220 670 201 670 143 c 256
 670 85 650 64 592 64 c 256
 534 64 514 85 514 143 c 256
1110 1474 m 256
 1168 1474 1188 1453 1188 1395 c 256
 1188 1337 1168 1318 1110 1318 c 256
 1052 1318 1032 1337 1032 1395 c 256
 1032 1453 1052 1474 1110 1474 c 256
1477 432 m 256
 1419 432 1400 452 1400 510 c 256
 1400 568 1419 588 1477 588 c 256
 1535 588 1556 568 1556 510 c 256
 1556 452 1535 432 1477 432 c 256
146 1028 m 256
 146 1086 167 1106 225 1106 c 256
 283 1106 302 1086 302 1028 c 256
 302 970 283 950 225 950 c 256
 167 950 146 970 146 1028 c 256
1032 143 m 256
 1032 201 1052 220 1110 220 c 256
 1168 220 1188 201 1188 143 c 256
 1188 85 1168 64 1110 64 c 256
 1052 64 1032 85 1032 143 c 256
514 1395 m 256
 514 1453 534 1474 592 1474 c 256
 650 1474 670 1453 670 1395 c 256
 670 1337 650 1318 592 1318 c 256
 534 1318 514 1337 514 1395 c 256
1477 950 m 256
 1419 950 1400 970 1400 1028 c 256
 1400 1086 1419 1106 1477 1106 c 256
 1535 1106 1556 1086 1556 1028 c 256
 1556 970 1535 950 1477 950 c 256
225 432 m 256
 167 432 146 452 146 510 c 256
 146 568 167 588 225 588 c 256
 283 588 302 568 302 510 c 256
 302 452 283 432 225 432 c 256
EndSplineSet
EndChar

StartChar: uniA729
Encoding: 42793 42793 1163
Width: 1981
GlyphClass: 2
Flags: HMW
LayerCount: 2
Fore
SplineSet
771 287 m 257
 825 45 l 257
 738 10 637 -11 540 -11 c 256
 342 -11 163 77 163 317 c 258
 163 1425 l 257
 553 1425 l 257
 553 353 l 258
 553 298 593 271 660 271 c 256
 691 271 729 275 771 287 c 257
EndSplineSet
Refer: 1196 57354 N 1 0 0 1 -24 381 2
Refer: 442 658 N 1 0 0 1 779 0 2
EndChar

StartChar: uniA730
Encoding: 42800 42800 1164
Width: 932
GlyphClass: 2
Flags: HMW
LayerCount: 2
Fore
SplineSet
100 0 m 257
 100 1135 l 257
 892 1135 l 257
 892 831 l 257
 490 831 l 257
 490 629 l 257
 836 629 l 257
 836 395 l 257
 490 395 l 257
 490 0 l 257
 100 0 l 257
EndSplineSet
EndChar

StartChar: uniA731
Encoding: 42801 42801 1165
Width: 1023
GlyphClass: 2
Flags: HMW
LayerCount: 2
Fore
SplineSet
59 395 m 257
 394 395 l 257
 394 315 434 281 526 281 c 256
 590 281 625 303 625 342 c 256
 625 379 586 402 454 447 c 256
 192 537 87 634 87 787 c 256
 87 999 252 1145 490 1145 c 256
 786 1145 953 1008 953 764 c 257
 618 767 l 257
 618 821 581 853 517 853 c 256
 459 853 425 828 425 786 c 256
 425 751 464 728 591 687 c 256
 853 603 963 502 963 348 c 256
 963 133 793 -10 538 -10 c 256
 223 -10 59 129 59 395 c 257
EndSplineSet
EndChar

StartChar: uniA733
Encoding: 42803 42803 1167
Width: 1825
GlyphClass: 2
Flags: HMW
LayerCount: 2
Fore
SplineSet
573 1146 m 256
 923 1146 1079 973 1079 742 c 258
 1079 563 l 257
 689 317 l 257
 689 742 l 258
 689 812 654 854 553 854 c 256
 453 854 417 814 417 742 c 257
 87 742 l 257
 68 986 228 1146 573 1146 c 256
1235 1146 m 256
 1585 1146 1741 973 1741 742 c 258
 1741 313 l 258
 1741 254 1760 222 1819 222 c 257
 1819 3 l 257
 1570 -55 1351 47 1351 317 c 258
 1351 742 l 258
 1351 812 1316 854 1215 854 c 256
 1115 854 1079 814 1079 742 c 257
 749 742 l 257
 730 986 890 1146 1235 1146 c 256
EndSplineSet
Refer: 1197 57355 N 1 0 0 1 649 0 2
Refer: 1197 57355 N 1 0 0 1 -14 0 2
EndChar

StartChar: uniA734
Encoding: 42804 42804 1168
Width: 2325
GlyphClass: 2
Flags: HMW
LayerCount: 2
Fore
SplineSet
508 319 m 257
 408 0 l 257
 -9 0 l 257
 531 1505 l 257
 951 1505 l 257
 1374 319 l 257
 508 319 l 257
602 611 m 257
 881 611 l 257
 742 1054 l 257
 602 611 l 257
EndSplineSet
Refer: 47 79 N 1 0 0 1 811 0 2
EndChar

StartChar: uniA735
Encoding: 42805 42805 1169
Width: 1839
GlyphClass: 2
Flags: HMW
LayerCount: 2
Fore
SplineSet
688 315 m 257
 688 742 l 258
 688 819 645 854 552 854 c 256
 458 854 416 819 416 742 c 257
 86 742 l 257
 66 999 243 1146 572 1146 c 256
 892 1146 1078 997 1078 742 c 258
 1078 315 l 257
 688 315 l 257
65 303 m 256
 65 557 297 683 530 683 c 258
 1035 683 l 257
 1035 462 l 257
 583 462 l 258
 476 462 395 417 395 347 c 256
 395 300 432 273 498 273 c 256
 575 273 656 318 694 359 c 257
 810 339 l 257
 746 124 632 -11 388 -11 c 256
 192 -11 65 105 65 303 c 256
EndSplineSet
Refer: 79 111 N 1 0 0 1 628 0 2
EndChar

StartChar: uniA736
Encoding: 42806 42806 1170
Width: 2253
GlyphClass: 2
Flags: HMW
LayerCount: 2
Fore
SplineSet
1743 1516 m 257
 2133 1516 l 257
 2133 628 l 258
 2133 239 1917 0 1491 0 c 257
 1343 344 l 257
 1491 344 l 258
 1692 344 1743 472 1743 629 c 258
 1743 1516 l 257
EndSplineSet
Refer: 33 65 N 1 0 0 1 0 0 2
EndChar

StartChar: uniA737
Encoding: 42807 42807 1171
Width: 1850
GlyphClass: 2
Flags: HMW
LayerCount: 2
Fore
SplineSet
86 742 m 257
 66 999 243 1146 572 1146 c 256
 892 1146 1078 997 1078 742 c 258
 1078 492 l 258
 1078 423 1133 360 1219 360 c 256
 1299 360 1360 414 1360 492 c 257
 1410 344 l 257
 1407 147 1279 -10 1049 -10 c 256
 819 -10 688 161 688 356 c 258
 688 742 l 258
 688 819 645 854 552 854 c 256
 458 854 416 819 416 742 c 257
 86 742 l 257
1360 1135 m 257
 1750 1135 l 257
 1750 0 l 257
 1380 0 l 257
 1360 250 l 257
 1360 1135 l 257
1035 683 m 257
 1035 462 l 257
 583 462 l 258
 476 462 395 417 395 347 c 256
 395 300 432 273 498 273 c 256
 575 273 656 318 694 359 c 257
 810 339 l 257
 746 124 632 -11 388 -11 c 256
 192 -11 65 105 65 303 c 256
 65 557 297 683 530 683 c 258
 1035 683 l 257
EndSplineSet
EndChar

StartChar: uniA738
Encoding: 42808 42808 1172
Width: 2023
GlyphClass: 2
Flags: HMW
LayerCount: 2
Fore
SplineSet
604 611 m 257
 879 611 l 257
 742 1058 l 257
 604 611 l 257
507 319 m 257
 407 0 l 257
 -11 0 l 257
 532 1505 l 257
 950 1505 l 257
 1283 446 l 257
 1617 1505 l 257
 2034 1505 l 257
 1492 0 l 257
 1074 0 l 257
 974 319 l 257
 507 319 l 257
EndSplineSet
EndChar

StartChar: uniA739
Encoding: 42809 42809 1173
Width: 1789
GlyphClass: 2
Flags: HMW
LayerCount: 2
Fore
SplineSet
86 742 m 257
 66 999 243 1146 572 1146 c 256
 832 1146 997 1038 1060 826 c 258
 1181 418 l 257
 1382 1135 l 257
 1800 1135 l 257
 1404 0 l 257
 960 0 l 257
 693 756 l 258
 665.199 834.717 630 854 545 854 c 256
 458 854 416 819 416 742 c 257
 86 742 l 257
815 683 m 257
 815 462 l 257
 583 462 l 258
 472 462 395 415 395 347 c 256
 395 300 432 273 498 273 c 256
 562 273 646 307 694 359 c 257
 810 339 l 257
 738 97 608 -11 388 -11 c 256
 188 -11 65 109 65 303 c 256
 65 525 258 683 530 683 c 258
 815 683 l 257
EndSplineSet
EndChar

StartChar: uniA73A
Encoding: 42810 42810 1174
Width: 2023
GlyphClass: 2
Flags: HMW
LayerCount: 2
Fore
SplineSet
980 1186 m 257
 1596 1186 l 257
 1596 894 l 257
 980 894 l 257
 980 1186 l 257
604 611 m 257
 879 611 l 257
 742 1058 l 257
 604 611 l 257
507 319 m 257
 407 0 l 257
 -11 0 l 257
 532 1505 l 257
 950 1505 l 257
 1283 446 l 257
 1617 1505 l 257
 2034 1505 l 257
 1492 0 l 257
 1074 0 l 257
 974 319 l 257
 507 319 l 257
EndSplineSet
EndChar

StartChar: uniA73B
Encoding: 42811 42811 1175
Width: 1789
GlyphClass: 2
Flags: HMW
LayerCount: 2
Fore
SplineSet
982 944 m 257
 1333 944 l 257
 1333 738 l 257
 1050 738 l 257
 982 944 l 257
86 742 m 257
 66 999 243 1146 572 1146 c 256
 832 1146 997 1038 1060 826 c 258
 1181 418 l 257
 1382 1135 l 257
 1800 1135 l 257
 1404 0 l 257
 960 0 l 257
 693 756 l 258
 665.199 834.717 630 854 545 854 c 256
 458 854 416 819 416 742 c 257
 86 742 l 257
815 683 m 257
 815 462 l 257
 583 462 l 258
 472 462 395 415 395 347 c 256
 395 300 432 273 498 273 c 256
 562 273 646 307 694 359 c 257
 810 339 l 257
 738 97 608 -11 388 -11 c 256
 188 -11 65 109 65 303 c 256
 65 525 258 683 530 683 c 258
 815 683 l 257
EndSplineSet
EndChar

StartChar: uniA73C
Encoding: 42812 42812 1176
Width: 2023
GlyphClass: 2
Flags: HMW
LayerCount: 2
Fore
SplineSet
507 319 m 257
 407 0 l 257
 -11 0 l 257
 532 1505 l 257
 950 1505 l 257
 1283 446 l 257
 1617 1505 l 257
 2034 1505 l 257
 1343 -433 l 257
 904 -433 l 257
 1092 28 l 257
 983 319 l 257
 507 319 l 257
604 611 m 257
 879 611 l 257
 742 1058 l 257
 604 611 l 257
EndSplineSet
EndChar

StartChar: uniA73D
Encoding: 42813 42813 1177
Width: 1789
GlyphClass: 2
Flags: HMW
LayerCount: 2
Fore
SplineSet
86 742 m 257
 66 999 243 1146 572 1146 c 256
 832 1146 997 1038 1060 826 c 258
 1181 418 l 257
 1382 1135 l 257
 1800 1135 l 257
 1241 -461 l 257
 802 -461 l 257
 990 0 l 257
 693 756 l 258
 661.203 836.937 630 854 545 854 c 256
 458 854 416 819 416 742 c 257
 86 742 l 257
815 683 m 257
 815 462 l 257
 583 462 l 258
 472 462 395 415 395 347 c 256
 395 300 432 273 498 273 c 256
 562 273 646 307 694 359 c 257
 810 339 l 257
 738 97 608 -11 388 -11 c 256
 188 -11 65 109 65 303 c 256
 65 525 258 683 530 683 c 258
 815 683 l 257
EndSplineSet
EndChar

StartChar: uniA760
Encoding: 42848 42848 1180
Width: 2565
GlyphClass: 2
Flags: HMW
LayerCount: 2
Fore
SplineSet
2134 1505 m 257
 2586 1505 l 257
 2028 654 l 257
 2028 0 l 257
 1636 0 l 257
 1636 654 l 257
 1344 1106 l 257
 949 0 l 257
 531 0 l 257
 -11 1505 l 257
 407 1505 l 257
 740 446 l 257
 1074 1505 l 257
 1529 1505 l 257
 1832 961 l 257
 2134 1505 l 257
EndSplineSet
EndChar

StartChar: uniA761
Encoding: 42849 42849 1181
Width: 2044
GlyphClass: 2
Flags: HMW
LayerCount: 2
Fore
SplineSet
1233 1135 m 257
 1436 418 l 257
 1637 1135 l 257
 2055 1135 l 257
 1496 -461 l 257
 1057 -461 l 257
 1245 0 l 257
 1031 572 l 257
 835 0 l 257
 391 0 l 257
 -11 1135 l 257
 407 1135 l 257
 612 418 l 257
 813 1135 l 257
 1233 1135 l 257
EndSplineSet
EndChar

StartChar: uniAB50
Encoding: 43856 43856 1184
Width: 1944
GlyphClass: 2
Flags: HMW
LayerCount: 2
Fore
SplineSet
782 645 m 257
 1172 645 l 257
 1172 491 l 258
 1172 422 1227 359 1313 359 c 256
 1393 359 1454 413 1454 491 c 257
 1504 343 l 257
 1501 146 1373 -11 1143 -11 c 256
 913 -11 782 160 782 355 c 258
 782 645 l 257
1454 1135 m 257
 1844 1135 l 257
 1844 0 l 257
 1474 0 l 257
 1454 250 l 257
 1454 1135 l 257
EndSplineSet
Refer: 1199 57357 N -1 0 0 -1 1195 1136 2
Refer: 14 46 N 1 0 0 1 685 785 2
EndChar

StartChar: uniAB5B
Encoding: 43867 43867 1185
Width: 742
GlyphClass: 2
Flags: HMW
LayerCount: 2
Fore
SplineSet
371 1455 m 256
 573 1455 682 1327 682 1135 c 257
 514 1135 l 257
 514 1237 463 1288 371 1288 c 256
 279 1288 228 1237 228 1135 c 257
 60 1135 l 257
 60 1327 169 1455 371 1455 c 256
EndSplineSet
EndChar

StartChar: uniE000
Encoding: 57344 57344 1186
Width: 100
GlyphClass: 2
Flags: HMW
LayerCount: 2
Fore
SplineSet
0 390 m 258
 100 390 l 257
 100 0 l 257
 0 0 l 258
 -31 0 -50 38 -50 196 c 256
 -50 354 -31 390 0 390 c 258
EndSplineSet
EndChar

StartChar: uniE001
Encoding: 57345 57345 1187
Width: 310
GlyphClass: 2
Flags: HMW
LayerCount: 2
Fore
SplineSet
0 390 m 258
 310 390 l 257
 310 0 l 257
 0 0 l 258
 -31 0 -50 38 -50 196 c 256
 -50 354 -31 390 0 390 c 258
EndSplineSet
EndChar

StartChar: uniE002
Encoding: 57346 57346 1188
Width: 450
GlyphClass: 2
Flags: HMW
LayerCount: 2
Fore
SplineSet
0 390 m 258
 450 390 l 257
 450 0 l 257
 0 0 l 258
 -31 0 -50 38 -50 196 c 256
 -50 354 -31 390 0 390 c 258
EndSplineSet
EndChar

StartChar: uniE003
Encoding: 57347 57347 1189
Width: 1875
GlyphClass: 2
Flags: HMW
LayerCount: 2
Fore
SplineSet
1505 1512 m 257
 1691 1316 l 257
 222 -17 l 257
 36 179 l 257
 1505 1512 l 257
EndSplineSet
EndChar

StartChar: uniE004
Encoding: 57348 57348 1190
Width: 1157
GlyphClass: 2
Flags: HMW
LayerCount: 2
Fore
SplineSet
114 -138 m 257
 -71 1 l 257
 880 1242 l 257
 1065 1103 l 257
 114 -138 l 257
EndSplineSet
EndChar

StartChar: uniE005
Encoding: 57349 57349 1191
Width: 1514
GlyphClass: 2
Flags: HMW
LayerCount: 2
Fore
SplineSet
1354 -129 m 257
 978 -129 l 257
 655 498 l 257
 878 626 l 257
 1354 -129 l 257
EndSplineSet
EndChar

StartChar: uniE006
Encoding: 57350 57350 1192
Width: 1493
GlyphClass: 2
Flags: HMW
LayerCount: 2
Fore
SplineSet
345 127 m 257
 345 346 l 257
 1148 346 l 257
 1148 127 l 257
 345 127 l 257
345 408 m 257
 345 627 l 257
 1148 627 l 257
 1148 408 l 257
 345 408 l 257
EndSplineSet
EndChar

StartChar: uniE007
Encoding: 57351 57351 1193
Width: 923
GlyphClass: 2
Flags: HMW
LayerCount: 2
Fore
SplineSet
332 1239 m 0
 279 1239 235 1244 194 1255 c 1
 234 1392 l 1
 269 1382 323 1376 371 1376 c 0
 461 1376 514 1398 514 1435 c 0
 514 1457 496 1465 428 1475 c 0
 305 1493 264 1531 264 1627 c 0
 264 1759 365 1866 490 1866 c 0
 528 1866 566 1858 610 1841 c 1
 576 1727 l 1
 553 1735 525 1739 499 1739 c 0
 429 1739 375 1703 375 1657 c 0
 375 1624 393 1616 504 1597 c 0
 594 1582 631 1537 631 1444 c 0
 631 1321 511 1239 332 1239 c 0
EndSplineSet
EndChar

StartChar: uniE008
Encoding: 57352 57352 1194
Width: 836
GlyphClass: 2
Flags: HMW
LayerCount: 2
Fore
SplineSet
498 1323 m 256
 498 1372 468 1409 418 1409 c 256
 368 1409 338 1372 338 1323 c 256
 338 1274 368 1237 418 1237 c 256
 468 1237 498 1274 498 1323 c 256
758 1323 m 256
 758 1145 629 975 418 975 c 256
 207 975 78 1145 78 1323 c 256
 78 1501 207 1670 418 1670 c 256
 629 1670 758 1501 758 1323 c 256
EndSplineSet
EndChar

StartChar: uniE009
Encoding: 57353 57353 1195
Width: 1219
GlyphClass: 2
Flags: HMW
LayerCount: 2
Fore
SplineSet
543 1688 m 257
 700 1688 l 257
 700 -183 l 257
 543 -183 l 257
 543 1688 l 257
EndSplineSet
EndChar

StartChar: uniE00A
Encoding: 57354 57354 1196
Width: 1293
GlyphClass: 2
Flags: HMW
LayerCount: 2
Fore
SplineSet
64 532 m 257
 64 754 l 257
 823 754 l 257
 823 532 l 257
 64 532 l 257
EndSplineSet
EndChar

StartChar: uniE00B
Encoding: 57355 57355 1197
Width: 1179
GlyphClass: 2
Flags: HMW
LayerCount: 2
Fore
SplineSet
824 339 m 257
 760 124 646 -11 402 -11 c 256
 206 -11 79 105 79 303 c 256
 79 557 311 683 544 683 c 258
 847 683 l 257
 754 462 l 257
 597 462 l 258
 490 462 409 417 409 347 c 256
 409 300 446 273 512 273 c 256
 589 273 670 318 708 359 c 257
 824 339 l 257
EndSplineSet
EndChar

StartChar: uniE00C
Encoding: 57356 57356 1198
Width: 1635
GlyphClass: 2
Flags: HMW
LayerCount: 2
Fore
SplineSet
1676 697 m 258
 1676 0 l 257
 1286 0 l 257
 1286 607 l 258
 1286 744 1248 806 1164 806 c 256
 1085 806 1039 761 1001 625 c 257
 914 689 l 257
 978 1007 1098 1145 1323 1145 c 256
 1556 1145 1676 997 1676 697 c 258
EndSplineSet
EndChar

StartChar: uniE00D
Encoding: 57357 57357 1199
Width: 1087
GlyphClass: 2
Flags: HMW
LayerCount: 2
Fore
SplineSet
1085 697 m 258
 1085 0 l 257
 695 0 l 257
 695 607 l 258
 695 744 657 806 573 806 c 256
 494 806 448 761 410 625 c 257
 323 689 l 257
 387 1007 507 1145 732 1145 c 256
 965 1145 1085 997 1085 697 c 258
EndSplineSet
EndChar

StartChar: uniE00E
Encoding: 57358 57358 1200
Width: 852
GlyphClass: 2
Flags: HMW
LayerCount: 2
Fore
SplineSet
912 787 m 257
 888 792 864 794 841 794 c 256
 642 794 507 665 507 438 c 257
 411 438 l 257
 411 795 497 1148 868 1148 c 256
 882 1148 897 1147 912 1146 c 257
 912 787 l 257
EndSplineSet
EndChar

StartChar: uniE00F
Encoding: 57359 57359 1201
Width: 1176
GlyphClass: 2
Flags: HMW
LayerCount: 2
Fore
SplineSet
1080 568 m 256
 1080 262 966 -9 685 -9 c 256
 499 -9 395 106 310 266 c 257
 407 366 l 257
 436 320 481 291 538 291 c 256
 619 291 691 387 691 568 c 256
 691 749 619 845 538 845 c 256
 481 845 436 816 407 770 c 257
 310 870 l 257
 395 1030 499 1145 685 1145 c 256
 966 1145 1080 874 1080 568 c 256
EndSplineSet
EndChar

StartChar: uniE010
Encoding: 57360 57360 1202
Width: 1556
GlyphClass: 2
Flags: HMW
LayerCount: 2
Fore
SplineSet
1422 -236 m 257
 1012 -236 l 257
 845 117 l 257
 1095 266 l 257
 1422 -236 l 257
EndSplineSet
EndChar

StartChar: uniE011
Encoding: 57361 57361 1203
Width: 1166
GlyphClass: 2
Flags: HMW
LayerCount: 2
Fore
SplineSet
530 1505 m 257
 687 1505 l 257
 687 996 l 1
 530 996 l 1
 530 1505 l 257
530 142 m 1
 687 142 l 1
 687 -366 l 257
 530 -366 l 257
 530 142 l 1
EndSplineSet
EndChar

StartChar: uniE012
Encoding: 57362 57362 1204
Width: 1685
GlyphClass: 2
Flags: HMW
LayerCount: 2
Fore
SplineSet
1171 1227 m 257
 1485 1512 l 257
 1671 1316 l 257
 1249 933 l 257
 1171 1227 l 257
445 204 m 257
 202 -17 l 257
 16 179 l 257
 343 476 l 257
 445 204 l 257
EndSplineSet
EndChar

StartChar: uniE013
Encoding: 57363 57363 1205
Width: 1191
GlyphClass: 2
Flags: HMW
LayerCount: 2
Fore
SplineSet
772 959 m 257
 989 1242 l 257
 1174 1103 l 257
 923 776 l 257
 772 959 l 257
445 152 m 257
 223 -138 l 257
 38 1 l 257
 309 354 l 257
 445 152 l 257
EndSplineSet
EndChar

StartChar: uniE014
Encoding: 57364 57364 1206
Width: 1493
GlyphClass: 2
Flags: HMW
LayerCount: 2
Fore
SplineSet
345 267 m 257
 345 486 l 257
 1148 486 l 257
 1148 267 l 257
 345 267 l 257
EndSplineSet
EndChar

StartChar: uniE015
Encoding: 57365 57365 1207
Width: 1594
GlyphClass: 2
Flags: HMW
LayerCount: 2
Fore
SplineSet
1554 1079 m 257
 1554 969 l 257
 40 969 l 257
 40 1079 l 257
 1554 1079 l 257
EndSplineSet
EndChar

StartChar: uniE016
Encoding: 57366 57366 1208
Width: 420
GlyphClass: 2
Flags: HMW
LayerCount: 2
Fore
SplineSet
60 883 m 257
 60 1065 l 257
 360 1065 l 257
 360 883 l 257
 60 883 l 257
EndSplineSet
EndChar

StartChar: uniE017
Encoding: 57367 57367 1209
Width: 762
GlyphClass: 2
Flags: HMW
LayerCount: 2
Fore
SplineSet
697 1104 m 257
 762 948 l 257
 65 688 l 257
 0 844 l 257
 697 1104 l 257
EndSplineSet
EndChar

StartChar: uniE018
Encoding: 57368 57368 1210
Width: 1142
GlyphClass: 2
Flags: HMW
LayerCount: 2
Fore
SplineSet
353 0 m 257
 160 0 l 257
 789 1315 l 257
 982 1315 l 257
 353 0 l 257
EndSplineSet
EndChar

StartChar: uniE019
Encoding: 57369 57369 1211
Width: 1556
GlyphClass: 2
Flags: HMW
LayerCount: 2
Fore
SplineSet
605 55 m 257
 755 205 l 257
 905 55 l 257
 755 -95 l 257
 605 55 l 257
873 55 m 257
 1023 205 l 257
 1173 55 l 257
 1023 -95 l 257
 873 55 l 257
749 -168 m 257
 889 -28 l 257
 1029 -168 l 257
 889 -308 l 257
 749 -168 l 257
EndSplineSet
EndChar

StartChar: cedilla.rotated
Encoding: 57371 57371 1212
Width: 694
GlyphClass: 2
Flags: HMW
LayerCount: 2
Fore
SplineSet
430 -188 m 257
 85 -188 l 257
 283 416 l 257
 528 294 l 257
 430 -188 l 257
EndSplineSet
EndChar

StartChar: uniE01D
Encoding: 57373 57373 1214
Width: 682
GlyphClass: 2
Flags: HMW
LayerCount: 2
Fore
SplineSet
340 484 m 257
 582 242 l 257
 340 -0 l 257
 100 242 l 257
 340 484 l 257
EndSplineSet
EndChar

StartChar: uniE020
Encoding: 57376 57376 1217
Width: 867
GlyphClass: 2
Flags: HMW
LayerCount: 2
Fore
SplineSet
115 504 m 256
 115 758 290 878 460 878 c 256
 569 878 667 828 747 763 c 257
 644 603 l 257
 596 628 537 651 477 651 c 256
 388 651 319 593 319 507 c 256
 319 440 377 381 487 381 c 256
 555 381 653 399 751 428 c 257
 827 219 l 257
 106 -7 l 257
 40 205 l 257
 241 268 l 257
 173 311 115 402 115 504 c 256
EndSplineSet
EndChar

StartChar: uniE021
Encoding: 57377 57377 1218
Width: 590
GlyphClass: 2
Flags: HMW
LayerCount: 2
Fore
SplineSet
508 1835 m 1
 649 1759 l 1
 598 1607 521 1527 426 1527 c 0
 386 1527 342 1542 296 1569 c 0
 246 1599 218 1610 193 1610 c 0
 149 1610 120 1584 78 1508 c 1
 -60 1597 l 1
 1 1743 78 1818 171 1818 c 0
 210 1818 252 1804 296 1777 c 0
 352 1742 384 1727 408 1727 c 0
 446 1727 469 1752 508 1835 c 1
480 1345 m 257
 480 0 l 257
 110 0 l 257
 110 1345 l 257
 480 1345 l 257
EndSplineSet
EndChar

StartChar: uniE022
Encoding: 57378 57378 1219
Width: 590
GlyphClass: 2
Flags: HMW
LayerCount: 2
Fore
SplineSet
480 0 m 257
 110 0 l 257
 110 1505 l 257
 480 1505 l 257
 480 0 l 257
EndSplineSet
EndChar

StartChar: uniE023
Encoding: 57379 57379 1220
Width: 1497
GlyphClass: 2
Flags: HMW
LayerCount: 2
Fore
SplineSet
497 1153 m 0
 598 1153 687 1126 939 1017 c 0
 1160 922 1273 881 1397 853 c 1
 1397 461 l 1
 795 384 399 177 399 -59 c 0
 399 -216 573 -311 859 -311 c 0
 1017 -311 1191 -282 1359 -227 c 1
 1484 -571 l 1
 1268 -661 1044 -708 832 -708 c 0
 354 -708 40 -470 40 -107 c 0
 40 228 308 495 820 670 c 1
 798 679 772 690 739 704 c 0
 610 759 556 776 511 776 c 0
 429 776 377 719 360 609 c 2
 358 596 l 1
 87 646 l 1
 89 659 l 2
 142 1005 264 1153 497 1153 c 0
EndSplineSet
EndChar

StartChar: uniE024
Encoding: 57380 57380 1221
Width: 1036
GlyphClass: 2
Flags: HMW
LayerCount: 2
Fore
SplineSet
996 469 m 256
 996 176 772 -5 408 -5 c 256
 294 -5 165 13 30 47 c 257
 117 415 l 257
 224 394 314 384 394 384 c 256
 544 384 631 419 631 481 c 256
 631 561 483 754 298 915 c 257
 544 1207 l 257
 852 938 996 704 996 469 c 256
EndSplineSet
EndChar

StartChar: uniE025
Encoding: 57381 57381 1222
Width: 668
GlyphClass: 2
Flags: HMW
LayerCount: 2
Fore
SplineSet
131 722 m 257
 479 842 l 257
 552 613 608 389 608 206 c 256
 608 -174 393 -420 -80 -597 c 257
 -250 -249 l 257
 81 -131 244 -13 244 206 c 256
 244 329 191 542 131 722 c 257
EndSplineSet
EndChar

StartChar: uniE026
Encoding: 57382 57382 1223
Width: 2630
GlyphClass: 2
Flags: HMW
LayerCount: 2
Fore
SplineSet
1663 0 m 0
 1626 0 1585 8 1538 23 c 1
 1462 -286 1194 -471 801 -471 c 0
 295 -471 50 -250 50 207 c 0
 50 349 72 513 117 700 c 1
 467 620 l 1
 422 408 408 314 408 230 c 0
 408 15 526 -80 791 -80 c 0
 1066 -80 1199 3 1199 176 c 0
 1199 282 1160 409 1046 667 c 1
 1391 833 l 1
 1512 506 l 2
 1543 422 1565 390 1623 390 c 0
 1691 390 1716 421 1722 507 c 2
 1737 731 l 1
 2054 711 l 1
 2039 474 l 2
 2036 422 2072 390 2132 390 c 0
 2193 390 2224 422 2224 485 c 0
 2224 515 2206 658 2186 779 c 1
 2545 864 l 1
 2574 723 2590 591 2590 490 c 0
 2590 159 2464 0 2204 0 c 0
 2042 0 1951 55 1889 190 c 1
 1857 70 1775 0 1663 0 c 0
EndSplineSet
EndChar

StartChar: uniE027
Encoding: 57383 57383 1224
Width: 2591
GlyphClass: 2
Flags: HMW
LayerCount: 2
Fore
SplineSet
2099 595 m 0
 1994 595 1869 523 1792 417 c 1
 1839 400 1899 390 1960 390 c 0
 2106 390 2212 439 2212 507 c 0
 2212 559 2166 595 2099 595 c 0
2160 976 m 0
 2388 976 2551 779 2551 502 c 0
 2551 209 2306 0 1964 0 c 0
 1804 0 1666 40 1555 119 c 1
 1514 -247 1233 -471 801 -471 c 0
 295 -471 50 -250 50 207 c 0
 50 349 72 513 117 700 c 1
 467 620 l 1
 422 408 408 314 408 230 c 0
 408 15 526 -80 791 -80 c 0
 1066 -80 1199 3 1199 176 c 0
 1199 282 1160 409 1046 667 c 1
 1391 833 l 1
 1443 718 1484 607 1512 506 c 1
 1704 811 1930 976 2160 976 c 0
EndSplineSet
EndChar

StartChar: uniE028
Encoding: 57384 57384 1225
Width: 1575
GlyphClass: 2
Flags: HMW
LayerCount: 2
Fore
SplineSet
722 390 m 257
 950 390 l 258
 1117 390 1196 435 1196 502 c 256
 1196 544 1155 595 1076 595 c 256
 954 595 834 492 722 390 c 257
315 390 m 257
 318 393 320 395 323 398 c 257
 323 1505 l 257
 694 1505 l 257
 694 976 l 258
 694 870 678 788 658 712 c 257
 812 876 977 976 1140 976 c 256
 1367 976 1535 801 1535 524 c 256
 1535 185 1283 0 857 0 c 258
 40 0 l 257
 40 390 l 257
 315 390 l 257
EndSplineSet
EndChar

StartChar: uniE029
Encoding: 57385 57385 1226
Width: 1236
GlyphClass: 2
Flags: HMW
LayerCount: 2
Fore
SplineSet
1100 1198 m 1
 937 899 l 1
 846 940 768 961 703 961 c 0
 591 961 507 898 507 815 c 0
 507 720 616 675 844 675 c 0
 922 675 1019 680 1120 690 c 1
 1120 322 l 1
 694 300 399 137 399 -76 c 0
 399 -227 547 -311 812 -311 c 0
 949 -311 1104 -289 1236 -250 c 1
 1361 -599 l 1
 1179 -671 986 -708 796 -708 c 0
 333 -708 40 -486 40 -135 c 0
 40 90 160 286 385 430 c 1
 228 520 160 629 160 792 c 0
 160 1098 399 1342 698 1342 c 0
 832 1342 970 1293 1100 1198 c 1
EndSplineSet
EndChar

StartChar: uniE02A
Encoding: 57386 57386 1227
Width: 862
GlyphClass: 2
Flags: HMW
LayerCount: 2
Back
SplineSet
0 390 m 265
 2910 390 l 257
 2910 0 l 257
 0 0 l 273
 -31 0 -50 38 -50 196 c 256
 -50 354 -31 390 0 390 c 265
EndSplineSet
Fore
SplineSet
0 390 m 257
 862 390 l 257
 862 0 l 257
 0 0 l 257
 -31 0 -50 38 -50 196 c 256
 -50 354 -31 390 0 390 c 257
EndSplineSet
Colour: ffff
EndChar

StartChar: uniE02B
Encoding: 57387 57387 1228
Width: 1738
GlyphClass: 2
Flags: HMW
LayerCount: 2
Fore
SplineSet
808 390 m 256
 1154 390 1267 433 1267 666 c 258
 1267 1496 l 257
 1638 1496 l 257
 1638 666 l 258
 1638 193 1337 0 787 0 c 256
 281 0 40 162 40 546 c 256
 40 645 60 772 84 880 c 257
 420 807 l 257
 406 728 390 617 390 569 c 256
 390 430 475 390 808 390 c 256
EndSplineSet
EndChar

StartChar: uniE02C
Encoding: 57388 57388 1229
Width: 1443
GlyphClass: 2
Flags: HMW
LayerCount: 2
Fore
SplineSet
690 -149 m 0
 910 -149 1012 -51 1012 160 c 2
 1012 1505 l 1
 1383 1505 l 1
 1383 130 l 2
 1383 -274 1096 -540 661 -540 c 0
 261 -540 40 -314 40 95 c 0
 40 209 57 350 90 511 c 1
 433 420 l 1
 401 268 390 189 390 124 c 0
 390 -64 484 -149 690 -149 c 0
EndSplineSet
EndChar

StartChar: uniE02D
Encoding: 57389 57389 1230
Width: 1350
GlyphClass: 2
Flags: HMW
LayerCount: 2
Fore
SplineSet
840 581 m 256
 780 581 738 526 714 416 c 257
 743 408 775 400 806 393 c 256
 843 385 871 381 892 381 c 256
 920 381 940 399 940 423 c 256
 940 525 904 581 840 581 c 256
851 964 m 256
 1106 964 1280 742 1280 414 c 256
 1280 142 1150 -11 920 -11 c 256
 852 -11 765 2 608 37 c 256
 542 52 497 59 469 59 c 256
 437 59 411 39 411 14 c 258
 411 -655 l 257
 40 -655 l 257
 40 60 l 258
 40 305 181 475 385 475 c 257
 444 781 618 964 851 964 c 256
EndSplineSet
EndChar

StartChar: uniE02E
Encoding: 57390 57390 1231
Width: 970
GlyphClass: 2
Flags: HMW
LayerCount: 2
Fore
SplineSet
477 380 m 256
 556 380 577 420 577 451 c 256
 577 494 551 563 477 631 c 257
 403 563 375 491 375 451 c 256
 375 421 395 380 477 380 c 256
477 -11 m 256
 195 -11 40 157 40 365 c 256
 40 552 136 703 273 849 c 257
 244 877 206 913 171 943 c 257
 399 1214 l 257
 618 1035 930 743 930 400 c 256
 930 166 743 -11 477 -11 c 256
EndSplineSet
EndChar

StartChar: uniE02F
Encoding: 57391 57391 1232
Width: 969
GlyphClass: 2
Flags: HMW
LayerCount: 2
Fore
SplineSet
552 6 m 257
 515 2 469 0 430 0 c 256
 189 0 60 141 60 390 c 256
 60 687 194 963 469 963 c 256
 790 963 929 616 929 204 c 256
 929 -180 699 -428 219 -598 c 257
 49 -248 l 257
 257 -183 467 -82 552 6 c 257
578 392 m 257
 572 529 525 577 459 577 c 256
 404 577 359 537 359 458 c 0
 359 415 384 384 447 384 c 256
 488 384 531 387 578 392 c 257
EndSplineSet
EndChar

StartChar: uniE030
Encoding: 57392 57392 1233
Width: 0
GlyphClass: 2
Flags: HMW
LayerCount: 2
Fore
SplineSet
60 1501 m 256
 28 1501 -14 1468 -14 1443 c 256
 -14 1417 12 1393 66 1372 c 257
 86 1392 96 1419 96 1456 c 256
 96 1482 81 1501 60 1501 c 256
84 1649 m 256
 180 1649 244 1579 244 1465 c 256
 244 1298 55 1133 -217 1063 c 257
 -260 1177 -307 1239 -391 1287 c 257
 -309 1414 l 257
 -237 1377 -180 1325 -131 1251 c 257
 -109 1259 -77 1274 -54 1285 c 257
 -113 1316 -144 1376 -144 1443 c 256
 -144 1552 -36 1649 84 1649 c 256
EndSplineSet
EndChar

StartChar: uniE031
Encoding: 57393 57393 1234
Width: 0
GlyphClass: 2
Flags: HMW
LayerCount: 2
Fore
SplineSet
211 1380 m 257
 255 1234 l 257
 -211 1084 l 257
 -255 1232 l 257
 211 1380 l 257
EndSplineSet
EndChar

StartChar: uniE032
Encoding: 57394 57394 1235
Width: 0
GlyphClass: 2
Flags: HMW
LayerCount: 2
Fore
SplineSet
60 1501 m 256
 28 1501 -14 1468 -14 1443 c 256
 -14 1417 13 1393 66 1372 c 257
 86 1392 96 1420 96 1456 c 256
 96 1482 81 1501 60 1501 c 256
84 1649 m 256
 180 1649 244 1579 244 1465 c 256
 244 1299 57 1135 -210 1065 c 257
 -249 1210 l 257
 -200 1222 -126 1251 -54 1286 c 257
 -113 1316 -144 1375 -144 1443 c 256
 -144 1552 -36 1649 84 1649 c 256
EndSplineSet
EndChar

StartChar: uniE033
Encoding: 57395 57395 1236
Width: 0
GlyphClass: 2
Flags: HMW
LayerCount: 2
Fore
SplineSet
-15 1157 m 257
 -33 1113 -75 1084 -129 1084 c 256
 -222 1084 -282 1156 -282 1265 c 256
 -282 1338 -270 1383 -248 1448 c 257
 -129 1410 l 257
 -141 1377 -153 1320 -153 1284 c 256
 -153 1251 -139 1238 -114 1238 c 256
 -84 1238 -66 1263 -66 1323 c 258
 -66 1373 l 257
 46 1373 l 257
 46 1323 l 258
 46 1263 65 1238 95 1238 c 256
 120 1238 133 1251 133 1284 c 256
 133 1320 121 1377 109 1410 c 257
 228 1448 l 257
 250 1383 262 1338 262 1265 c 256
 262 1156 202 1084 109 1084 c 256
 55 1084 13 1113 -5 1157 c 257
 -15 1157 l 257
EndSplineSet
EndChar

StartChar: uniE034
Encoding: 57396 57396 1237
Width: 0
GlyphClass: 2
Flags: HMW
LayerCount: 2
Fore
SplineSet
0 1313 m 256
 -34 1313 -56 1294 -56 1266 c 256
 -56 1237 -32 1216 0 1216 c 256
 31 1216 56 1238 56 1266 c 256
 56 1293 33 1313 0 1313 c 256
0 1445 m 256
 104 1445 182 1369 182 1266 c 256
 182 1162 104 1084 0 1084 c 256
 -104 1084 -182 1162 -182 1266 c 256
 -182 1369 -104 1445 0 1445 c 256
EndSplineSet
EndChar

StartChar: uniE035
Encoding: 57397 57397 1238
Width: 0
GlyphClass: 2
Flags: HMW
LayerCount: 2
Fore
SplineSet
-310 1140 m 1
 -257 1251 -189 1307 -109 1307 c 0
 -75 1307 -38 1297 0 1276 c 0
 44 1252 74 1239 97 1239 c 0
 131 1239 151 1266 184 1327 c 1
 307 1263 l 1
 263 1147 196 1087 113 1087 c 0
 78 1087 40 1098 0 1119 c 0
 -38 1139 -66 1150 -90 1150 c 0
 -127 1150 -153 1124 -190 1066 c 1
 -310 1140 l 1
EndSplineSet
EndChar

StartChar: uniE036
Encoding: 57398 57398 1239
Width: 0
GlyphClass: 2
Flags: HMW
LayerCount: 2
Fore
SplineSet
159 1619 m 257
 122 1482 l 257
 100 1489 79 1492 60 1492 c 256
 0 1492 -44 1456 -44 1408 c 256
 -44 1365 -9 1335 42 1335 c 256
 60 1335 80 1338 101 1345 c 258
 211 1380 l 257
 255 1234 l 257
 -211 1084 l 257
 -255 1232 l 257
 -120 1276 l 257
 -160 1317 -180 1365 -180 1418 c 256
 -180 1546 -85 1635 51 1635 c 256
 82 1635 117 1630 159 1619 c 257
EndSplineSet
EndChar

StartChar: uniE037
Encoding: 57399 57399 1240
Width: 0
GlyphClass: 2
Flags: HMW
LayerCount: 2
Fore
SplineSet
67 1084 m 257
 -67 1084 l 257
 -277 1365 l 257
 -155 1457 l 257
 0 1239 l 257
 155 1457 l 257
 277 1365 l 257
 67 1084 l 257
EndSplineSet
EndChar

StartChar: uniE038
Encoding: 57400 57400 1241
Width: 1824
GlyphClass: 2
Flags: HMW
LayerCount: 2
Fore
SplineSet
1732 938 m 257
 1762 810 1784 669 1784 565 c 256
 1784 150 1536 0 912 0 c 256
 288 0 40 150 40 565 c 256
 40 670 63 810 93 938 c 257
 421 867 l 257
 406 783 390 671 390 612 c 256
 390 416 514 390 912 390 c 256
 1310 390 1434 416 1434 612 c 256
 1434 671 1419 783 1404 867 c 257
 1732 938 l 257
EndSplineSet
EndChar

StartChar: uniE039
Encoding: 57401 57401 1242
Width: 1587
GlyphClass: 2
Flags: HMW
LayerCount: 2
Fore
SplineSet
1196 438 m 257
 1190 575 1143 623 1077 623 c 256
 1022 623 977 583 977 504 c 0
 977 461 1002 430 1065 430 c 256
 1106 430 1149 433 1196 438 c 257
1087 1009 m 256
 1407.88964844 1009 1547 662.223632812 1547 250 c 256
 1547 -223 1245 -495 777 -495 c 256
 306 -495 43 -287 43 136 c 256
 43 256 62 416 104 659 c 257
 463 588 l 257
 428 394 414 272 414 171 c 256
 414 -19 554 -103 788 -103 c 256
 988 -103 1140 -29 1163 52 c 257
 1126 49 1086.84960938 46 1048 46 c 257
 807 46 678 187 678 436 c 256
 678 733 812 1009 1087 1009 c 256
EndSplineSet
EndChar

StartChar: uniE03A
Encoding: 57402 57402 1243
Width: 0
GlyphClass: 2
Flags: HMW
LayerCount: 2
Fore
SplineSet
-89 1471 m 257
 89 1471 l 257
 89 1051 l 257
 -89 1051 l 257
 -89 1471 l 257
EndSplineSet
EndChar

StartChar: uniE03B
Encoding: 57403 57403 1244
Width: 1857
GlyphClass: 2
Flags: HMW
LayerCount: 2
Fore
SplineSet
1485 516 m 257
 1411 497 1343 487 1277 487 c 256
 1029 487 915 594 915 828 c 256
 915 1182 1073 1403 1326 1403 c 256
 1620 1403 1807 1090 1807 598 c 256
 1807 159 1568 0 907 0 c 256
 286 0 40 157 40 552 c 256
 40 644 57 779 84 910 c 257
 420 837 l 257
 401 728 390 636 390 594 c 256
 390 435 511 390 939 390 c 256
 1413 390 1492 408 1485 516 c 257
1427 828 m 257
 1407 966 1368 1020 1302 1020 c 256
 1243 1020 1208 965 1208 884 c 256
 1208 840 1239 822 1315 822 c 256
 1351 822 1388 824 1427 828 c 257
EndSplineSet
EndChar

StartChar: uniE03C
Encoding: 57404 57404 1245
Width: 1747
GlyphClass: 2
Flags: HMW
LayerCount: 2
Fore
SplineSet
84 910 m 257
 420 837 l 257
 403 742 390 635 390 596 c 256
 390 445 501 390 808 390 c 256
 1100 390 1281 437 1281 513 c 256
 1281 592 1110 736 811 968 c 257
 837 1277 l 257
 1156 1437 1430 1528 1747 1587 c 257
 1797 1200 l 257
 1608 1159 1455 1121 1268 1059 c 257
 1268 1054 l 257
 1564 799 1651 657 1651 482 c 256
 1651 173 1349 0 808 0 c 256
 275 0 40 169 40 553 c 256
 40 641 57 775 84 910 c 257
EndSplineSet
EndChar

StartChar: uniE03D
Encoding: 57405 57405 1246
Width: 1666
GlyphClass: 2
Flags: HMW
LayerCount: 2
Fore
SplineSet
1106 667 m 1
 1451 833 l 1
 1560 590 1620 369 1620 213 c 0
 1620 -223 1317 -495 831 -495 c 0
 305 -495 50 -266 50 207 c 0
 50 349 72 513 117 700 c 1
 467 620 l 1
 422 408 408 314 408 230 c 0
 408 -2 535 -104 821 -104 c 0
 1116 -104 1259 -13 1259 176 c 0
 1259 282 1220 409 1106 667 c 1
EndSplineSet
EndChar

StartChar: uniE03E
Encoding: 57406 57406 1247
Width: 1627
GlyphClass: 2
Flags: HMW
LayerCount: 2
Fore
SplineSet
1524 1050 m 1
 1428 699 l 1
 1373 713 1313 721 1252 721 c 0
 1079 721 955 647.087912088 955 544 c 0
 955 483.555555556 1036 471.277777778 1117 459 c 2
 1286 434 l 2
 1478 406 1571 299 1571 106 c 0
 1571 -285 1308 -489 805 -489 c 0
 298 -489 61 -270 61 198 c 0
 61 324 74 469 98 618 c 1
 454 558 l 1
 428 398 419 304 419 202 c 0
 419 -20 535 -100 854 -100 c 0
 1068 -100 1220 -52 1220 16 c 0
 1220 48 1177 73 1103 83 c 2
 944 104 l 2
 731 133.592391304 623 255.907608696 623 467 c 0
 623 835.06022187 878 1093 1244 1093 c 0
 1332 1093 1415 1080 1524 1050 c 1
EndSplineSet
EndChar

StartChar: uniE03F
Encoding: 57407 57407 1248
Width: 1958
GlyphClass: 2
Flags: HMW
LayerCount: 2
Back
SplineSet
1516 244 m 257
 1383 75 1172 0 818 0 c 256
 275 0 40 167 40 553 c 256
 40 643 56 774 84 910 c 257
 420 837 l 257
 404 746 390 636 390 595 c 256
 390 444 499 390 807 390 c 256
 1103 390 1271 434 1271 512 c 256
 1271 589 1108 738 811 968 c 257
 837 1277 l 257
 1157 1437 1431 1528 1747 1587 c 257
 1797 1200 l 257
 1605 1157 1453 1120 1268 1059 c 257
 1268 1054 l 257
 1441 898 1502 822 1600 660 c 256
 1731 439 1817 390 1957 390 c 258
 4006 390 l 257
 4006 0 l 257
 1957 0 l 258
 1772 0 1655 70 1526 244 c 257
 1516 244 l 257
EndSplineSet
Fore
SplineSet
1516 244 m 257
 1383 75 1172 0 818 0 c 256
 275 0 40 167 40 553 c 256
 40 643 56 774 84 910 c 257
 420 837 l 257
 404 746 390 636 390 595 c 256
 390 444 499 390 807 390 c 256
 1103 390 1271 434 1271 512 c 256
 1271 589 1108 738 811 968 c 257
 837 1277 l 257
 1157 1437 1431 1528 1747 1587 c 257
 1797 1200 l 257
 1605 1157 1453 1120 1268 1059 c 257
 1268 1054 l 257
 1441 898 1502 822 1600 660 c 256
 1731 439 1817 390 1957 390 c 258
 1958 390 l 257
 1958 0 l 257
 1957 0 l 258
 1772 1 1655 70 1526 244 c 257
 1516 244 l 257
EndSplineSet
Colour: ffff
EndChar

StartChar: uniE040
Encoding: 57408 57408 1249
Width: 1818
GlyphClass: 2
Flags: HMW
LayerCount: 2
Back
SplineSet
117 700 m 1
 467 620 l 1
 423 412 408 316 408 230 c 0
 408 -2 535.076923077 -104 821 -104 c 0
 1116 -104 1259 -13 1259 176 c 0
 1259 282 1220 408 1106 667 c 1
 1451 833 l 1
 1563 543 l 2
 1611 419 1656 390 1798 390 c 2
 3866 390 l 1
 3866 0 l 1
 1812 0 l 2
 1740 0 1682 28 1614 96 c 1
 1554 -276 1263 -495 831 -495 c 0
 305.020408163 -495 50 -266 50 207 c 0
 50 348 72 512 117 700 c 1
EndSplineSet
Fore
SplineSet
117 700 m 1
 467 620 l 1
 423 412 408 316 408 230 c 0
 408 -2 535.076923077 -104 821 -104 c 0
 1116 -104 1259 -13 1259 176 c 0
 1259 282 1220 408 1106 667 c 1
 1451 833 l 1
 1563 543 l 2
 1611 419 1656 390 1798 390 c 2
 1818 390 l 1
 1818 0 l 1
 1812 0 l 2
 1740 0 1682 28 1614 96 c 1
 1554 -276 1263 -495 831 -495 c 0
 305.020408163 -495 50 -266 50 207 c 0
 50 348 72 512 117 700 c 1
EndSplineSet
Colour: ffff
EndChar

StartChar: uniE041
Encoding: 57409 57409 1250
Width: 619
GlyphClass: 2
Flags: HMW
LayerCount: 2
Fore
SplineSet
514 925 m 257
 556 752.062360802 579 602.055679287 579 496 c 256
 579 171 390 0 31 0 c 258
 0 0 l 258
 -33 0 -50 67 -50 196 c 256
 -50 326 -33 390 -0 390 c 258
 31 390 l 258
 154 390 216 444 216 549 c 256
 216 595.666666667 197 698.333333333 165 829 c 257
 514 925 l 257
EndSplineSet
EndChar

StartChar: uniE042
Encoding: 57410 57410 1251
Width: 815
GlyphClass: 2
Flags: HMW
LayerCount: 2
Back
SplineSet
595 581 m 2
 595 412 618 390 793 390 c 2
 2863 390 l 1
 2863 0 l 1
 791 0 l 2
 618 0 471 69 409 179 c 1
 348 72 196 0 31 0 c 2
 0 0 l 2
 -36 0 -50 56 -50 196 c 0
 -50 335 -36 390 0 390 c 2
 31 390 l 2
 200 390 225 415 225 581 c 2
 225 784 l 1
 595 784 l 1
 595 581 l 2
EndSplineSet
Fore
SplineSet
595 581 m 258
 595 412 618 390 793 390 c 258
 815 390 l 257
 815 0 l 257
 791 0 l 258
 618 0 471 69 409 179 c 257
 348 72 196 0 31 0 c 258
 0 0 l 258
 -36 0 -50 56 -50 196 c 256
 -50 335 -36 390 0 390 c 258
 31 390 l 258
 200 390 225 415 225 581 c 258
 225 784 l 257
 595 784 l 257
 595 581 l 258
EndSplineSet
Colour: ffff
EndChar

StartChar: uniE043
Encoding: 57411 57411 1252
Width: 1555
GlyphClass: 2
Flags: HMW
LayerCount: 2
Back
SplineSet
1377 -10 m 17
 1439 -91 1465 -155 1465 -223 c 0
 1465 -478 1086 -631 788 -631 c 0
 287 -631 43 -419 43 16 c 0
 43 190 61 393 96 599 c 1
 436 534 l 1
 404 351 387 183 387 48 c 0
 387 -154 506 -238 793 -238 c 0
 1011 -238 1153 -187 1153 -123 c 0
 1153 -73 1060 -46 731 -1 c 1
 788 390 l 1
 3603 390 l 1
 3603 0 l 1
 1377 0 l 17
 1377 -10 l 17
EndSplineSet
Fore
SplineSet
1377 -10 m 17
 1439 -91 1465 -155 1465 -223 c 0
 1465 -478 1086 -631 788 -631 c 0
 287 -631 43 -419 43 16 c 0
 43 190 61 393 96 599 c 1
 436 534 l 1
 404 351 387 183 387 48 c 0
 387 -154 506 -238 793 -238 c 0
 1011 -238 1153 -187 1153 -123 c 0
 1153 -73 1060 -46 731 -1 c 1
 788 390 l 1
 1555 390 l 1
 1555 0 l 1
 1377 0 l 17
 1377 -10 l 17
EndSplineSet
Colour: ffff
EndChar

StartChar: uniE044
Encoding: 57412 57412 1253
Width: 670
GlyphClass: 2
Flags: HMW
LayerCount: 2
Back
SplineSet
100 1505 m 257
 471 1505 l 257
 471 540 l 258
 471 427 526 390 669 390 c 258
 2718 390 l 257
 2718 0 l 257
 669 0 l 258
 318 0 100 182 100 532 c 258
 100 1505 l 257
EndSplineSet
Fore
SplineSet
100 1505 m 257
 471 1505 l 257
 471 540 l 258
 471 427 526 390 669 390 c 258
 670 390 l 257
 670 0 l 257
 669 0 l 258
 318 0 100 182 100 532 c 258
 100 1505 l 257
EndSplineSet
Colour: ffff
EndChar

StartChar: uniE045
Encoding: 57413 57413 1254
Width: 1518
GlyphClass: 2
Flags: HMW
LayerCount: 2
Back
SplineSet
497 1153 m 0
 598 1153 687 1125 939 1017 c 0
 1160 922 1273 881 1397 853 c 1
 1397 461 l 1
 1350 455 1305 448 1261 441 c 1
 1310 401 1380 390 1449 390 c 2
 3566 390 l 1
 3566 0 l 1
 1517 0 l 2
 1251 0 1097 125 1050 397 c 1
 648 297 399 128 399 -59 c 0
 399 -216 573 -311 859 -311 c 0
 1017 -311 1191 -282 1359 -227 c 1
 1484 -571 l 1
 1268 -661 1044 -708 832 -708 c 0
 354 -708 40 -470 40 -107 c 0
 40 228 308 495 820 670 c 1
 798 679 772 690 739 704 c 0
 610 759 556 776 511 776 c 0
 429 776 377 719 360 609 c 2
 358 596 l 1
 87 646 l 1
 89 659 l 2
 142 1005 264 1153 497 1153 c 0
EndSplineSet
Fore
SplineSet
497 1153 m 0
 598 1153 687 1125 939 1017 c 0
 1160 922 1273 881 1397 853 c 1
 1397 461 l 1
 1350 455 1305 448 1261 441 c 1
 1310 401 1380 390 1449 390 c 2
 1518 390 l 1
 1518 0 l 1
 1517 0 l 2
 1251 0 1097 125 1050 397 c 1
 648 297 399 128 399 -59 c 0
 399 -216 573 -311 859 -311 c 0
 1017 -311 1191 -282 1359 -227 c 1
 1484 -571 l 1
 1268 -661 1044 -708 832 -708 c 0
 354 -708 40 -470 40 -107 c 0
 40 228 308 495 820 670 c 1
 798 679 772 690 739 704 c 0
 610 759 556 776 511 776 c 0
 429 776 377 719 360 609 c 2
 358 596 l 1
 87 646 l 1
 89 659 l 2
 142 1005 264 1153 497 1153 c 0
EndSplineSet
Colour: ffff
EndChar

StartChar: uniE046
Encoding: 57414 57414 1255
Width: 1399
GlyphClass: 2
Flags: HMW
LayerCount: 2
Fore
SplineSet
476 1100 m 256
 560 1100 664 1070 850 990 c 256
 1033 912 1200 856 1359 820 c 257
 1359 522 l 257
 842 204 l 258
 630 74 436 0 183 0 c 258
 0 0 l 258
 -36 0 -50 55 -50 196 c 256
 -50 335 -36 390 0 390 c 258
 261 390 l 258
 432 390 534 433 690 509 c 258
 901 611 l 257
 812 634 733 658 676 679 c 256
 598 709 542 723 496 723 c 256
 411 723 359 666 342 556 c 258
 340 543 l 257
 69 593 l 257
 71 606 l 258
 125 957 242 1100 476 1100 c 256
EndSplineSet
EndChar

StartChar: uniE047
Encoding: 57415 57415 1256
Width: 1449
GlyphClass: 2
Flags: HMW
LayerCount: 2
Back
SplineSet
476 1100 m 0
 560 1100 664 1070 850 990 c 0
 1033 912 1200 856 1359 820 c 1
 1359 522 l 1
 1187 416 l 1
 1253 395 1374 390 1448 390 c 2
 3497 390 l 1
 3497 0 l 1
 1448 0 l 2
 1243 0 1071 83 943 266 c 1
 842 204 l 2
 630 74 436 0 183 0 c 2
 0 0 l 2
 -36 0 -50 55 -50 196 c 0
 -50 335 -36 390 0 390 c 2
 261 390 l 2
 432 390 534 433 690 509 c 2
 901 611 l 1
 812 634 733 658 676 679 c 0
 598 709 542 723 496 723 c 0
 411 723 359 666 342 556 c 2
 340 543 l 1
 69 593 l 1
 71 606 l 2
 125 957 242 1100 476 1100 c 0
EndSplineSet
Fore
SplineSet
476 1100 m 0
 560 1100 664 1070 850 990 c 0
 1033 912 1200 856 1359 820 c 1
 1359 522 l 1
 1187 416 l 1
 1253 395 1374 390 1448 390 c 2
 1449 390 l 1
 1449 0 l 1
 1448 0 l 2
 1243 0 1071 83 943 266 c 1
 842 204 l 2
 630 74 436 0 183 0 c 2
 0 0 l 2
 -36 0 -50 55 -50 196 c 0
 -50 335 -36 390 0 390 c 2
 261 390 l 2
 432 390 534 433 690 509 c 2
 901 611 l 1
 812 634 733 658 676 679 c 0
 598 709 542 723 496 723 c 0
 411 723 359 666 342 556 c 2
 340 543 l 1
 69 593 l 1
 71 606 l 2
 125 957 242 1100 476 1100 c 0
EndSplineSet
Colour: ffff
EndChar

StartChar: uniE048
Encoding: 57416 57416 1257
Width: 1317
GlyphClass: 2
Flags: HMW
LayerCount: 2
Back
SplineSet
831 1190 m 1
 1085 594 l 2
 1160 417 1191 390 1316 390 c 2
 3365 390 l 1
 3365 0 l 1
 1316 0 l 2
 1127 0 1023 52 919 200 c 1
 837 67 671 -10 466 -10 c 0
 314 -10 163 42 30 139 c 1
 191 447 l 1
 282 404 377 380 458 380 c 0
 568 380 667 409 737 463 c 1
 487 1025 l 1
 831 1190 l 1
EndSplineSet
Fore
SplineSet
831 1190 m 257
 1085 594 l 258
 1160 417 1191 390 1316 390 c 258
 1317 390 l 257
 1317 0 l 257
 1316 0 l 258
 1127 0 1023 52 919 200 c 257
 837 67 671 -10 466 -10 c 256
 314 -10 163 42 30 139 c 257
 191 447 l 257
 282 404 377 380 458 380 c 256
 568 380 667 409 737 463 c 257
 487 1025 l 257
 831 1190 l 257
EndSplineSet
Colour: ffff
EndChar

StartChar: uniE049
Encoding: 57417 57417 1258
Width: 813
GlyphClass: 2
Flags: HMW
LayerCount: 2
Back
SplineSet
131 722 m 1
 479 842 l 1
 553 610 l 2
 611 428 657 390 812 390 c 2
 2861 390 l 1
 2861 0 l 1
 812 0 l 2
 731 0 655 36 603 106 c 1
 567 -218 350 -436 -80 -597 c 1
 -250 -249 l 1
 81 -131 244 -13 244 206 c 0
 244 329 191 542 131 722 c 1
EndSplineSet
Fore
SplineSet
131 722 m 257
 479 842 l 257
 553 610 l 258
 611 428 657 390 812 390 c 258
 813 390 l 257
 813 0 l 257
 812 0 l 258
 731 0 655 36 603 106 c 257
 567 -218 350 -436 -80 -597 c 257
 -250 -249 l 257
 81 -131 244 -13 244 206 c 256
 244 329 191 542 131 722 c 257
EndSplineSet
Colour: ffff
EndChar

StartChar: uniE04A
Encoding: 57418 57418 1259
Width: 2796
GlyphClass: 2
Flags: HMW
LayerCount: 2
Back
SplineSet
2466 195 m 257
 2423.77734375 68 2325.02439024 0 2186 0 c 256
 2042 0 1947.45714286 55 1889 190 c 1
 1857 70 1775 0 1663 0 c 0
 1626 0 1585 8 1538 23 c 1
 1462 -286 1194 -471 801 -471 c 0
 295 -471 50 -250 50 207 c 0
 50 349 72 513 117 700 c 1
 467 620 l 1
 422 408 408 314 408 230 c 0
 408 15 526 -80 791 -80 c 0
 1066 -80 1199 3 1199 176 c 0
 1199 282 1160 409 1046 667 c 1
 1391 833 l 1
 1512 506 l 2
 1543 422 1565 390 1623 390 c 0
 1691 390 1716.23999524 420.98392889 1722 507 c 2
 1737 731 l 1
 2054 711 l 1
 2039 474 l 2
 2035.71002234 422.018353016 2072 390 2132 390 c 256
 2195 390 2227 423 2227 487 c 256
 2227 518 2207 670 2189 781 c 257
 2545 856 l 257
 2568 694 l 258
 2606.20733575 424.887461248 2632 390 2795 390 c 258
 4844 390 l 257
 4844 0 l 257
 2795 0 l 258
 2613 0 2525 57 2476 195 c 257
 2466 195 l 257
EndSplineSet
Fore
SplineSet
2466 195 m 257
 2423.77734375 68 2325.02439024 0 2186 0 c 256
 2042 0 1947.45714286 55 1889 190 c 1
 1857 70 1775 0 1663 0 c 0
 1626 0 1585 8 1538 23 c 1
 1462 -286 1194 -471 801 -471 c 0
 295 -471 50 -250 50 207 c 0
 50 349 72 513 117 700 c 1
 467 620 l 1
 422 408 408 314 408 230 c 0
 408 15 526 -80 791 -80 c 0
 1066 -80 1199 3 1199 176 c 0
 1199 282 1160 409 1046 667 c 1
 1391 833 l 1
 1512 506 l 2
 1543 422 1565 390 1623 390 c 0
 1691 390 1716.23999524 420.98392889 1722 507 c 2
 1737 731 l 1
 2054 711 l 1
 2039 474 l 2
 2035.71002234 422.018353016 2072 390 2132 390 c 256
 2195 390 2227 423 2227 487 c 256
 2227 518 2207 670 2189 781 c 257
 2545 856 l 257
 2568 694 l 258
 2606.20733575 424.887461248 2632 390 2795 390 c 258
 2796 390 l 257
 2796 0 l 257
 2795 0 l 258
 2613 0 2525 57 2476 195 c 257
 2466 195 l 257
EndSplineSet
Colour: ffff
EndChar

StartChar: uniE04B
Encoding: 57419 57419 1260
Width: 1699
GlyphClass: 2
Flags: HMW
LayerCount: 2
Fore
SplineSet
682.141 390.506 m 256
 754.172 390.506 772 434 777.388 500.776 c 258
 795.913 731.315 l 257
 1113.07 710.611 l 257
 1098.4 474.326 l 258
 1096 428 1124.6 390 1191 390 c 256
 1259.6 390 1293 429.313 1293 485 c 256
 1293 524.684 1272.99 677.809 1254.63 788.807 c 257
 1614.22 874.422 l 257
 1639.54 749.251 1659 606.072 1659 490 c 256
 1659 150.725 1516.7 -2.98066e-14 1263 0 c 256
 1074.5 0 1005.65 78.5363 951.056 185.69 c 257
 899.328 61.9927 822.914 0 660 0 c 256
 488.371 0 414.818 71.5684 365.101 176.883 c 257
 294.721 69.6885 190 0 31 0 c 258
 0 0 l 258
 -35 0 -50 60 -50 200 c 256
 -50 336 -36 390 0 390 c 258
 31 390 l 258
 156 390 199.782 437.783 208.044 535.082 c 258
 228.894 789.244 l 257
 599.096 762.665 l 257
 577.073 479.086 l 258
 573 433 611.936 390.506 682.141 390.506 c 256
EndSplineSet
EndChar

StartChar: uniE04C
Encoding: 57420 57420 1261
Width: 1865
GlyphClass: 2
Flags: HMW
LayerCount: 2
Back
SplineSet
1535 195 m 257
 1494.74023438 74.2705078125 1413.11 0 1255 0 c 256
 1074.09519125 2.21489493413e-14 1004.24990255 78.5363 951.056 185.69 c 257
 899.328 61.9927 822.914 0 660 0 c 256
 488.371 0 414.818 71.5684 365.101 176.883 c 257
 294.721 69.6885 190 -1.94712410258e-14 31 0 c 258
 0 0 l 258
 -35 0 -50 60 -50 200 c 256
 -50 336 -36 390 0 390 c 258
 31 390 l 258
 156 390 200.060272646 437.7601721 208.044 535.082 c 258
 228.894 789.244 l 257
 599.096 762.665 l 257
 577.073 479.086 l 258
 573.490958743 432.961871703 611.936 390.506 682.141 390.506 c 256
 754.172 390.506 772.022060877 433.998227294 777.388 500.776 c 258
 795.913 731.315 l 257
 1113.07 710.611 l 257
 1098.4 474.326 l 258
 1095.52563064 428.029451715 1124.6 390 1191 390 c 256
 1261 390 1296 430 1296 487 c 256
 1296 517 1277 666 1258 781 c 257
 1614 856 l 257
 1637 694 l 258
 1674.07421656 432.868561611 1705 390 1864 390 c 258
 3913 390 l 257
 3913 0 l 257
 1864 0 l 258
 1663 0 1588 73 1545 195 c 257
 1535 195 l 257
EndSplineSet
Fore
SplineSet
1535 195 m 257
 1494.74023438 74.2705078125 1413.11 0 1255 0 c 256
 1074.09519125 2.21489493413e-14 1004.24990255 78.5363 951.056 185.69 c 257
 899.328 61.9927 822.914 0 660 0 c 256
 488.371 0 414.818 71.5684 365.101 176.883 c 257
 294.721 69.6885 190 -1.94712410258e-14 31 0 c 258
 0 0 l 258
 -35 0 -50 60 -50 200 c 256
 -50 336 -36 390 0 390 c 258
 31 390 l 258
 156 390 200.060272646 437.7601721 208.044 535.082 c 258
 228.894 789.244 l 257
 599.096 762.665 l 257
 577.073 479.086 l 258
 573.490958743 432.961871703 611.936 390.506 682.141 390.506 c 256
 754.172 390.506 772.022060877 433.998227294 777.388 500.776 c 258
 795.913 731.315 l 257
 1113.07 710.611 l 257
 1098.4 474.326 l 258
 1095.52563064 428.029451715 1124.6 390 1191 390 c 256
 1261 390 1296 430 1296 487 c 256
 1296 517 1277 666 1258 781 c 257
 1614 856 l 257
 1637 694 l 258
 1674.07421656 432.868561611 1705 390 1864 390 c 258
 1865 390 l 257
 1865 0 l 257
 1864 0 l 258
 1663 0 1588 73 1545 195 c 257
 1535 195 l 257
EndSplineSet
Colour: ffff
EndChar

StartChar: uniE04D
Encoding: 57421 57421 1262
Width: 2624
GlyphClass: 2
Flags: HMW
LayerCount: 2
Back
SplineSet
2099 595 m 0
 1994 595 1869 523 1792 417 c 1
 1839 400 1899 390 1960 390 c 0
 2106 390 2212 439 2212 507 c 0
 2212 559 2166 595 2099 595 c 0
2160 976 m 0
 2388 976 2551 779 2551 502 c 0
 2551 463 2546 426 2538 390 c 1
 2565 390 2594 390 2623 390 c 2
 4672 390 l 1
 4672 0 l 1
 2623 0 l 2
 2509 0 2433 35 2360 121 c 1
 2258 45 2121 0 1964 0 c 0
 1804 0 1666 40 1555 119 c 1
 1514 -247 1233 -471 801 -471 c 0
 295 -471 50 -250 50 207 c 0
 50 349 72 513 117 700 c 1
 467 620 l 1
 422 408 408 314 408 230 c 0
 408 15 526 -80 791 -80 c 0
 1066 -80 1199 3 1199 176 c 0
 1199 282 1160 409 1046 667 c 1
 1391 833 l 1
 1443 718 1484 607 1512 506 c 1
 1704 811 1930 976 2160 976 c 0
EndSplineSet
Fore
SplineSet
2099 595 m 0
 1994 595 1869 523 1792 417 c 1
 1839 400 1899 390 1960 390 c 0
 2106 390 2212 439 2212 507 c 0
 2212 559 2166 595 2099 595 c 0
2160 976 m 0
 2388 976 2551 779 2551 502 c 0
 2551 463 2546 426 2538 390 c 1
 2565 390 2594 390 2623 390 c 2
 2624 390 l 1
 2624 0 l 1
 2623 0 l 2
 2509 0 2433 35 2360 121 c 1
 2258 45 2121 0 1964 0 c 0
 1804 0 1666 40 1555 119 c 1
 1514 -247 1233 -471 801 -471 c 0
 295 -471 50 -250 50 207 c 0
 50 349 72 513 117 700 c 1
 467 620 l 1
 422 408 408 314 408 230 c 0
 408 15 526 -80 791 -80 c 0
 1066 -80 1199 3 1199 176 c 0
 1199 282 1160 409 1046 667 c 1
 1391 833 l 1
 1443 718 1484 607 1512 506 c 1
 1704 811 1930 976 2160 976 c 0
EndSplineSet
Colour: ffff
EndChar

StartChar: uniE04E
Encoding: 57422 57422 1263
Width: 1659
GlyphClass: 2
Flags: HMW
LayerCount: 2
Fore
SplineSet
1167 595 m 0
 1062 595 937 523 860 417 c 1
 907 400 967 390 1028 390 c 0
 1174 390 1280 439 1280 507 c 0
 1280 559 1234 595 1167 595 c 0
199 784 m 1
 569 784 l 1
 569 550 l 1
 577 546 587 541 599 534 c 1
 822 836 1018 976 1218 976 c 0
 1449 976 1619 775 1619 502 c 0
 1619 212 1367 0 1022 0 c 0
 762 0 579 61 448 191 c 1
 352 66 198 0 5 0 c 2
 0 0 l 2
 -36 0 -50 55 -50 196 c 0
 -50 335 -36 390 0 390 c 2
 5 390 l 2
 147 390 199 430 199 540 c 2
 199 784 l 1
EndSplineSet
EndChar

StartChar: uniE04F
Encoding: 57423 57423 1264
Width: 1690
GlyphClass: 2
Flags: HMW
LayerCount: 2
Back
SplineSet
199 784 m 1
 569 784 l 1
 569 550 l 1
 577 546 587 541 599 534 c 1
 822 836 1018 976 1218 976 c 0
 1449 976 1619 775 1619 502 c 0
 1619 463 1615 426 1606 390 c 1
 1632.51872039 390 1659.88431406 390 1689 390 c 1
 3738 390 l 1
 3738 0 l 1
 1689 0 l 2
 1565 0 1480 43 1421 120 c 1
 1317 44 1179 0 1022 0 c 0
 762 0 579 61 448 191 c 1
 352 66 198 0 5 0 c 2
 0 0 l 2
 -36 0 -50 55 -50 196 c 0
 -50 335 -36 390 0 390 c 2
 5 390 l 2
 147 390 199 430 199 540 c 2
 199 784 l 1
1167 595 m 0
 1062 595 937 523 860 417 c 1
 907 400 967 390 1028 390 c 0
 1174 390 1280 439 1280 507 c 0
 1280 559 1234 595 1167 595 c 0
EndSplineSet
Fore
SplineSet
199 784 m 1
 569 784 l 1
 569 550 l 1
 577 546 587 541 599 534 c 1
 822 836 1018 976 1218 976 c 0
 1449 976 1619 775 1619 502 c 0
 1619 463 1615 426 1606 390 c 1
 1632.51872039 390 1659.88431406 390 1689 390 c 1
 1690 390 l 1
 1690 0 l 1
 1689 0 l 2
 1565 0 1480 43 1421 120 c 1
 1317 44 1179 0 1022 0 c 0
 762 0 579 61 448 191 c 1
 352 66 198 0 5 0 c 2
 0 0 l 2
 -36 0 -50 55 -50 196 c 0
 -50 335 -36 390 0 390 c 2
 5 390 l 2
 147 390 199 430 199 540 c 2
 199 784 l 1
1167 595 m 0
 1062 595 937 523 860 417 c 1
 907 400 967 390 1028 390 c 0
 1174 390 1280 439 1280 507 c 0
 1280 559 1234 595 1167 595 c 0
EndSplineSet
Colour: ffff
EndChar

StartChar: uniE050
Encoding: 57424 57424 1265
Width: 1597
GlyphClass: 2
Flags: HMW
LayerCount: 2
Back
SplineSet
722 390 m 1
 950 390 l 2
 1117 390 1196 435 1196 502 c 0
 1196 544 1155 595 1076 595 c 0
 954 595 834 492 722 390 c 1
315 390 m 2
 318 393 320 395 323 398 c 2
 323 1505 l 1
 694 1505 l 1
 694 976 l 2
 694 870 678 788 658 712 c 1
 812 876 977 976 1140 976 c 0
 1367 976 1535 801 1535 524 c 0
 1535 476 1530 432 1520 390 c 1
 1547.52036776 390 1570.74788283 390 1596 390 c 1
 3645 390 l 1
 3645 0 l 1
 1596 0 l 2
 1481 0 1402 49 1346 127 c 1
 1230 43 1064 0 857 0 c 2
 40 0 l 1
 40 390 l 1
 315 390 l 2
EndSplineSet
Fore
SplineSet
722 390 m 257
 950 390 l 258
 1117 390 1196 435 1196 502 c 256
 1196 544 1155 595 1076 595 c 256
 954 595 834 492 722 390 c 257
315 390 m 258
 318 393 320 395 323 398 c 258
 323 1505 l 257
 694 1505 l 257
 694 976 l 258
 694 870 678 788 658 712 c 257
 812 876 977 976 1140 976 c 256
 1367 976 1535 801 1535 524 c 256
 1535 476 1530 432 1520 390 c 257
 1547.52 390 1570.75 390 1596 390 c 257
 1597 390 l 257
 1597 0 l 257
 1596 0 l 258
 1481 1 1402 49 1346 127 c 257
 1230 43 1064 0 857 0 c 258
 40 0 l 257
 40 390 l 257
 315 390 l 258
EndSplineSet
Colour: ffff
EndChar

StartChar: uniE051
Encoding: 57425 57425 1266
Width: 1363
GlyphClass: 2
Flags: HMW
LayerCount: 2
Fore
SplineSet
0 0 m 257
 -31 0 -50 38 -50 196 c 256
 -50 354 -31 390 0 390 c 257
 103 390 l 257
 106 393 108 395 111 398 c 257
 111 1505 l 257
 482 1505 l 257
 482 976 l 258
 482 870 466 788 446 712 c 257
 600 876 765 976 928 976 c 256
 1155 976 1323 801 1323 524 c 256
 1323 185 1071 0 645 0 c 258
 0 0 l 257
510 390 m 257
 738 390 l 258
 905 390 984 435 984 502 c 256
 984 544 943 595 864 595 c 256
 742 595 622 492 510 390 c 257
EndSplineSet
EndChar

StartChar: uniE052
Encoding: 57426 57426 1267
Width: 1385
GlyphClass: 2
Flags: HMW
LayerCount: 2
Back
SplineSet
0 0 m 273
 -31 0 -50 38 -50 196 c 256
 -50 354 -31 390 0 390 c 257
 103 390 l 17
 106 393 108 395 111 398 c 1
 111 1505 l 1
 482 1505 l 1
 482 976 l 2
 482 870 466 788 446 712 c 1
 600 876 765 976 928 976 c 0
 1155 976 1323 801 1323 524 c 0
 1323 476 1318 432 1308 390 c 1
 1335.52050781 390 1358.74804688 390 1384 390 c 1
 3433 390 l 25
 3433 0 l 25
 1384 0 l 17
 1269 0 1190 49 1134 127 c 1
 1018 43 852 0 645 0 c 2
 0 0 l 273
510 390 m 1
 738 390 l 2
 905 390 984 435 984 502 c 0
 984 544 943 595 864 595 c 0
 742 595 622 492 510 390 c 1
EndSplineSet
Fore
SplineSet
0 0 m 257
 -31 0 -50 38 -50 196 c 256
 -50 354 -31 390 0 390 c 257
 103 390 l 257
 106 393 108 395 111 398 c 257
 111 1505 l 257
 482 1505 l 257
 482 976 l 258
 482 870 466 788 446 712 c 257
 600 876 765 976 928 976 c 256
 1155 976 1323 801 1323 524 c 256
 1323 476 1318 432 1308 390 c 257
 1335.52 390 1358.75 390 1384 390 c 257
 1385 390 l 257
 1385 0 l 257
 1384 0 l 257
 1269 0 1190 49 1134 127 c 257
 1018 43 852 0 645 0 c 258
 0 0 l 257
510 390 m 257
 738 390 l 258
 905 390 984 435 984 502 c 256
 984 544 943 595 864 595 c 256
 742 595 622 492 510 390 c 257
EndSplineSet
Colour: ffff
EndChar

StartChar: uniE053
Encoding: 57427 57427 1268
Width: 1244
GlyphClass: 2
Flags: HMW
LayerCount: 2
Back
SplineSet
832 662 m 0
 832 700 784 723 705 723 c 0
 655 723 596 713 551 697 c 1
 551 694 l 1
 714 535 l 1
 793 586 832 628 832 662 c 0
1160 701 m 0
 1160 599 1121 510 1038 423 c 1
 1076 401 1118 390 1166 390 c 2
 3292 390 l 1
 3292 0 l 1
 1220 0 l 2
 1043 0 895 54 724 181 c 1
 509 75 410 -26 410 -141 c 0
 410 -280 549 -354 811 -354 c 0
 910 -354 1031 -343 1160 -322 c 1
 1230 -680 l 1
 1074 -719 915 -740 769 -740 c 0
 307 -740 40 -541 40 -198 c 0
 40 34 187 238 456 380 c 1
 142 663 l 1
 142 879 l 1
 291 1019 488 1099 682 1099 c 0
 961 1099 1160 933 1160 701 c 0
EndSplineSet
Fore
SplineSet
832 662 m 0
 832 700 784 723 705 723 c 0
 655 723 596 713 551 697 c 1
 551 694 l 1
 714 535 l 1
 793 586 832 628 832 662 c 0
1160 701 m 0
 1160 599 1121 510 1038 423 c 1
 1076 401 1118 390 1166 390 c 2
 1244 390 l 1
 1244 0 l 1
 1220 0 l 2
 1043 0 895 54 724 181 c 1
 509 75 410 -26 410 -141 c 0
 410 -280 549 -354 811 -354 c 0
 910 -354 1031 -343 1160 -322 c 1
 1230 -680 l 1
 1074 -719 915 -740 769 -740 c 0
 307 -740 40 -541 40 -198 c 0
 40 34 187 238 456 380 c 1
 142 663 l 1
 142 879 l 1
 291 1019 488 1099 682 1099 c 0
 961 1099 1160 933 1160 701 c 0
EndSplineSet
Colour: ffff
EndChar

StartChar: uniE054
Encoding: 57428 57428 1269
Width: 1096
GlyphClass: 2
Flags: HMW
LayerCount: 2
Fore
SplineSet
406 570 m 256
 406 468 497 439 619 439 c 256
 662 439 709 443 757 448 c 258
 981 475 l 257
 1019 96 l 257
 559 44 l 258
 394 25 158 0 36 0 c 258
 0 0 l 258
 -36 0 -50 56 -50 196 c 256
 -50 335 -36 390 0 390 c 258
 19 390 l 258
 50.9896907216 390 98.4226804124 390 126 390 c 257
 104.838709677 432 85 501 85 560 c 256
 85 873 282 1093 577 1093 c 256
 729.397413532 1093 850.732933859 1038.95766525 976.921875 949.637695312 c 257
 814.078125 665.362304688 l 257
 744.317954009 694.418516578 674.557783019 715 590 715 c 256
 471 715 406 651 406 570 c 256
EndSplineSet
EndChar

StartChar: uniE055
Encoding: 57429 57429 1270
Width: 1182
GlyphClass: 2
Flags: HMW
LayerCount: 2
Back
SplineSet
652 723 m 0
 602 723 543 713 498 697 c 1
 498 694 l 1
 661 535 l 1
 740 586 779 628 779 662 c 0
 779 700 731 723 652 723 c 0
629 1099 m 0
 908 1099 1107 933 1107 701 c 0
 1107 600 1066 508 982 420 c 1
 1032 398 1076 390 1133 390 c 2
 3230 390 l 1
 3230 0 l 1
 1089 0 l 2
 924 0 799 46.90625 664 158 c 1
 505 54.3125 316 0 110 0 c 2
 0 0 l 2
 -36 0 -50 56 -50 196 c 0
 -50 335 -36 390 0 390 c 2
 98 390 l 2
 193 390 297 404 358 420 c 1
 89 663 l 1
 89 879 l 1
 238 1019 435 1099 629 1099 c 0
EndSplineSet
Fore
SplineSet
652 723 m 0
 602 723 543 713 498 697 c 1
 498 694 l 1
 661 535 l 1
 740 586 779 628 779 662 c 0
 779 700 731 723 652 723 c 0
629 1099 m 0
 908 1099 1107 933 1107 701 c 0
 1107 600 1066 508 982 420 c 1
 1032 398 1076 390 1133 390 c 2
 1182 390 l 1
 1182 0 l 1
 1089 0 l 2
 924 0 799 46.90625 664 158 c 1
 505 54.3125 316 0 110 0 c 2
 0 0 l 2
 -36 0 -50 56 -50 196 c 0
 -50 335 -36 390 0 390 c 2
 98 390 l 2
 193 390 297 404 358 420 c 1
 89 663 l 1
 89 879 l 1
 238 1019 435 1099 629 1099 c 0
EndSplineSet
Colour: ffff
EndChar

StartChar: uniE056
Encoding: 57430 57430 1271
Width: 1850
GlyphClass: 2
Flags: HMW
LayerCount: 2
Back
SplineSet
1638 666 m 2
 1638 426 1665 390 1849 390 c 1
 3898 390 l 1
 3898 0 l 1
 1849 0 l 1
 1642 0 1524 60 1455 180 c 1
 1351 54 1164 0 832 0 c 0
 272 0 40 159 40 544 c 0
 40 632 56 755 84 880 c 1
 420 807 l 1
 403 710 390 609 390 568 c 0
 390 430 484 390 813 390 c 0
 1173 390 1267 447 1267 666 c 2
 1267 1496 l 1
 1638 1496 l 1
 1638 666 l 2
EndSplineSet
Fore
SplineSet
1638 666 m 258
 1638 426 1665 390 1849 390 c 257
 1850 390 l 257
 1850 0 l 257
 1849 0 l 257
 1642 0 1524 60 1455 180 c 257
 1351 54 1164 0 832 0 c 256
 272 0 40 159 40 544 c 256
 40 632 56 755 84 880 c 257
 420 807 l 257
 403 710 390 609 390 568 c 256
 390 430 484 390 813 390 c 256
 1173 390 1267 447 1267 666 c 258
 1267 1496 l 257
 1638 1496 l 257
 1638 666 l 258
EndSplineSet
Colour: ffff
EndChar

StartChar: uniE057
Encoding: 57431 57431 1272
Width: 930
GlyphClass: 2
Flags: HMW
LayerCount: 2
Fore
SplineSet
930 1587 m 257
 980 1200 l 257
 788 1157 636 1120 451 1059 c 257
 451 1054 l 257
 742 803 834 660 834 485 c 256
 834 175 590 0 159 0 c 258
 0 0 l 258
 -36 0 -50 55 -50 196 c 256
 -50 335 -36 390 0 390 c 258
 150 390 l 258
 361 390 464 421 464 506 c 256
 464 592 293 737 -6 968 c 257
 20 1277 l 257
 339 1437 613 1528 930 1587 c 257
EndSplineSet
EndChar

StartChar: uniE058
Encoding: 57432 57432 1273
Width: 1141
GlyphClass: 2
Flags: HMW
LayerCount: 2
Back
SplineSet
699 247 m 257
 566 78 453 0 159 0 c 258
 0 0 l 258
 -36 0 -50 55 -50 195 c 256
 -50 335 -36 390 0 390 c 258
 150 390 l 258
 386 390 454 437 454 503 c 256
 454 592 291 738 -6 968 c 257
 20 1277 l 257
 340 1437 614 1528 930 1587 c 257
 980 1200 l 257
 788 1157 636 1120 451 1059 c 257
 451 1054 l 257
 624 898 685 825 783 663 c 256
 914 442 1000 390 1140 390 c 258
 3189 390 l 257
 3189 0 l 257
 1140 0 l 258
 955 0 838 73 709 247 c 257
 699 247 l 257
EndSplineSet
Fore
SplineSet
699 247 m 257
 566 78 453 0 159 0 c 258
 0 0 l 258
 -36 0 -50 55 -50 195 c 256
 -50 335 -36 390 0 390 c 258
 150 390 l 258
 386 390 454 437 454 503 c 256
 454 592 291 738 -6 968 c 257
 20 1277 l 257
 340 1437 614 1528 930 1587 c 257
 980 1200 l 257
 788 1157 636 1120 451 1059 c 257
 451 1054 l 257
 624 898 685 825 783 663 c 256
 914 442 1000 390 1140 390 c 258
 1141 390 l 257
 1141 0 l 257
 1140 0 l 258
 955 0 838 73 709 247 c 257
 699 247 l 257
EndSplineSet
Colour: ffff
EndChar

StartChar: uniE059
Encoding: 57433 57433 1274
Width: 1612
GlyphClass: 2
Flags: HMW
LayerCount: 2
Back
SplineSet
3660 390 m 1
 3660 0 l 1
 1599 0 l 2
 1504 0 1448.09960938 30 1383 114 c 1
 1383 86 l 2
 1383 -274 1096 -540 661 -540 c 0
 261 -540 40 -314 40 95 c 0
 40 209 57 350 90 511 c 1
 433 420 l 1
 401 268 390 189 390 124 c 0
 390 -64 484 -149 690 -149 c 0
 910 -149 1012 -51 1012 160 c 2
 1012 1505 l 1
 1383 1505 l 1
 1383 556 l 2
 1383 423 1422 390 1583 390 c 2
 3660 390 l 1
EndSplineSet
Fore
SplineSet
1612 390 m 1
 1612 0 l 1
 1599 0 l 2
 1504.30909091 0 1448.09960938 30 1383 114 c 1
 1383 86 l 2
 1383 -274 1096 -540 661 -540 c 0
 261 -540 40 -314 40 95 c 0
 40 209 57 350 90 511 c 1
 433 420 l 1
 401 268 390 189 390 124 c 0
 390 -64 484 -149 690 -149 c 0
 910 -149 1012 -51 1012 160 c 2
 1012 1505 l 1
 1383 1505 l 1
 1383 556 l 2
 1383 423 1422 390 1583 390 c 2
 1612 390 l 1
EndSplineSet
Colour: ffff
EndChar

StartChar: uniE05A
Encoding: 57434 57434 1275
Width: 665
GlyphClass: 2
Flags: HMW
LayerCount: 2
Fore
SplineSet
0 390 m 256
 163 390 184 399 184 525 c 258
 184 1505 l 257
 555 1505 l 257
 555 525 l 258
 555 189 362 0 0 0 c 256
 -31 0 -51 38 -51 196 c 256
 -51 354 -31 390 0 390 c 256
EndSplineSet
EndChar

StartChar: uniE05B
Encoding: 57435 57435 1276
Width: 744
GlyphClass: 2
Flags: HMW
LayerCount: 2
Back
SplineSet
364 186 m 257
 314 86 189 0 0 0 c 256
 -31 0 -50 38 -50 196 c 256
 -50 354 -31 390 0 390 c 256
 163 390 184 399 184 525 c 258
 184 1505 l 257
 554 1505 l 257
 554 542 l 258
 554 422 602 390 743 390 c 258
 2792 390 l 257
 2792 0 l 257
 743 0 l 258
 544 0 423 87 374 186 c 257
 364 186 l 257
EndSplineSet
Fore
SplineSet
364 186 m 257
 314 86 189 0 0 0 c 256
 -31 0 -50 38 -50 196 c 256
 -50 354 -31 390 0 390 c 256
 163 390 184 399 184 525 c 258
 184 1505 l 257
 554 1505 l 257
 554 542 l 258
 554 422 602 390 743 390 c 258
 744 390 l 257
 744 0 l 257
 743 0 l 258
 544 0 423 87 374 186 c 257
 364 186 l 257
EndSplineSet
Colour: ffff
EndChar

StartChar: uniE05C
Encoding: 57436 57436 1277
Width: 1516
GlyphClass: 2
Flags: HMW
LayerCount: 2
Back
SplineSet
840 581 m 0
 780 581 738 526 714 416 c 1
 743 408 775 400 806 393 c 0
 843 385 871 381 892 381 c 0
 920 381 940 399 940 423 c 0
 940 525 904 581 840 581 c 0
851 964 m 0
 1079 964 1158 801 1234 643 c 0
 1298 509 1367 390 1515 390 c 1
 3564 390 l 1
 3564 0 l 1
 1515 0 l 1
 1363 0 1286 56 1220 201 c 1
 1163 90 1092 -11 935 -11 c 0
 853 -11 765 2 608 37 c 0
 542 52 497 59 469 59 c 0
 437 59 411 39 411 14 c 2
 411 -655 l 1
 40 -655 l 1
 40 60 l 2
 40 305 181 475 385 475 c 1
 444 781 618 964 851 964 c 0
EndSplineSet
Fore
SplineSet
840 581 m 256
 780 581 738 526 714 416 c 257
 743 408 775 400 806 393 c 256
 843 385 871 381 892 381 c 256
 920 381 940 399 940 423 c 256
 940 525 904 581 840 581 c 256
851 964 m 256
 1079 964 1158 801 1234 643 c 256
 1298 509 1367 390 1515 390 c 257
 1516 390 l 257
 1516 0 l 257
 1515 0 l 257
 1363 0 1286 56 1220 201 c 257
 1163 90 1092 -11 935 -11 c 256
 853 -11 765 2 608 37 c 256
 542 52 497 59 469 59 c 256
 437 59 411 39 411 14 c 258
 411 -655 l 257
 40 -655 l 257
 40 60 l 258
 40 305 181 475 385 475 c 257
 444 781 618 964 851 964 c 256
EndSplineSet
Colour: ffff
EndChar

StartChar: uniE05D
Encoding: 57437 57437 1278
Width: 1109
GlyphClass: 2
Flags: HMW
LayerCount: 2
Fore
SplineSet
0 390 m 256
 117 390 159 446 254 630 c 256
 386 884 487 964 653 964 c 256
 883 964 1069 756 1069 455 c 256
 1069 160 920 -10 669 -10 c 256
 507 -10 387 64 328 178 c 257
 241 53 163 0 0 0 c 257
 -36 0 -50 55 -50 196 c 256
 -50 335 -36 390 0 390 c 256
516 435 m 257
 562 405 617 380 669 380 c 256
 718 380 744 419 744 445 c 256
 744 511 713 581 650 581 c 256
 589 581 552 529 523 454 c 257
 516 435 l 257
EndSplineSet
EndChar

StartChar: uniE05E
Encoding: 57438 57438 1279
Width: 1319
GlyphClass: 2
Flags: HMW
LayerCount: 2
Back
SplineSet
516 435 m 1
 562 405 617 380 669 380 c 0
 718 380 744 419 744 445 c 0
 744 511 713 581 650 581 c 0
 589 581 552 529 523 454 c 9
 516 435 l 1
0 390 m 0
 117 390 159 446 254 630 c 0
 386 884 487 964 653 964 c 0
 810 964 928 873 1035 648 c 0
 1124 461 1200 390 1318 390 c 1
 3367 390 l 1
 3367 0 l 1
 1318 0 l 1
 1153 0 1045 78 1001 232 c 1
 950 88 835 -10 669 -10 c 0
 507 -10 387 64 328 178 c 1
 241 53 163 0 0 0 c 1
 -36 0 -50 55 -50 196 c 0
 -50 335 -36 390 0 390 c 0
EndSplineSet
Fore
SplineSet
516 435 m 257
 562 405 617 380 669 380 c 256
 718 380 744 419 744 445 c 256
 744 511 713 581 650 581 c 256
 589 581 552 529 523 454 c 257
 516 435 l 257
0 390 m 256
 117 390 159 446 254 630 c 256
 386 884 487 964 653 964 c 256
 810 964 928 873 1035 648 c 256
 1124 461 1200 390 1318 390 c 257
 1319 390 l 257
 1319 0 l 257
 1318 0 l 257
 1153 0 1045 78 1001 232 c 257
 950 88 835 -10 669 -10 c 256
 507 -10 387 64 328 178 c 257
 241 53 163 0 0 0 c 257
 -36 0 -50 55 -50 196 c 256
 -50 335 -36 390 0 390 c 256
EndSplineSet
Colour: ffff
EndChar

StartChar: uniE05F
Encoding: 57439 57439 1280
Width: 1211
GlyphClass: 2
Flags: HMW
LayerCount: 2
Back
SplineSet
632 1036 m 1
 621 1212 l 1
 991 1234 l 1
 1029 589 l 2
 1038 447 1090 390 1210 390 c 2
 3259 390 l 1
 3259 0 l 1
 1210 0 l 2
 1014 0 876 64 782 197 c 1
 716 166 628 146 557 146 c 0
 284 146 110 282 110 495 c 0
 110 770 291 958 632 1036 c 1
658 682 m 1
 526 682 427 633 427 567 c 0
 427 522 483 496 579 496 c 0
 616 496 645 498 672 503 c 1
 668 539 667 553 666 567 c 2
 658 682 l 1
EndSplineSet
Fore
SplineSet
632 1036 m 1
 621 1212 l 1
 991 1234 l 1
 1029 589 l 2
 1038 447 1090 390 1210 390 c 2
 1211 390 l 1
 1211 0 l 1
 1210 0 l 2
 1014 0 876 64 782 197 c 1
 716 166 628 146 557 146 c 0
 284 146 110 282 110 495 c 0
 110 770 291 958 632 1036 c 1
658 682 m 1
 526 682 427 633 427 567 c 0
 427 522 483 496 579 496 c 0
 616 496 645 498 672 503 c 1
 668 539 667 553 666 567 c 2
 658 682 l 1
EndSplineSet
Colour: ffff
EndChar

StartChar: uniE060
Encoding: 57440 57440 1281
Width: 1456
GlyphClass: 2
Flags: HMW
LayerCount: 2
Fore
SplineSet
0 390 m 258
 98 390 l 258
 132 390 155 390 180 390 c 257
 139 471 119 543 119 605 c 256
 119 709 163 803 245 875 c 257
 115 934 l 257
 268 1290 l 257
 892 1022 l 258
 1264 862 1406 697 1406 425 c 256
 1406 163 1229 -11 962 -11 c 256
 801 -11 664 35 519 139 c 257
 412 51 264 0 115 0 c 258
 0 0 l 258
 -36 0 -50 55 -50 196 c 256
 -50 335 -36 390 0 390 c 258
536 450 m 257
 619 493 659 547 659 617 c 256
 659 677 610 722 545 722 c 256
 480 722 430 668 430 597 c 256
 430 554 469 500 536 450 c 257
860 405 m 257
 907 389 947 382 990 382 c 256
 1065 382 1107 405 1107 446 c 256
 1107 504 1049 550 917 597 c 257
 917 520 899 459 860 405 c 257
EndSplineSet
EndChar

StartChar: uniE061
Encoding: 57441 57441 1282
Width: 1105
GlyphClass: 2
Flags: HMW
LayerCount: 2
Back
SplineSet
508 1034 m 0
 733 1034 888 874 888 638 c 0
 888 414 708 188 413 64 c 1
 453 -35 488 -94 538 -144 c 1
 544 -144 l 1
 816 310 900 390 1104 390 c 2
 3153 390 l 1
 3153 0 l 1
 1104 0 l 2
 955 0 874 -97 678 -511 c 1
 424 -511 l 1
 254 -362 153 -199 96 0 c 1
 0 0 l 2
 -36 0 -50 55 -50 196 c 0
 -50 335 -36 390 0 390 c 2
 65 390 l 1
 65 848 270 1034 508 1034 c 0
379 411 m 1
 505 432 593 504 593 584 c 0
 593 636 561 673 512 673 c 0
 441 673 379 614 379 411 c 1
EndSplineSet
Fore
SplineSet
508 1034 m 256
 733 1034 888 874 888 638 c 256
 888 414 708 188 413 64 c 257
 453 -35 488 -94 538 -144 c 257
 544 -144 l 257
 816 310 900 390 1104 390 c 258
 1105 390 l 257
 1105 0 l 257
 1104 0 l 258
 955 0 874 -97 678 -511 c 257
 424 -511 l 257
 254 -362 153 -199 96 0 c 257
 0 0 l 258
 -36 0 -50 55 -50 196 c 256
 -50 335 -36 390 0 390 c 258
 65 390 l 257
 65 848 270 1034 508 1034 c 256
379 411 m 257
 505 432 593 504 593 584 c 256
 593 636 561 673 512 673 c 256
 441 673 379 614 379 411 c 257
EndSplineSet
Colour: ffff
EndChar

StartChar: uniE062
Encoding: 57442 57442 1283
Width: 995
GlyphClass: 2
Flags: HMW
LayerCount: 2
Back
SplineSet
578 392 m 257
 572 529 525 577 459 577 c 256
 404 577 359 537 359 458 c 0
 359 415 384 384 447 384 c 256
 488 384 531 387 578 392 c 257
552 6 m 1
 515 2 469 0 430 0 c 0
 189 0 60 141 60 390 c 0
 60 687 194 963 469 963 c 0
 740 963 882 718 919 390 c 1
 3043 390 l 1
 3043 0 l 1
 904 0 l 1
 833 -271 608 -460 219 -598 c 1
 49 -248 l 1
 257 -183 467 -82 552 6 c 1
EndSplineSet
Fore
SplineSet
578 392 m 257
 572 529 525 577 459 577 c 256
 404 577 359 537 359 458 c 0
 359 415 384 384 447 384 c 256
 488 384 531 387 578 392 c 257
552 6 m 257
 515 2 469 0 430 0 c 256
 189 0 60 141 60 390 c 256
 60 687 194 963 469 963 c 256
 740 963 882 718 919 390 c 257
 995 390 l 257
 995 0 l 257
 904 0 l 257
 833 -271 608 -460 219 -598 c 257
 49 -248 l 257
 257 -183 467 -82 552 6 c 257
EndSplineSet
Colour: ffff
EndChar

StartChar: uniE063
Encoding: 57443 57443 1284
Width: 1298
GlyphClass: 2
Flags: HMW
LayerCount: 2
Fore
SplineSet
751 585 m 1
 537 416 l 1
 537 405 l 1
 577 391 646 382 708 382 c 0
 809 382 889 406 889 435 c 0
 889 457 839 511 751 585 c 1
769 1025 m 1
 817 1070 847 1153 847 1243 c 2
 847 1505 l 1
 1218 1505 l 1
 1218 1243 l 2
 1218 1049 1158 904 1019 762 c 1
 1157 629 1218 515 1218 388 c 0
 1218 141 996 -10 633 -10 c 0
 489 -10 353 20 157 95 c 1
 157 478 l 1
 540 776 l 1
 78 1240 l 1
 339 1515 l 1
 769 1025 l 1
EndSplineSet
EndChar

StartChar: uniE064
Encoding: 57444 57444 1285
Width: 1414
GlyphClass: 2
Flags: HMW
LayerCount: 2
Back
SplineSet
49 1389 m 1
 399 1521 l 1
 511 1241 592 922 630 616 c 1
 271 566 l 1
 234 834 151 1133 49 1389 c 1
864 1505 m 1
 1235 1505 l 1
 1235 540 l 2
 1235 427 1298 390 1413 390 c 1
 3462 390 l 5
 3462 0 l 5
 1413 0 l 1
 1177.80421691 0 1028.650726 88.27239777 963.667427705 283 c 2
 963 285 l 1
 794 88 538 0 60 0 c 1
 60 390 l 1
 494 390 707 457 864 615 c 9
 864 1505 l 1
EndSplineSet
Fore
SplineSet
50 1389 m 257
 400 1521 l 257
 512 1241 592 922 630 616 c 257
 271 566 l 257
 234 834 152 1133 50 1389 c 257
864 1505 m 257
 1235 1505 l 257
 1235 540 l 258
 1235 427 1298 390 1413 390 c 257
 1414 390 l 257
 1414 0 l 257
 1413 0 l 257
 1177.8 0 1028.65 88.2724 963.667 283 c 258
 963 285 l 257
 794 88 538 0 60 0 c 257
 60 390 l 257
 494 390 707 457 864 615 c 257
 864 1505 l 257
EndSplineSet
Colour: ffff
EndChar

StartChar: uniE065
Encoding: 57445 57445 1286
Width: 1975
GlyphClass: 2
Flags: HMW
LayerCount: 2
Back
SplineSet
1833 802 m 1
 1818 718 1799 603 1799 544 c 0
 1799 444 1864 390 1974 390 c 1
 4023 390 l 1
 4023 0 l 1
 1974 0 l 1
 1769 0 1631 74 1512 223 c 1
 1328 58 1098 0 792 0 c 0
 260 0 40 219 40 586 c 0
 40 712 68 857 100 980 c 1
 422 894 l 1
 403 813 383 702 383 640 c 0
 383 459 507 390 847 390 c 0
 1265 390 1421 536 1497 858 c 1
 1833 802 l 1
EndSplineSet
Fore
SplineSet
1833 802 m 257
 1818 718 1799 603 1799 544 c 256
 1799 444 1864 390 1974 390 c 257
 1975 390 l 257
 1975 0 l 257
 1974 0 l 257
 1769 0 1631 74 1512 223 c 257
 1328 58 1098 0 792 0 c 256
 260 0 40 219 40 586 c 256
 40 712 68 857 100 980 c 257
 422 894 l 257
 403 813 383 702 383 640 c 256
 383 459 507 390 847 390 c 256
 1265 390 1421 536 1497 858 c 257
 1833 802 l 257
EndSplineSet
Colour: ffff
EndChar

StartChar: uniE066
Encoding: 57446 57446 1287
Width: 965
GlyphClass: 2
Flags: HMW
LayerCount: 2
Fore
SplineSet
536 828 m 257
 516.038 965.74 477.125 1020 411 1020 c 256
 352.019 1020 317 965.025 317 884 c 256
 317 839.981 348.032 822 424 822 c 256
 459.833 822 496.818 823.981 536 828 c 257
0 390 m 258
 45 390 l 258
 521.786 390 600.988 408.178 594 516 c 257
 517.787 496.432 450.138 487 386 487 c 256
 137.795 487 24 594.193 24 828 c 256
 24 1181.98 181.983 1403 435 1403 c 256
 728.989 1403 916 1090.02 916 598 c 256
 916 162.949 684.928 0 68 0 c 258
 0 0 l 258
 -35.8571 0 -50 55.44 -50 196 c 256
 -50 335.34 -35.9124 390 0 390 c 258
EndSplineSet
EndChar

StartChar: uniE067
Encoding: 57447 57447 1288
Width: 1958
GlyphClass: 2
Flags: HMW
LayerCount: 2
Back
SplineSet
1449 139 m 1
 1303 54 1107 0 870 0 c 0
 302 0 40 152 40 519 c 0
 40 642 78 814 134 987 c 1
 457 883 l 1
 426 782 394 649 394 591 c 0
 394 447 522 390 870 390 c 0
 948 390 1023 390 1099 390 c 1
 1029 456 991 544 991 654 c 0
 991 928 1198 1122 1452 1122 c 0
 1703 1122 1915 928 1915 660 c 0
 1915 552 1877 457 1809 390 c 1
 1834 390 1858 390 1886 390 c 2
 4006 390 l 1
 4006 0 l 1
 1877 0 l 2
 1685 0 1553 52 1449 139 c 1
1449 468 m 1
 1511 510 1555 565 1555 632 c 0
 1555 680 1513 731 1452 731 c 0
 1389 731 1351 683 1351 632 c 0
 1351 569 1393 512 1449 468 c 1
EndSplineSet
Fore
SplineSet
1449 139 m 257
 1303 54 1107 0 870 0 c 256
 302 0 40 152 40 519 c 256
 40 642 78 814 134 987 c 257
 457 883 l 257
 426 782 394 649 394 591 c 256
 394 447 522 390 870 390 c 256
 948 390 1023 390 1099 390 c 257
 1029 456 991 544 991 654 c 256
 991 928 1198 1122 1452 1122 c 256
 1703 1122 1915 928 1915 660 c 256
 1915 552 1877 457 1809 390 c 257
 1834 390 1858 390 1886 390 c 258
 1958 390 l 257
 1958 0 l 257
 1877 0 l 258
 1685 0 1553 52 1449 139 c 257
1449 468 m 257
 1511 510 1555 565 1555 632 c 256
 1555 680 1513 731 1452 731 c 256
 1389 731 1351 683 1351 632 c 256
 1351 569 1393 512 1449 468 c 257
EndSplineSet
Colour: ffff
EndChar

StartChar: uniE068
Encoding: 57448 57448 1289
Width: 1066
GlyphClass: 2
Flags: HMW
LayerCount: 2
Back
SplineSet
70 654 m 0
 70 928 279 1122 533 1122 c 0
 784 1122 995 928 995 660 c 0
 995 552 956 458 887 390 c 1
 917.078399451 390 945 390 977 390 c 2
 3114 390 l 1
 3114 0 l 1
 957 0 l 2
 761 0 630 54 524 141 c 1
 419 54 289 0 96 0 c 2
 0 0 l 2
 -36 0 -51 57 -51 196 c 0
 -51 334 -36 390 0 390 c 2
 61 390 l 2
 101 390 140 390 177 390 c 1
 108 456 70 545 70 654 c 0
530 469 m 1
 593 510 634 562 634 632 c 0
 634 680 594 731 533 731 c 0
 470 731 431 683 431 632 c 0
 431 571 474 513 530 469 c 1
EndSplineSet
Fore
SplineSet
70 654 m 256
 70 928 279 1122 533 1122 c 256
 784 1122 995 928 995 660 c 256
 995 552 956 458 887 390 c 257
 917.078 390 944.643 390 977 390 c 258
 1066 390 l 257
 1066 0 l 257
 957 0 l 258
 761 0 630 54 524 141 c 257
 419 54 289 0 96 0 c 258
 0 0 l 258
 -36 0 -51 57 -51 196 c 256
 -51 334 -36 390 0 390 c 258
 61 390 l 258
 101 390 140 390 177 390 c 257
 108 456 70 545 70 654 c 256
530 469 m 257
 593 510 634 562 634 632 c 256
 634 680 594 731 533 731 c 256
 470 731 431 683 431 632 c 256
 431 571 474 513 530 469 c 257
EndSplineSet
Colour: ffff
EndChar

StartChar: uniE069
Encoding: 57449 57449 1290
Width: 1591
GlyphClass: 2
Flags: HMW
LayerCount: 2
Back
SplineSet
1196 392 m 257
 1190 529 1143 577 1077 577 c 256
 1022 577 977 537 977 458 c 0
 977 415 1002 384 1065 384 c 256
 1106 384 1149 387 1196 392 c 257
1163 6 m 1
 1126 3 1087 0 1048 0 c 0
 807 0 678 141 678 390 c 0
 678 687 812 963 1087 963 c 0
 1358 963 1500 718 1537 390 c 1
 3639 390 l 1
 3639 0 l 1
 1526 0 l 1
 1450 -346 1173 -541 777 -541 c 0
 306 -541 43 -333 43 90 c 0
 43 210 62 370 104 613 c 1
 463 542 l 1
 428 348 414 226 414 125 c 0
 414 -65 554 -149 788 -149 c 0
 988 -149 1140 -75 1163 6 c 1
EndSplineSet
Fore
SplineSet
1196 392 m 257
 1190 529 1143 577 1077 577 c 256
 1022 577 977 537 977 458 c 0
 977 415 1002 384 1065 384 c 256
 1106 384 1149 387 1196 392 c 257
1163 6 m 257
 1126 3 1087 0 1048 0 c 256
 807 0 678 141 678 390 c 256
 678 687 812 963 1087 963 c 256
 1358 963 1500 718 1537 390 c 257
 1591 390 l 257
 1591 0 l 257
 1526 0 l 257
 1450 -346 1173 -541 777 -541 c 256
 306 -541 43 -333 43 90 c 256
 43 210 62 370 104 613 c 257
 463 542 l 257
 428 348 414 226 414 125 c 256
 414 -65 554 -149 788 -149 c 256
 988 -149 1140 -75 1163 6 c 257
EndSplineSet
Colour: ffff
EndChar

StartChar: uniE06E
Encoding: 57454 57454 1291
Width: 0
GlyphClass: 2
Flags: HMW
LayerCount: 2
Fore
SplineSet
-58 1230 m 1
 3 1230 l 2
 111 1230 160 1247 160 1283 c 0
 160 1314 137 1334 103 1334 c 0
 59 1334 12 1303 -58 1230 c 1
-213 1230 m 1
 -213 1620 l 1
 -55 1620 l 1
 -55 1364 l 1
 26 1448 72 1476 130 1476 c 0
 218 1476 282 1397 282 1290 c 0
 282 1162 177 1084 3 1084 c 2
 -327 1084 l 1
 -327 1230 l 1
 -213 1230 l 1
EndSplineSet
EndChar

StartChar: uniE06F
Encoding: 57455 57455 1292
Width: 0
GlyphClass: 2
Flags: HMW
LayerCount: 2
Fore
SplineSet
84 1393 m 257
 110 1384 128 1379 148 1379 c 256
 201 1379 240 1404 240 1436 c 256
 240 1457 227 1472 199 1472 c 256
 169 1472 133 1458 84 1393 c 257
-33 1436 m 257
 66 1598 134 1640 208 1640 c 256
 325 1640 386 1567 386 1426 c 256
 386 1292 271 1171 142 1171 c 256
 96 1171 45 1183 -11 1209 c 256
 -50 1227 -72 1234 -90 1234 c 256
 -131 1234 -153 1215 -209 1135 c 257
 -333 1230 l 257
 -268 1362 -171 1440 -72 1440 c 256
 -59 1440 -47 1439 -33 1436 c 257
EndSplineSet
EndChar

StartChar: uniE070
Encoding: 57456 57456 1293
Width: 0
GlyphClass: 2
Flags: HMW
LayerCount: 2
Fore
SplineSet
230 1358 m 257
 230 1184 142 1104 0 1104 c 256
 -144 1104 -230 1185 -230 1358 c 257
 -81 1358 l 257
 -81 1276 -54 1254 0 1254 c 256
 52 1254 81 1280 81 1358 c 257
 230 1358 l 257
EndSplineSet
EndChar

StartChar: uniE071
Encoding: 57457 57457 1294
Width: 0
GlyphClass: 2
Flags: HMW
LayerCount: 2
Fore
SplineSet
230 1118 m 257
 -230 1118 l 257
 -230 1267 l 257
 230 1267 l 257
 230 1118 l 257
EndSplineSet
EndChar

StartChar: uniE072
Encoding: 57458 57458 1295
Width: 0
GlyphClass: 2
Flags: HMW
LayerCount: 2
Fore
SplineSet
-65 1501 m 256
 -86 1501 -101 1482 -101 1456 c 256
 -101 1420 -91 1392 -71 1372 c 257
 -18 1393 9 1417 9 1443 c 256
 9 1468 -33 1501 -65 1501 c 256
-89 1649 m 256
 31 1649 139 1552 139 1443 c 256
 139 1375 108 1316 49 1286 c 257
 121 1251 195 1222 244 1210 c 257
 205 1065 l 257
 -62 1135 -249 1299 -249 1465 c 256
 -249 1579 -185 1649 -89 1649 c 256
EndSplineSet
EndChar

StartChar: uniE073
Encoding: 57459 57459 1296
Width: 0
GlyphClass: 2
Flags: HMW
LayerCount: 2
Fore
SplineSet
-175 1084 m 257
 -237 1219 l 257
 175 1415 l 257
 236 1280 l 257
 -175 1084 l 257
-200 1420 m 257
 -111 1509 l 257
 -22 1420 l 257
 -111 1332 l 257
 -200 1420 l 257
-4 1063 m 257
 85 1152 l 257
 174 1063 l 257
 85 975 l 257
 -4 1063 l 257
EndSplineSet
EndChar

StartChar: uniE075
Encoding: 57461 57461 1297
Width: 2230
GlyphClass: 2
Flags: HMW
LayerCount: 2
Fore
SplineSet
1254 1608 m 257
 1455 1281 l 257
 1157 1117 1007 1029 884 944 c 257
 1581 944 l 258
 2006.18335684 944 2190 826 2190 554 c 256
 2190 220 1902.68446602 0 1466 0 c 258
 40 0 l 257
 40 390 l 257
 1575 390 l 258
 1693.38461538 390 1800 438 1800 491 c 256
 1800 527 1759.78350515 554 1706 554 c 258
 666 554 l 257
 430 897 l 257
 515 1124 760 1336 1254 1608 c 257
EndSplineSet
EndChar

StartChar: uniE076
Encoding: 57462 57462 1298
Width: 2079
GlyphClass: 2
Flags: HMW
LayerCount: 2
Fore
SplineSet
895 558 m 257
 601 383 l 257
 470.862288136 348.98757764 258.786016949 279.124223602 146 235 c 257
 38 529 l 257
 299.919014085 620.818181818 460.950704225 659 589 659 c 256
 688 659 782 628 895 558 c 257
EndSplineSet
Refer: 1247 57406 N 1 0 0 1 441 0 2
EndChar

StartChar: uniE077
Encoding: 57463 57463 1299
Width: 1781
GlyphClass: 2
Flags: HMW
LayerCount: 2
Fore
SplineSet
1292 797 m 257
 1253 972 1226 1035 1190 1035 c 256
 1173 1035 1156 1019 1143 989 c 256
 1022 717 848.766 572.023 606 516 c 256
 489 489 406 456 406 428 c 256
 406 402 433 390 571 390 c 258
 1741 390 l 257
 1741 0 l 257
 515 0 l 258
 216 0 40 143 40 387 c 256
 40 634 202 798 537 889 c 256
 666 924 743 995 822 1154 c 256
 927 1367 1040 1461 1193 1461 c 256
 1422 1461 1528 1316 1619 877 c 257
 1292 797 l 257
EndSplineSet
EndChar

StartChar: uniE078
Encoding: 57464 57464 1300
Width: 0
GlyphClass: 2
Flags: HMW
LayerCount: 2
Fore
SplineSet
259 1331 m 0
 223 1331 184 1309 160 1275 c 1
 176 1268 197 1265 217 1265 c 0
 259 1265 295 1280 295 1302 c 0
 295 1320 281 1331 259 1331 c 0
275 1450 m 0
 348 1450 400 1383 400 1301 c 0
 400 1214 326 1145 216 1145 c 0
 134 1145 66 1169 30 1215 c 1
 13 1172 -52 1145 -106 1145 c 0
 -170 1145 -211 1176 -219 1214 c 1
 -227 1176 -274 1145 -336 1145 c 2
 -340 1145 l 2
 -450 1145 -472 1113 -472 1093 c 0
 -472 1084 -465 1074 -444 1074 c 2
 4 1074 l 1
 4 955 l 1
 -442 955 l 2
 -521 955 -588 987 -588 1074 c 0
 -588 1190 -493 1265 -339 1265 c 2
 -336 1265 l 2
 -282 1265 -275 1271 -275 1307 c 2
 -275 1544 l 1
 -162 1544 l 1
 -162 1313 l 2
 -162 1278 -148 1265 -106 1265 c 0
 -48 1265 -44 1278 -44 1321 c 2
 -44 1385 l 1
 69 1385 l 1
 70 1324 l 2
 70 1316 77 1312 83 1311 c 1
 154 1409 213 1450 275 1450 c 0
EndSplineSet
EndChar

StartChar: uniE079
Encoding: 57465 57465 1301
Width: 0
GlyphClass: 2
Flags: HMW
LayerCount: 2
Fore
SplineSet
44 1466 m 0
 25 1466 10 1450 10 1423 c 0
 10 1409 21 1402 46 1402 c 0
 58 1402 73 1403 83 1405 c 1
 78 1452 65 1466 44 1466 c 0
143 1669 m 1
 87 1613 l 1
 31 1669 l 1
 87 1725 l 1
 143 1669 l 1
57 1669 m 1
 1 1613 l 1
 -56 1669 l 1
 1 1725 l 1
 57 1669 l 1
50 1584 m 0
 139 1584 200 1490 200 1332 c 0
 200 1202 142 1145 -40 1145 c 2
 -43 1145 l 2
 -109 1145 -154 1175 -162 1213 c 1
 -170 1175 -217 1145 -279 1145 c 2
 -283 1145 l 2
 -393 1145 -416 1112 -416 1092 c 0
 -416 1083 -408 1074 -387 1074 c 2
 61 1074 l 1
 61 954 l 1
 -385 954 l 2
 -464 954 -531 987 -531 1074 c 0
 -531 1190 -437 1266 -283 1266 c 2
 -279 1266 l 2
 -225 1266 -218 1271 -218 1307 c 2
 -218 1544 l 1
 -105 1544 l 1
 -105 1313 l 2
 -105 1278 -89 1266 -43 1266 c 2
 -40 1266 l 2
 89 1266 108 1275 102 1310 c 1
 77 1302 53 1301 32 1301 c 0
 -46 1301 -78 1332 -78 1405 c 0
 -78 1518 -27 1584 50 1584 c 0
EndSplineSet
EndChar

StartChar: uniE07A
Encoding: 57466 57466 1302
Width: 0
GlyphClass: 2
Flags: HMW
LayerCount: 2
Fore
SplineSet
33 1271 m 1
 51 1259 73 1249 94 1249 c 0
 114 1249 124 1265 124 1275 c 0
 124 1301 111 1329 86 1329 c 0
 62 1329 48 1309 36 1279 c 2
 33 1271 l 1
-174 1253 m 2
 -127 1253 -110 1275 -72 1349 c 0
 -19 1451 22 1483 88 1483 c 0
 180 1483 254 1399 254 1279 c 0
 254 1161 194 1093 94 1093 c 0
 29 1093 -18 1122 -42 1168 c 1
 -77 1118 -109 1097 -174 1097 c 2
 -221 1097 l 1
 -221 1253 l 1
 -174 1253 l 2
EndSplineSet
EndChar

StartChar: uniE07B
Encoding: 57467 57467 1303
Width: 0
GlyphClass: 2
Flags: HMW
LayerCount: 2
Fore
SplineSet
-175 1314 m 257
 -278 1662 l 257
 -112 1711 l 257
 -11 1356 l 257
 -175 1314 l 257
257 1704 m 257
 257 1479 l 258
 257 1166 190 1066 -190 1066 c 258
 -260 1066 l 257
 -260 1239 l 257
 -172 1239 l 258
 60 1239 83 1269 83 1461 c 258
 83 1704 l 257
 257 1704 l 257
EndSplineSet
EndChar

StartChar: uniE07C
Encoding: 57468 57468 1304
Width: 0
GlyphClass: 2
Flags: HMW
LayerCount: 2
Fore
SplineSet
52 1208 m 257
 128 1132 l 257
 52 1057 l 257
 -24 1132 l 257
 52 1208 l 257
85 1388 m 1
 32 1409 l 2
 -24 1431 -59 1444 -83 1444 c 0
 -121 1444 -143 1420 -151 1360 c 1
 -245 1377 l 1
 -223 1515 -176 1582 -85 1582 c 0
 -43 1582 -4 1567 91 1529 c 2
 284 1452 l 1
 256.645507812 1291.27441406 l 1
 12 1258 -130 1195 -130 1101 c 0
 -130 1039 -73 1006 52 1006 c 0
 127 1006 205 1018 266 1039 c 1
 318 905 l 1
 237 868 147 849 52 849 c 0
 -150 849 -269 935 -269 1075 c 0
 -269 1223 -137 1342 85 1388 c 1
EndSplineSet
EndChar

StartChar: uniE07D
Encoding: 57469 57469 1305
Width: 0
GlyphClass: 2
Flags: HMW
LayerCount: 2
Fore
SplineSet
-106 1286 m 257
 -10 1189 l 257
 -106 1093 l 257
 -202 1189 l 257
 -106 1286 l 257
106 1286 m 257
 202 1189 l 257
 106 1093 l 257
 9 1189 l 257
 106 1286 l 257
-0 1461 m 257
 97 1365 l 257
 -0 1268 l 257
 -96 1365 l 257
 -0 1461 l 257
EndSplineSet
EndChar

StartChar: uniE07E
Encoding: 57470 57470 1306
Width: 0
GlyphClass: 2
Flags: HMW
LayerCount: 2
Fore
SplineSet
240 1148 m 257
 228 1092 194 1061 142 1061 c 256
 116 1061 95 1069 74 1083 c 257
 63 941 -43 847 -239 847 c 256
 -447 847 -538 944 -538 1130 c 256
 -538 1180 -531 1237 -512 1340 c 257
 -378 1312 l 257
 -394 1226 -399 1187 -399 1143 c 256
 -399 1045 -352 993 -231 993 c 256
 -116 993 -51 1041 -51 1129 c 256
 -51 1169 -70 1247 -100 1347 c 257
 34 1389 l 257
 69 1266 l 258
 81 1225 94 1206 126 1206 c 256
 160 1206 175 1224 178 1266 c 258
 184 1356 l 257
 302 1348 l 257
 296 1252 l 258
 296 1250 296 1248 296 1248 c 258
 296 1220 313 1206 344 1206 c 256
 376 1206 392 1225 392 1257 c 256
 392 1271 386 1329 377 1378 c 257
 511 1409 l 257
 522 1353 528 1298 528 1258 c 256
 528 1123 477 1061 372 1061 c 256
 302 1061 262 1087 240 1148 c 257
EndSplineSet
EndChar

StartChar: uniE07F
Encoding: 57471 57471 1307
Width: 0
GlyphClass: 2
Flags: HMW
LayerCount: 2
Fore
SplineSet
-129 1413 m 256
 -129 1484 -71 1541 0 1541 c 256
 71 1541 129 1484 129 1413 c 256
 129 1342 71 1284 0 1284 c 256
 -71 1284 -129 1342 -129 1413 c 256
EndSplineSet
EndChar

StartChar: uniE080
Encoding: 57472 57472 1308
Width: 0
GlyphClass: 2
Flags: HMW
LayerCount: 2
Fore
SplineSet
-134 1279 m 257
 -134 1546 l 257
 134 1546 l 257
 134 1279 l 257
 -134 1279 l 257
EndSplineSet
EndChar

StartChar: uniE081
Encoding: 57473 57473 1309
Width: 0
GlyphClass: 2
Flags: HMW
LayerCount: 2
Fore
SplineSet
-74 1498 m 256
 -45 1498 -11 1492 30 1476 c 258
 255 1385 l 257
 257 1287 l 257
 137 1157 -12 1090 -257 1084 c 257
 -257 1237 l 257
 -127 1237 -37 1253 44 1305 c 257
 -30 1332 l 258
 -45 1338 -56 1338 -66 1338 c 256
 -107 1338 -118 1303 -124 1272 c 257
 -244 1294 l 257
 -233 1406 -181 1498 -74 1498 c 256
EndSplineSet
EndChar

